<?xml version="1.0" standalone="no"?>
<!DOCTYPE svg PUBLIC "-//W3C//DTD SVG 20010904//EN"
 "http://www.w3.org/TR/2001/REC-SVG-20010904/DTD/svg10.dtd">
<svg version="1.0" xmlns="http://www.w3.org/2000/svg"
 width="320.000000pt" height="320.000000pt" viewBox="0 0 320.000000 320.000000"
 preserveAspectRatio="xMidYMid meet">
<metadata>
Created by potrace 1.14, written by Peter Selinger 2001-2017
</metadata>
<g transform="translate(0.000000,320.000000) scale(0.100000,-0.100000)"
fill="#000000" stroke="none">
<path d="M1487 3183 c-138 -21 -283 -77 -405 -156 -58 -37 -191 -160 -227
-208 -31 -42 -73 -118 -68 -123 4 -3 2 -6 -3 -6 -9 0 -46 -87 -46 -107 0 -4
-4 -15 -9 -24 -4 -9 -10 -27 -13 -40 -3 -13 -7 -33 -9 -44 -16 -74 -20 -133
-22 -308 -1 -128 -5 -201 -12 -208 -8 -8 -20 -6 -41 10 -38 27 -71 15 -92 -32
-13 -31 -16 -147 -5 -197 3 -14 8 -43 11 -64 3 -22 9 -47 14 -57 5 -9 7 -18 5
-21 -3 -3 2 -27 10 -54 8 -27 15 -50 15 -51 0 -2 -35 -3 -77 -3 -61 0 -83 -5
-103 -20 -25 -19 -25 -21 -24 -152 0 -73 4 -191 8 -263 9 -164 13 -232 21
-422 6 -122 5 -155 -6 -166 -16 -17 -48 -61 -63 -86 -32 -53 -66 -121 -61
-121 3 0 -1 -12 -8 -27 -17 -33 -39 -119 -53 -200 l-5 -33 1382 0 1382 0 -8
43 c-4 23 -8 49 -10 57 -9 64 -67 202 -122 293 -21 34 -37 73 -36 87 2 64 14
293 18 360 3 41 8 136 11 210 3 74 7 155 9 180 11 118 7 198 -10 223 -21 32
-35 37 -117 38 -65 1 -72 6 -57 39 1 3 3 10 4 15 1 6 4 24 8 40 31 129 40 191
40 268 -1 111 -54 162 -116 109 -35 -30 -40 -3 -43 215 -2 223 -14 310 -60
432 -27 70 -81 174 -111 212 -38 48 -140 146 -188 181 -88 63 -282 156 -306
145 -3 -1 -13 4 -22 12 -10 7 -17 11 -17 7 0 -3 -10 -2 -23 3 -65 25 -229 32
-340 14z"/>
</g>
</svg>
