<svg viewBox="0 0 32 32" xmlns="http://www.w3.org/2000/svg" fill-rule="evenodd" clip-rule="evenodd" stroke-linecap="round"><path d="M15.289 20.399L2.6 13.917a1.102 1.102 0 01.002-1.96L15.29 5.512c.37-.188.809-.188 1.179 0l12.689 6.459a1.1 1.1 0 01.001 1.961L16.471 20.4a1.3 1.3 0 01-1.182-.001z" fill="url(#a)" fill-rule="nonzero"/><path d="M26.3 15.377c.204.995.295 2.379.128 4.298-2.286.413-6.83 2.232-10.296 4.993-5.081-3.068-5.266-3.597-10.315-5.066.141-1.558.398-2.763.678-3.695l8.794 4.492a1.3 1.3 0 001.182.001l9.829-5.023z" transform="translate(.06 .628)" fill="url(#b)"/><path d="M16.419 19.263l12.469-6.594" fill="none" stroke="url(#c)" stroke-width=".7"/><path d="M23.137 17.325l-1.407.717v-.5c0-.667-.087-1.168-.945-1.581l-5.573-2.914a.737.737 0 01-.309-.975.699.699 0 01.951-.316l5.574 2.913a3.233 3.233 0 011.709 2.656z" fill="url(#d)" fill-rule="nonzero"/><path d="M23.646 16.742l-1.407.717v-.5c0-.667-.087-1.168-.945-1.581l-5.574-2.914a.736.736 0 01-.308-.975.701.701 0 01.951-.317l5.573 2.914a3.229 3.229 0 011.71 2.656z" fill="url(#e)" fill-rule="nonzero"/><path d="M15.414 11.168a.728.728 0 01.975-.316l5.714 2.913a3.23 3.23 0 011.76 2.873v5.844a.73.73 0 01-.725.688.73.73 0 01-.725-.688v-5.844c0-.667-.375-1.278-.969-1.581l-5.714-2.913a.728.728 0 01-.316-.976z" fill="url(#f)"/><path d="M15.414 11.168a.728.728 0 01.975-.316l5.714 2.913a3.23 3.23 0 011.76 2.873v5.844a.73.73 0 01-.725.688.73.73 0 01-.725-.688v-5.844c0-.667-.375-1.278-.969-1.581l-5.714-2.913a.728.728 0 01-.316-.976z" fill="url(#g)"/><path d="M15.414 11.168a.728.728 0 01.975-.316l5.714 2.913a3.23 3.23 0 011.76 2.873v5.844a.73.73 0 01-.725.688.73.73 0 01-.725-.688v-5.844c0-.667-.375-1.278-.969-1.581l-5.714-2.913a.728.728 0 01-.316-.976z" fill="url(#h)"/><path d="M15.414 11.168a.728.728 0 01.975-.316l5.714 2.913a3.23 3.23 0 011.76 2.873v5.844a.73.73 0 01-.725.688.73.73 0 01-.725-.688v-5.844c0-.667-.375-1.278-.969-1.581l-5.714-2.913a.728.728 0 01-.316-.976z" fill="url(#i)"/><path d="M22.419 22.474c-.649.266-.949.823-.949 1.43v.041c0 .915.752 1.668 1.668 1.668.915 0 1.667-.753 1.667-1.668v-.041c0-.607-.355-1.149-.941-1.43h-1.445z" fill="url(#j)" fill-rule="nonzero"/><path d="M22.419 22.474c-.649.266-.949.823-.949 1.43v.041c0 .915.752 1.668 1.668 1.668.915 0 1.667-.753 1.667-1.668v-.041c0-.607-.355-1.149-.941-1.43h-1.445z" fill="url(#k)" fill-rule="nonzero"/><path d="M22.419 22.474c-.649.266-.949.823-.949 1.43v.041c0 .915.752 1.668 1.668 1.668.915 0 1.667-.753 1.667-1.668v-.041c0-.607-.355-1.149-.941-1.43h-1.445z" fill="url(#l)" fill-rule="nonzero"/><path d="M21.226 27.647l.638-2.649h2.527l.652 2.626c.058.189.087.385.087.582a2.001 2.001 0 01-1.992 1.992 2.001 2.001 0 01-1.992-1.992c0-.189.027-.377.08-.559z" fill="#FF9D4E" fill-rule="nonzero"/><path d="M21.226 27.647l.638-2.649h2.527l.652 2.626c.058.189.087.385.087.582a2.001 2.001 0 01-1.992 1.992 2.001 2.001 0 01-1.992-1.992c0-.189.027-.377.08-.559z" fill="url(#m)" fill-rule="nonzero"/><path d="M21.226 27.647l.638-2.649h2.527l.652 2.626c.058.189.087.385.087.582a2.001 2.001 0 01-1.992 1.992 2.001 2.001 0 01-1.992-1.992c0-.189.027-.377.08-.559z" fill="url(#n)" fill-rule="nonzero"/><path d="M21.226 27.647l.638-2.649h2.527l.652 2.626c.058.189.087.385.087.582a2.001 2.001 0 01-1.992 1.992 2.001 2.001 0 01-1.992-1.992c0-.189.027-.377.08-.559z" fill="url(#o)" fill-rule="nonzero"/><defs><linearGradient id="a" x1="0" y1="0" x2="1" y2="0" gradientUnits="userSpaceOnUse" gradientTransform="rotate(-180 14.096 6.478) scale(20.9296)"><stop offset="0" stop-color="#9686A7"/><stop offset="1" stop-color="#5C4A71"/></linearGradient><linearGradient id="b" x1="0" y1="0" x2="1" y2="0" gradientUnits="userSpaceOnUse" gradientTransform="rotate(-179.363 13.33 8.09) scale(21.84185)"><stop offset="0" stop-color="#5D4E6D"/><stop offset=".45" stop-color="#998BA7"/><stop offset=".67" stop-color="#837394"/><stop offset="1" stop-color="#706080"/></linearGradient><linearGradient id="c" x1="0" y1="0" x2="1" y2="0" gradientUnits="userSpaceOnUse" gradientTransform="matrix(12.1875 -7 7 12.1875 17.762 19.263)"><stop offset="0" stop-color="#BFB7CB"/><stop offset="1" stop-color="#E1DEE5"/></linearGradient><linearGradient id="d" x1="0" y1="0" x2="1" y2="0" gradientUnits="userSpaceOnUse" gradientTransform="rotate(39.289 -9.78 31.037) scale(8.2876)"><stop offset="0" stop-color="#6D5279"/><stop offset="1" stop-color="#3D2C43" stop-opacity="0"/></linearGradient><linearGradient id="e" x1="0" y1="0" x2="1" y2="0" gradientUnits="userSpaceOnUse" gradientTransform="rotate(41.489 -8.228 28.833) scale(6.7335)"><stop offset="0" stop-color="#2C1A20"/><stop offset="1" stop-color="#4C2350"/></linearGradient><linearGradient id="f" x1="0" y1="0" x2="1" y2="0" gradientUnits="userSpaceOnUse" gradientTransform="rotate(62.85 -.59 19.758) scale(13.42268)"><stop offset="0" stop-color="#D3A543"/><stop offset="1" stop-color="#FFBA62"/></linearGradient><linearGradient id="h" x1="0" y1="0" x2="1" y2="0" gradientUnits="userSpaceOnUse" gradientTransform="matrix(-1.1971 .0898 -.0898 -1.1971 24.273 18.215)"><stop offset="0" stop-color="#FFD574"/><stop offset="1" stop-color="#FFD574" stop-opacity="0"/></linearGradient><linearGradient id="i" x1="0" y1="0" x2="1" y2="0" gradientUnits="userSpaceOnUse" gradientTransform="rotate(117.714 7.02 13.334) scale(.9973)"><stop offset="0" stop-color="#FFD574"/><stop offset="1" stop-color="#FFD574" stop-opacity="0"/></linearGradient><linearGradient id="m" x1="0" y1="0" x2="1" y2="0" gradientUnits="userSpaceOnUse" gradientTransform="rotate(9.256 -159.723 145.59) scale(1.5361)"><stop offset="0" stop-color="#D17047"/><stop offset="1" stop-color="#D17047" stop-opacity="0"/></linearGradient><radialGradient id="g" cx="0" cy="0" r="1" gradientUnits="userSpaceOnUse" gradientTransform="matrix(3.47163 1.76574 -1.10075 2.16418 15.684 10.463)"><stop offset="0" stop-color="#D0A745"/><stop offset="1" stop-color="#D0A745" stop-opacity="0"/></radialGradient><radialGradient id="j" cx="0" cy="0" r="1" gradientUnits="userSpaceOnUse" gradientTransform="matrix(-1.5263 1.40661 -1.51482 -1.64372 24.154 23.392)"><stop offset="0" stop-color="#FFCC6C"/><stop offset="1" stop-color="#F49041"/></radialGradient><radialGradient id="k" cx="0" cy="0" r="1" gradientUnits="userSpaceOnUse" gradientTransform="matrix(-3.44037 -1.42864 1.14909 -2.76717 24.44 24.29)"><stop offset="0" stop-color="#B25D41" stop-opacity="0"/><stop offset=".6" stop-color="#B25D41" stop-opacity="0"/><stop offset=".91" stop-color="#B25D41"/><stop offset="1" stop-color="#B25D41"/></radialGradient><radialGradient id="l" cx="0" cy="0" r="1" gradientUnits="userSpaceOnUse" gradientTransform="matrix(2.24498 -.34987 .17007 1.09131 21.845 25.076)"><stop offset="0" stop-color="#FD805E"/><stop offset="1" stop-color="#FD805E" stop-opacity="0"/></radialGradient><radialGradient id="n" cx="0" cy="0" r="1" gradientUnits="userSpaceOnUse" gradientTransform="matrix(0 4.37335 -1.34116 0 24.09 24.727)"><stop offset="0" stop-color="#FFBC6E"/><stop offset=".57" stop-color="#FFBC6E"/><stop offset="1" stop-color="#FFBC6E" stop-opacity="0"/></radialGradient><radialGradient id="o" cx="0" cy="0" r="1" gradientUnits="userSpaceOnUse" gradientTransform="matrix(.58311 -2.60156 3.00404 .67332 22.4 30.2)"><stop offset="0" stop-color="#FF697E"/><stop offset=".17" stop-color="#FF697E"/><stop offset="1" stop-color="#FF697E" stop-opacity="0"/></radialGradient></defs></svg>