<?xml version="1.0" encoding="UTF-8" standalone="no"?><!DOCTYPE svg PUBLIC "-//W3C//DTD SVG 1.1//EN" "http://www.w3.org/Graphics/SVG/1.1/DTD/svg11.dtd"><svg width="100%" height="100%" viewBox="0 0 32 32" version="1.1" xmlns="http://www.w3.org/2000/svg" xmlns:xlink="http://www.w3.org/1999/xlink" xml:space="preserve" xmlns:serif="http://www.serif.com/" style="fill-rule:evenodd;clip-rule:evenodd;"><g><g><path d="M29.924,8.887c0,-0.877 -0.712,-1.588 -1.588,-1.588l-24.672,-0c-0.876,-0 -1.588,0.711 -1.588,1.588l-0,14.669c-0,0.877 0.712,1.589 1.588,1.589l24.672,-0c0.876,-0 1.588,-0.712 1.588,-1.589l0,-14.669Z" style="fill:#cac9e5;"/><path d="M29.924,8.887c0,-0.877 -0.712,-1.588 -1.588,-1.588l-24.672,-0c-0.876,-0 -1.588,0.711 -1.588,1.588l-0,14.669c-0,0.877 0.712,1.589 1.588,1.589l24.672,-0c0.876,-0 1.588,-0.712 1.588,-1.589l0,-14.669Z" style="fill:url(#_Linear1);"/></g><g><path d="M29.924,10.033l-27.848,0l-0,-1.146c-0,-0.877 0.712,-1.588 1.588,-1.588l24.672,-0c0.876,-0 1.588,0.711 1.588,1.588l0,1.146Z" style="fill:url(#_Linear2);"/><path d="M29.924,10.033l-27.848,0l-0,-1.146c-0,-0.877 0.712,-1.588 1.588,-1.588l24.672,-0c0.876,-0 1.588,0.711 1.588,1.588l0,1.146Z" style="fill:url(#_Linear3);"/><path d="M29.924,10.033l-27.848,0l-0,-1.146c-0,-0.877 0.712,-1.588 1.588,-1.588l24.672,-0c0.876,-0 1.588,0.711 1.588,1.588l0,1.146Z" style="fill:url(#_Radial4);"/><path d="M29.06,9.641c-0.016,-1.299 0.12,-1.598 -4.487,-1.62l-9.848,-0" style="fill:none;fill-rule:nonzero;stroke:url(#_Radial5);stroke-width:0.74px;"/></g><g><path d="M8.381,8.751c0,0.351 -0.285,0.636 -0.637,0.636c-0.351,0 -0.637,-0.285 -0.637,-0.636c0,-0.352 0.286,-0.637 0.637,-0.637c0.352,-0 0.637,0.285 0.637,0.637Z" style="fill:url(#_Radial6);fill-rule:nonzero;"/><path d="M8.381,8.751c0,0.351 -0.285,0.636 -0.637,0.636c-0.351,0 -0.637,-0.285 -0.637,-0.636c0,-0.352 0.286,-0.637 0.637,-0.637c0.352,-0 0.637,0.285 0.637,0.637Z" style="fill:url(#_Linear7);fill-rule:nonzero;"/><path d="M8.381,8.751c0,0.351 -0.285,0.636 -0.637,0.636c-0.351,0 -0.637,-0.285 -0.637,-0.636c0,-0.352 0.286,-0.637 0.637,-0.637c0.352,-0 0.637,0.285 0.637,0.637Z" style="fill:url(#_Radial8);fill-rule:nonzero;"/><path d="M8.381,8.751c0,0.351 -0.285,0.636 -0.637,0.636c-0.351,0 -0.637,-0.285 -0.637,-0.636c0,-0.352 0.286,-0.637 0.637,-0.637c0.352,-0 0.637,0.285 0.637,0.637Z" style="fill:url(#_Radial9);fill-rule:nonzero;"/><path d="M8.381,8.751c0,0.351 -0.285,0.636 -0.637,0.636c-0.351,0 -0.637,-0.285 -0.637,-0.636c0,-0.352 0.286,-0.637 0.637,-0.637c0.352,-0 0.637,0.285 0.637,0.637Z" style="fill:url(#_Radial10);fill-rule:nonzero;"/></g><g><path d="M6.59,8.756c0,0.352 -0.285,0.637 -0.636,0.637c-0.352,-0 -0.637,-0.285 -0.637,-0.637c-0,-0.352 0.285,-0.637 0.637,-0.637c0.351,0 0.636,0.285 0.636,0.637Z" style="fill:url(#_Radial11);fill-rule:nonzero;"/><path d="M6.59,8.756c0,0.352 -0.285,0.637 -0.636,0.637c-0.352,-0 -0.637,-0.285 -0.637,-0.637c-0,-0.352 0.285,-0.637 0.637,-0.637c0.351,0 0.636,0.285 0.636,0.637Z" style="fill:url(#_Linear12);fill-rule:nonzero;"/><path d="M6.59,8.756c0,0.352 -0.285,0.637 -0.636,0.637c-0.352,-0 -0.637,-0.285 -0.637,-0.637c-0,-0.352 0.285,-0.637 0.637,-0.637c0.351,0 0.636,0.285 0.636,0.637Z" style="fill:url(#_Radial13);fill-rule:nonzero;"/><path d="M6.59,8.756c0,0.352 -0.285,0.637 -0.636,0.637c-0.352,-0 -0.637,-0.285 -0.637,-0.637c-0,-0.352 0.285,-0.637 0.637,-0.637c0.351,0 0.636,0.285 0.636,0.637Z" style="fill:url(#_Radial14);fill-rule:nonzero;"/><path d="M6.59,8.756c0,0.352 -0.285,0.637 -0.636,0.637c-0.352,-0 -0.637,-0.285 -0.637,-0.637c-0,-0.352 0.285,-0.637 0.637,-0.637c0.351,0 0.636,0.285 0.636,0.637Z" style="fill:url(#_Radial15);fill-rule:nonzero;"/></g><g><path d="M4.8,8.756c-0,0.352 -0.285,0.637 -0.637,0.637c-0.352,-0 -0.637,-0.285 -0.637,-0.637c0,-0.352 0.285,-0.637 0.637,-0.637c0.352,0 0.637,0.285 0.637,0.637Z" style="fill:url(#_Radial16);fill-rule:nonzero;"/><path d="M4.8,8.756c-0,0.352 -0.285,0.637 -0.637,0.637c-0.352,-0 -0.637,-0.285 -0.637,-0.637c0,-0.352 0.285,-0.637 0.637,-0.637c0.352,0 0.637,0.285 0.637,0.637Z" style="fill:url(#_Linear17);fill-rule:nonzero;"/><path d="M4.8,8.756c-0,0.352 -0.285,0.637 -0.637,0.637c-0.352,-0 -0.637,-0.285 -0.637,-0.637c0,-0.352 0.285,-0.637 0.637,-0.637c0.352,0 0.637,0.285 0.637,0.637Z" style="fill:url(#_Radial18);fill-rule:nonzero;"/><path d="M4.8,8.756c-0,0.352 -0.285,0.637 -0.637,0.637c-0.352,-0 -0.637,-0.285 -0.637,-0.637c0,-0.352 0.285,-0.637 0.637,-0.637c0.352,0 0.637,0.285 0.637,0.637Z" style="fill:url(#_Radial19);fill-rule:nonzero;"/><path d="M4.8,8.756c-0,0.352 -0.285,0.637 -0.637,0.637c-0.352,-0 -0.637,-0.285 -0.637,-0.637c0,-0.352 0.285,-0.637 0.637,-0.637c0.352,0 0.637,0.285 0.637,0.637Z" style="fill:url(#_Radial20);fill-rule:nonzero;"/></g></g><g><path d="M16,24.11c5.26,0 7.889,-3.532 7.889,-7.888c-0,-4.357 -2.629,-7.889 -7.889,-7.889c-5.26,0 -7.889,3.532 -7.889,7.889c0,4.356 2.629,7.888 7.889,7.888Z" style="fill:url(#_Radial21);fill-rule:nonzero;"/><path d="M16,24.11c5.26,0 7.889,-3.532 7.889,-7.888c-0,-4.357 -2.629,-7.889 -7.889,-7.889c-5.26,0 -7.889,3.532 -7.889,7.889c0,4.356 2.629,7.888 7.889,7.888Z" style="fill:url(#_Radial22);fill-rule:nonzero;"/><path d="M16,24.11c5.26,0 7.889,-3.532 7.889,-7.888c-0,-4.357 -2.629,-7.889 -7.889,-7.889c-5.26,0 -7.889,3.532 -7.889,7.889c0,4.356 2.629,7.888 7.889,7.888Z" style="fill:url(#_Radial23);fill-rule:nonzero;"/><path d="M16,24.11c5.26,0 7.889,-3.532 7.889,-7.888c-0,-4.357 -2.629,-7.889 -7.889,-7.889c-5.26,0 -7.889,3.532 -7.889,7.889c0,4.356 2.629,7.888 7.889,7.888Z" style="fill:url(#_Radial24);fill-rule:nonzero;"/><path d="M16,24.11c5.26,0 7.889,-3.532 7.889,-7.888c-0,-4.357 -2.629,-7.889 -7.889,-7.889c-5.26,0 -7.889,3.532 -7.889,7.889c0,4.356 2.629,7.888 7.889,7.888Z" style="fill:url(#_Radial25);fill-rule:nonzero;"/><path d="M16,24.11c5.26,0 7.889,-3.532 7.889,-7.888c-0,-4.357 -2.629,-7.889 -7.889,-7.889c-5.26,0 -7.889,3.532 -7.889,7.889c0,4.356 2.629,7.888 7.889,7.888Z" style="fill:url(#_Radial26);fill-rule:nonzero;"/><path d="M16,24.11c5.26,0 7.889,-3.532 7.889,-7.888c-0,-4.357 -2.629,-7.889 -7.889,-7.889c-5.26,0 -7.889,3.532 -7.889,7.889c0,4.356 2.629,7.888 7.889,7.888Z" style="fill:url(#_Radial27);fill-rule:nonzero;"/><path d="M16,24.11c5.26,0 7.889,-3.532 7.889,-7.888c-0,-4.357 -2.629,-7.889 -7.889,-7.889c-5.26,0 -7.889,3.532 -7.889,7.889c0,4.356 2.629,7.888 7.889,7.888Z" style="fill:url(#_Radial28);fill-rule:nonzero;"/><g><path d="M21.354,17.349l-3.663,-3.099l3.381,-0.845l0.282,3.944Z" style="fill:url(#_Linear29);fill-rule:nonzero;"/></g><g><path d="M14.592,15.377l-3.663,-0.282l2.536,-2.254l1.127,2.536Z" style="fill:url(#_Linear30);fill-rule:nonzero;"/></g><g><path d="M16.282,10.587l1.127,0c0.902,0.902 0.752,2.63 0.564,3.381l-1.691,0.564l0.846,-1.973l-0.846,-1.972Z" style="fill:url(#_Radial31);fill-rule:nonzero;"/></g><g><path d="M8.675,11.714l1.127,0c0.902,0.902 0.751,2.63 0.563,3.381l-1.69,1.127l0.845,-2.536l-0.845,-1.972Z" style="fill:url(#_Radial32);fill-rule:nonzero;"/></g><path d="M11.844,14.455l-1.719,1.337c-0.058,0.046 -0.142,-0 -0.136,-0.074l0.169,-1.851c0.045,-0.5 -0.209,-0.98 -0.647,-1.224l-1.118,-0.62c-0.207,-0.116 -0.188,-0.42 0.033,-0.508l1.425,-0.57c0.398,-0.159 0.688,-0.509 0.772,-0.929l0.266,-1.329c0.045,-0.224 0.334,-0.29 0.472,-0.107l0.768,1.025c0.264,0.352 0.692,0.542 1.13,0.502l1.968,-0.179c0.073,-0.007 0.119,0.076 0.075,0.135l-1.006,1.342c-0.266,0.354 -0.328,0.82 -0.163,1.231l0.795,1.988l-2.057,-0.411c-0.361,-0.072 -0.736,0.016 -1.027,0.242Z" style="fill:url(#_Linear33);fill-rule:nonzero;stroke:url(#_Linear34);stroke-width:0.28px;"/><path d="M20.157,14.455l1.719,1.337c0.058,0.046 0.143,-0 0.136,-0.074l-0.168,-1.851c-0.046,-0.5 0.208,-0.98 0.647,-1.224l1.117,-0.62c0.207,-0.116 0.188,-0.42 -0.032,-0.508l-1.426,-0.57c-0.398,-0.159 -0.688,-0.509 -0.772,-0.929l-0.266,-1.329c-0.045,-0.224 -0.334,-0.29 -0.471,-0.107l-0.769,1.025c-0.264,0.352 -0.691,0.542 -1.129,0.502l-1.968,-0.179c-0.073,-0.007 -0.12,0.076 -0.076,0.135l1.007,1.342c0.265,0.354 0.327,0.82 0.163,1.231l-0.796,1.988l2.057,-0.411c0.361,-0.072 0.736,0.016 1.027,0.242Z" style="fill:url(#_Linear35);fill-rule:nonzero;stroke:url(#_Linear36);stroke-width:0.28px;"/><path d="M16.001,21.857c-5.072,0 -5.072,-5.071 -5.072,-5.071l10.143,-0c0,-0 0,5.071 -5.071,5.071Z" style="fill:url(#_Radial37);fill-rule:nonzero;"/><path d="M11.492,17.068l0,-0.282l9.017,-0l-0,0.282c-0,0.311 -0.253,0.563 -0.564,0.563l-7.889,0c-0.311,0 -0.564,-0.252 -0.564,-0.563Z" style="fill:url(#_Linear38);fill-rule:nonzero;"/></g><defs><linearGradient id="_Linear1" x1="0" y1="0" x2="1" y2="0" gradientUnits="userSpaceOnUse" gradientTransform="matrix(0.00530443,-2.6421,4.12293,0.00827742,19.3801,25.1448)"><stop offset="0" style="stop-color:#ce9af8;stop-opacity:1"/><stop offset="0.5" style="stop-color:#d7affa;stop-opacity:0.45"/><stop offset="1" style="stop-color:#dfc0fc;stop-opacity:0"/></linearGradient><linearGradient id="_Linear2" x1="0" y1="0" x2="1" y2="0" gradientUnits="userSpaceOnUse" gradientTransform="matrix(26.0895,0,0,13.6417,1.74886,10.1148)"><stop offset="0" style="stop-color:#377af3;stop-opacity:1"/><stop offset="0.79" style="stop-color:#2ea6ff;stop-opacity:1"/><stop offset="1" style="stop-color:#2ea6ff;stop-opacity:1"/></linearGradient><linearGradient id="_Linear3" x1="0" y1="0" x2="1" y2="0" gradientUnits="userSpaceOnUse" gradientTransform="matrix(1.201e-16,1.02557,-1.96138,6.2798e-17,16,7.2986)"><stop offset="0" style="stop-color:#2d9eee;stop-opacity:1"/><stop offset="1" style="stop-color:#2d9eee;stop-opacity:0"/></linearGradient><radialGradient id="_Radial4" cx="0" cy="0" r="1" gradientUnits="userSpaceOnUse" gradientTransform="matrix(-19.6365,-1.8232,1.98124,-5.83409,21.7123,10.9451)"><stop offset="0" style="stop-color:#3955e1;stop-opacity:0"/><stop offset="0.76" style="stop-color:#3955e1;stop-opacity:0"/><stop offset="0.99" style="stop-color:#3d41a8;stop-opacity:1"/><stop offset="1" style="stop-color:#3d41a8;stop-opacity:1"/></radialGradient><radialGradient id="_Radial5" cx="0" cy="0" r="1" gradientUnits="userSpaceOnUse" gradientTransform="matrix(-8.69663,2.03562,-6.4375,-5.68592,31.6027,8.02053)"><stop offset="0" style="stop-color:#55d9ff;stop-opacity:1"/><stop offset="1" style="stop-color:#55d9ff;stop-opacity:0"/></radialGradient><radialGradient id="_Radial6" cx="0" cy="0" r="1" gradientUnits="userSpaceOnUse" gradientTransform="matrix(-0.815962,0.966656,-0.966656,-0.815962,8.11636,8.42084)"><stop offset="0" style="stop-color:#5ae68d;stop-opacity:1"/><stop offset="0.19" style="stop-color:#5ae68d;stop-opacity:1"/><stop offset="0.84" style="stop-color:#43a684;stop-opacity:1"/><stop offset="1" style="stop-color:#43a684;stop-opacity:1"/></radialGradient><linearGradient id="_Linear7" x1="0" y1="0" x2="1" y2="0" gradientUnits="userSpaceOnUse" gradientTransform="matrix(1.81053e-17,0.295681,-0.295681,1.81053e-17,7.74429,8.11378)"><stop offset="0" style="stop-color:#5ed284;stop-opacity:1"/><stop offset="1" style="stop-color:#5ed284;stop-opacity:0"/></linearGradient><radialGradient id="_Radial8" cx="0" cy="0" r="1" gradientUnits="userSpaceOnUse" gradientTransform="matrix(-0.483321,0.460583,-0.496336,-0.52084,8.1391,8.51182)"><stop offset="0" style="stop-color:#6ffca5;stop-opacity:1"/><stop offset="0.18" style="stop-color:#6ffca5;stop-opacity:1"/><stop offset="1" style="stop-color:#65e6a7;stop-opacity:0"/></radialGradient><radialGradient id="_Radial9" cx="0" cy="0" r="1" gradientUnits="userSpaceOnUse" gradientTransform="matrix(-0.875671,-6.70514e-16,6.96637e-16,-0.909788,7.94862,8.75064)"><stop offset="0" style="stop-color:#64cb85;stop-opacity:0"/><stop offset="0.62" style="stop-color:#64cb85;stop-opacity:0"/><stop offset="0.95" style="stop-color:#a4e4b7;stop-opacity:1"/><stop offset="1" style="stop-color:#a4e4b7;stop-opacity:1"/></radialGradient><radialGradient id="_Radial10" cx="0" cy="0" r="1" gradientUnits="userSpaceOnUse" gradientTransform="matrix(-3.86416e-16,1.0093,-1.04569,-4.00351e-16,7.74429,8.43221)"><stop offset="0" style="stop-color:#4a9795;stop-opacity:0"/><stop offset="0.73" style="stop-color:#4a9795;stop-opacity:0"/><stop offset="1" style="stop-color:#718cad;stop-opacity:1"/></radialGradient><radialGradient id="_Radial11" cx="0" cy="0" r="1" gradientUnits="userSpaceOnUse" gradientTransform="matrix(-0.815962,0.966656,-0.966656,-0.815962,6.32566,8.42609)"><stop offset="0" style="stop-color:#e6c35a;stop-opacity:1"/><stop offset="0.19" style="stop-color:#e6c35a;stop-opacity:1"/><stop offset="0.84" style="stop-color:#a68d43;stop-opacity:1"/><stop offset="1" style="stop-color:#a68d43;stop-opacity:1"/></radialGradient><linearGradient id="_Linear12" x1="0" y1="0" x2="1" y2="0" gradientUnits="userSpaceOnUse" gradientTransform="matrix(1.81053e-17,0.295681,-0.295681,1.81053e-17,5.9536,8.11903)"><stop offset="0" style="stop-color:#d2b55e;stop-opacity:1"/><stop offset="1" style="stop-color:#d2b55e;stop-opacity:1"/></linearGradient><radialGradient id="_Radial13" cx="0" cy="0" r="1" gradientUnits="userSpaceOnUse" gradientTransform="matrix(-0.483321,0.460583,-0.496336,-0.52084,6.34841,8.51707)"><stop offset="0" style="stop-color:#fcd96f;stop-opacity:1"/><stop offset="0.18" style="stop-color:#fcd96f;stop-opacity:1"/><stop offset="1" style="stop-color:#e6c665;stop-opacity:1"/></radialGradient><radialGradient id="_Radial14" cx="0" cy="0" r="1" gradientUnits="userSpaceOnUse" gradientTransform="matrix(-0.875671,-6.70514e-16,6.96637e-16,-0.909788,6.15792,8.75589)"><stop offset="0" style="stop-color:#cbb164;stop-opacity:0"/><stop offset="0.62" style="stop-color:#cbb164;stop-opacity:0"/><stop offset="0.95" style="stop-color:#e4d4a4;stop-opacity:0"/><stop offset="1" style="stop-color:#e4d4a4;stop-opacity:0"/></radialGradient><radialGradient id="_Radial15" cx="0" cy="0" r="1" gradientUnits="userSpaceOnUse" gradientTransform="matrix(-3.86416e-16,1.0093,-1.04569,-4.00351e-16,5.9536,8.43746)"><stop offset="0" style="stop-color:#4a9795;stop-opacity:0"/><stop offset="0.73" style="stop-color:#4a9795;stop-opacity:0"/><stop offset="1" style="stop-color:#718cad;stop-opacity:1"/></radialGradient><radialGradient id="_Radial16" cx="0" cy="0" r="1" gradientUnits="userSpaceOnUse" gradientTransform="matrix(-0.815962,0.966656,-0.966656,-0.815962,4.53497,8.42609)"><stop offset="0" style="stop-color:#e65a5a;stop-opacity:1"/><stop offset="0.19" style="stop-color:#e65a5a;stop-opacity:1"/><stop offset="0.84" style="stop-color:#a64343;stop-opacity:1"/><stop offset="1" style="stop-color:#a64343;stop-opacity:1"/></radialGradient><linearGradient id="_Linear17" x1="0" y1="0" x2="1" y2="0" gradientUnits="userSpaceOnUse" gradientTransform="matrix(1.81053e-17,0.295681,-0.295681,1.81053e-17,4.1629,8.11903)"><stop offset="0" style="stop-color:#d25e5e;stop-opacity:1"/><stop offset="1" style="stop-color:#d25e5e;stop-opacity:1"/></linearGradient><radialGradient id="_Radial18" cx="0" cy="0" r="1" gradientUnits="userSpaceOnUse" gradientTransform="matrix(-0.483321,0.460583,-0.496336,-0.52084,4.55772,8.51707)"><stop offset="0" style="stop-color:#fc6f6f;stop-opacity:1"/><stop offset="0.18" style="stop-color:#fc6f6f;stop-opacity:1"/><stop offset="1" style="stop-color:#e66565;stop-opacity:1"/></radialGradient><radialGradient id="_Radial19" cx="0" cy="0" r="1" gradientUnits="userSpaceOnUse" gradientTransform="matrix(-0.875671,-6.70514e-16,6.96637e-16,-0.909788,4.36723,8.75589)"><stop offset="0" style="stop-color:#cb6464;stop-opacity:0"/><stop offset="0.62" style="stop-color:#cb6464;stop-opacity:0"/><stop offset="0.95" style="stop-color:#e4a4a4;stop-opacity:1"/><stop offset="1" style="stop-color:#e4a4a4;stop-opacity:1"/></radialGradient><radialGradient id="_Radial20" cx="0" cy="0" r="1" gradientUnits="userSpaceOnUse" gradientTransform="matrix(-3.86416e-16,1.0093,-1.04569,-4.00351e-16,4.1629,8.43746)"><stop offset="0" style="stop-color:#4a9795;stop-opacity:0"/><stop offset="0.73" style="stop-color:#4a9795;stop-opacity:0"/><stop offset="1" style="stop-color:#718cad;stop-opacity:1"/></radialGradient><radialGradient id="_Radial21" cx="0" cy="0" r="1" gradientUnits="userSpaceOnUse" gradientTransform="matrix(-14.3697,15.4967,-15.4967,-14.3697,21.354,12.2777)"><stop offset="0" style="stop-color:#fff478;stop-opacity:1"/><stop offset="0.47" style="stop-color:#ffb02e;stop-opacity:1"/><stop offset="1" style="stop-color:#f70a8d;stop-opacity:1"/></radialGradient><radialGradient id="_Radial22" cx="0" cy="0" r="1" gradientUnits="userSpaceOnUse" gradientTransform="matrix(-14.6515,16.342,-16.342,-14.6515,21.354,12.2777)"><stop offset="0" style="stop-color:#fff478;stop-opacity:1"/><stop offset="0.47" style="stop-color:#ffb02e;stop-opacity:1"/><stop offset="1" style="stop-color:#f70a8d;stop-opacity:1"/></radialGradient><radialGradient id="_Radial23" cx="0" cy="0" r="1" gradientUnits="userSpaceOnUse" gradientTransform="matrix(-1.97232,9.86155,-12.6308,-2.52617,16.0006,14.25)"><stop offset="0" style="stop-color:#f59639;stop-opacity:0"/><stop offset="0.79" style="stop-color:#f59639;stop-opacity:0"/><stop offset="0.97" style="stop-color:#ff7dce;stop-opacity:1"/><stop offset="1" style="stop-color:#ff7dce;stop-opacity:1"/></radialGradient><radialGradient id="_Radial24" cx="0" cy="0" r="1" gradientUnits="userSpaceOnUse" gradientTransform="matrix(-16.342,16.342,-16.342,-16.342,17.1277,15.0953)"><stop offset="0" style="stop-color:#000;stop-opacity:0"/><stop offset="0.31" style="stop-color:#000;stop-opacity:0"/><stop offset="1" style="stop-color:#000;stop-opacity:0.6"/></radialGradient><radialGradient id="_Radial25" cx="0" cy="0" r="1" gradientUnits="userSpaceOnUse" gradientTransform="matrix(3.38109,15.4967,-15.4967,3.38109,16.0006,16.7858)"><stop offset="0" style="stop-color:#7d6133;stop-opacity:0"/><stop offset="0.51" style="stop-color:#7d6133;stop-opacity:0"/><stop offset="1" style="stop-color:#715b32;stop-opacity:1"/></radialGradient><radialGradient id="_Radial26" cx="0" cy="0" r="1" gradientUnits="userSpaceOnUse" gradientTransform="matrix(4.22637,6.19867,-4.49312,3.06349,16.2824,16.5041)"><stop offset="0" style="stop-color:#ffb849;stop-opacity:1"/><stop offset="1" style="stop-color:#ffb847;stop-opacity:0"/></radialGradient><radialGradient id="_Radial27" cx="0" cy="0" r="1" gradientUnits="userSpaceOnUse" gradientTransform="matrix(6.48043,1.12703,-1.12703,6.48043,18.5364,17.3493)"><stop offset="0" style="stop-color:#ffa64b;stop-opacity:1"/><stop offset="0.9" style="stop-color:#ffae46;stop-opacity:0"/><stop offset="1" style="stop-color:#ffae46;stop-opacity:0"/></radialGradient><radialGradient id="_Radial28" cx="0" cy="0" r="1" gradientUnits="userSpaceOnUse" gradientTransform="matrix(23.9495,23.1041,-23.1041,23.9495,16.8459,15.6588)"><stop offset="0" style="stop-color:#000;stop-opacity:0"/><stop offset="0.19" style="stop-color:#000;stop-opacity:0"/><stop offset="1" style="stop-color:#000;stop-opacity:0.4"/></radialGradient><linearGradient id="_Linear29" x1="0" y1="0" x2="1" y2="0" gradientUnits="userSpaceOnUse" gradientTransform="matrix(-0.950032,1.78477,-1.78477,-0.950032,20.227,13.6865)"><stop offset="0" style="stop-color:#ec812a;stop-opacity:1"/><stop offset="0.37" style="stop-color:#ec812a;stop-opacity:1"/><stop offset="1" style="stop-color:#fba84c;stop-opacity:0"/></linearGradient><linearGradient id="_Linear30" x1="0" y1="0" x2="1" y2="0" gradientUnits="userSpaceOnUse" gradientTransform="matrix(-0.140654,1.42277,-1.42277,-0.140654,12.9013,13.6865)"><stop offset="0" style="stop-color:#c85f27;stop-opacity:1"/><stop offset="1" style="stop-color:#c85f27;stop-opacity:0"/></linearGradient><radialGradient id="_Radial31" cx="0" cy="0" r="1" gradientUnits="userSpaceOnUse" gradientTransform="matrix(-2.53583,1.69055,-1.69055,-2.53583,18.2547,12.8412)"><stop offset="0" style="stop-color:#ec812a;stop-opacity:1"/><stop offset="0.12" style="stop-color:#ec812a;stop-opacity:1"/><stop offset="1" style="stop-color:#fba84c;stop-opacity:0"/></radialGradient><radialGradient id="_Radial32" cx="0" cy="0" r="1" gradientUnits="userSpaceOnUse" gradientTransform="matrix(-2.81759,1.12701,-1.12701,-2.81759,10.929,14.5318)"><stop offset="0" style="stop-color:#cc7521;stop-opacity:1"/><stop offset="1" style="stop-color:#e6872b;stop-opacity:0"/></radialGradient><linearGradient id="_Linear33" x1="0" y1="0" x2="1" y2="0" gradientUnits="userSpaceOnUse" gradientTransform="matrix(1.40879,7.88923,-7.88923,1.40879,11.2107,7.76955)"><stop offset="0" style="stop-color:#7912b2;stop-opacity:1"/><stop offset="1" style="stop-color:#cf1da1;stop-opacity:1"/></linearGradient><linearGradient id="_Linear34" x1="0" y1="0" x2="1" y2="0" gradientUnits="userSpaceOnUse" gradientTransform="matrix(-3.66286,1.40879,-1.40879,-3.66286,15.4371,10.5871)"><stop offset="0" style="stop-color:#a82d9c;stop-opacity:1"/><stop offset="1" style="stop-color:#bf33b1;stop-opacity:0"/></linearGradient><linearGradient id="_Linear35" x1="0" y1="0" x2="1" y2="0" gradientUnits="userSpaceOnUse" gradientTransform="matrix(0.281758,6.7622,-6.7622,0.281758,19.3817,8.61483)"><stop offset="0" style="stop-color:#7912b2;stop-opacity:1"/><stop offset="1" style="stop-color:#cf1da1;stop-opacity:1"/></linearGradient><linearGradient id="_Linear36" x1="0" y1="0" x2="1" y2="0" gradientUnits="userSpaceOnUse" gradientTransform="matrix(-3.3811,0.281758,-0.281758,-3.3811,23.6081,10.5871)"><stop offset="0" style="stop-color:#b51aa6;stop-opacity:1"/><stop offset="1" style="stop-color:#bf33b1;stop-opacity:0"/></linearGradient><radialGradient id="_Radial37" cx="0" cy="0" r="1" gradientUnits="userSpaceOnUse" gradientTransform="matrix(-2.37321e-15,-6.19868,12.3974,-4.74642e-15,16.0006,22.9845)"><stop offset="0" style="stop-color:#f70a8d;stop-opacity:1"/><stop offset="1" style="stop-color:#89029c;stop-opacity:1"/></radialGradient><linearGradient id="_Linear38" x1="0" y1="0" x2="1" y2="0" gradientUnits="userSpaceOnUse" gradientTransform="matrix(5.17581e-17,0.845275,-0.845275,5.17581e-17,16.0006,16.7858)"><stop offset="0" style="stop-color:#d5a8fe;stop-opacity:1"/><stop offset="1" style="stop-color:#fff;stop-opacity:1"/></linearGradient></defs></svg>