<?xml version="1.0" encoding="UTF-8" standalone="no"?><!DOCTYPE svg PUBLIC "-//W3C//DTD SVG 1.1//EN" "http://www.w3.org/Graphics/SVG/1.1/DTD/svg11.dtd"><svg width="100%" height="100%" viewBox="0 0 32 32" version="1.1" xmlns="http://www.w3.org/2000/svg" xmlns:xlink="http://www.w3.org/1999/xlink" xml:space="preserve" xmlns:serif="http://www.serif.com/" style="fill-rule:evenodd;clip-rule:evenodd;"><g><g><g><path d="M29.924,5.443c0,-1.17 -0.949,-2.119 -2.119,-2.119l-23.61,-0c-1.17,-0 -2.119,0.949 -2.119,2.119l-0,19.567c-0,1.17 0.949,2.12 2.119,2.12l23.61,-0c1.17,-0 2.119,-0.95 2.119,-2.12l0,-19.567Z" style="fill:#cac9e5;"/><path d="M29.924,5.443c0,-1.17 -0.949,-2.119 -2.119,-2.119l-23.61,-0c-1.17,-0 -2.119,0.949 -2.119,2.119l-0,19.567c-0,1.17 0.949,2.12 2.119,2.12l23.61,-0c1.17,-0 2.119,-0.95 2.119,-2.12l0,-19.567Z" style="fill:url(#_Linear1);"/></g><g><path d="M29.924,6.058l-27.848,0l-0,-1.146c-0,-0.877 0.712,-1.588 1.588,-1.588l24.672,-0c0.876,-0 1.588,0.711 1.588,1.588l0,1.146Z" style="fill:url(#_Linear2);"/><path d="M29.924,6.058l-27.848,0l-0,-1.146c-0,-0.877 0.712,-1.588 1.588,-1.588l24.672,-0c0.876,-0 1.588,0.711 1.588,1.588l0,1.146Z" style="fill:url(#_Linear3);"/><path d="M29.924,6.058l-27.848,0l-0,-1.146c-0,-0.877 0.712,-1.588 1.588,-1.588l24.672,-0c0.876,-0 1.588,0.711 1.588,1.588l0,1.146Z" style="fill:url(#_Radial4);"/><path d="M29.06,5.666c-0.016,-1.299 0.12,-1.598 -4.487,-1.62l-9.848,-0" style="fill:none;fill-rule:nonzero;stroke:url(#_Radial5);stroke-width:0.74px;"/></g><g><path d="M8.381,4.776c0,0.351 -0.285,0.636 -0.637,0.636c-0.351,0 -0.637,-0.285 -0.637,-0.636c0,-0.352 0.286,-0.637 0.637,-0.637c0.352,-0 0.637,0.285 0.637,0.637Z" style="fill:url(#_Radial6);fill-rule:nonzero;"/><path d="M8.381,4.776c0,0.351 -0.285,0.636 -0.637,0.636c-0.351,0 -0.637,-0.285 -0.637,-0.636c0,-0.352 0.286,-0.637 0.637,-0.637c0.352,-0 0.637,0.285 0.637,0.637Z" style="fill:url(#_Linear7);fill-rule:nonzero;"/><path d="M8.381,4.776c0,0.351 -0.285,0.636 -0.637,0.636c-0.351,0 -0.637,-0.285 -0.637,-0.636c0,-0.352 0.286,-0.637 0.637,-0.637c0.352,-0 0.637,0.285 0.637,0.637Z" style="fill:url(#_Radial8);fill-rule:nonzero;"/><path d="M8.381,4.776c0,0.351 -0.285,0.636 -0.637,0.636c-0.351,0 -0.637,-0.285 -0.637,-0.636c0,-0.352 0.286,-0.637 0.637,-0.637c0.352,-0 0.637,0.285 0.637,0.637Z" style="fill:url(#_Radial9);fill-rule:nonzero;"/><path d="M8.381,4.776c0,0.351 -0.285,0.636 -0.637,0.636c-0.351,0 -0.637,-0.285 -0.637,-0.636c0,-0.352 0.286,-0.637 0.637,-0.637c0.352,-0 0.637,0.285 0.637,0.637Z" style="fill:url(#_Radial10);fill-rule:nonzero;"/></g><g><path d="M6.59,4.781c0,0.352 -0.285,0.637 -0.636,0.637c-0.352,-0 -0.637,-0.285 -0.637,-0.637c-0,-0.352 0.285,-0.637 0.637,-0.637c0.351,0 0.636,0.285 0.636,0.637Z" style="fill:url(#_Radial11);fill-rule:nonzero;"/><path d="M6.59,4.781c0,0.352 -0.285,0.637 -0.636,0.637c-0.352,-0 -0.637,-0.285 -0.637,-0.637c-0,-0.352 0.285,-0.637 0.637,-0.637c0.351,0 0.636,0.285 0.636,0.637Z" style="fill:url(#_Linear12);fill-rule:nonzero;"/><path d="M6.59,4.781c0,0.352 -0.285,0.637 -0.636,0.637c-0.352,-0 -0.637,-0.285 -0.637,-0.637c-0,-0.352 0.285,-0.637 0.637,-0.637c0.351,0 0.636,0.285 0.636,0.637Z" style="fill:url(#_Radial13);fill-rule:nonzero;"/><path d="M6.59,4.781c0,0.352 -0.285,0.637 -0.636,0.637c-0.352,-0 -0.637,-0.285 -0.637,-0.637c-0,-0.352 0.285,-0.637 0.637,-0.637c0.351,0 0.636,0.285 0.636,0.637Z" style="fill:url(#_Radial14);fill-rule:nonzero;"/><path d="M6.59,4.781c0,0.352 -0.285,0.637 -0.636,0.637c-0.352,-0 -0.637,-0.285 -0.637,-0.637c-0,-0.352 0.285,-0.637 0.637,-0.637c0.351,0 0.636,0.285 0.636,0.637Z" style="fill:url(#_Radial15);fill-rule:nonzero;"/></g><g><path d="M4.8,4.781c-0,0.352 -0.285,0.637 -0.637,0.637c-0.352,-0 -0.637,-0.285 -0.637,-0.637c0,-0.352 0.285,-0.637 0.637,-0.637c0.352,0 0.637,0.285 0.637,0.637Z" style="fill:url(#_Radial16);fill-rule:nonzero;"/><path d="M4.8,4.781c-0,0.352 -0.285,0.637 -0.637,0.637c-0.352,-0 -0.637,-0.285 -0.637,-0.637c0,-0.352 0.285,-0.637 0.637,-0.637c0.352,0 0.637,0.285 0.637,0.637Z" style="fill:url(#_Linear17);fill-rule:nonzero;"/><path d="M4.8,4.781c-0,0.352 -0.285,0.637 -0.637,0.637c-0.352,-0 -0.637,-0.285 -0.637,-0.637c0,-0.352 0.285,-0.637 0.637,-0.637c0.352,0 0.637,0.285 0.637,0.637Z" style="fill:url(#_Radial18);fill-rule:nonzero;"/><path d="M4.8,4.781c-0,0.352 -0.285,0.637 -0.637,0.637c-0.352,-0 -0.637,-0.285 -0.637,-0.637c0,-0.352 0.285,-0.637 0.637,-0.637c0.352,0 0.637,0.285 0.637,0.637Z" style="fill:url(#_Radial19);fill-rule:nonzero;"/><path d="M4.8,4.781c-0,0.352 -0.285,0.637 -0.637,0.637c-0.352,-0 -0.637,-0.285 -0.637,-0.637c0,-0.352 0.285,-0.637 0.637,-0.637c0.352,0 0.637,0.285 0.637,0.637Z" style="fill:url(#_Radial20);fill-rule:nonzero;"/></g></g><g><path d="M16.34,28.676c7.865,0 11.796,-5.281 11.796,-11.795c-0,-6.515 -3.931,-11.796 -11.796,-11.796c-7.865,0 -11.795,5.281 -11.795,11.796c-0,6.514 3.93,11.795 11.795,11.795Z" style="fill:url(#_Radial21);fill-rule:nonzero;"/><path d="M16.34,28.676c7.865,0 11.796,-5.281 11.796,-11.795c-0,-6.515 -3.931,-11.796 -11.796,-11.796c-7.865,0 -11.795,5.281 -11.795,11.796c-0,6.514 3.93,11.795 11.795,11.795Z" style="fill:url(#_Radial22);fill-rule:nonzero;"/><path d="M16.34,28.676c7.865,0 11.796,-5.281 11.796,-11.795c-0,-6.515 -3.931,-11.796 -11.796,-11.796c-7.865,0 -11.795,5.281 -11.795,11.796c-0,6.514 3.93,11.795 11.795,11.795Z" style="fill:url(#_Radial23);fill-rule:nonzero;"/><path d="M16.34,28.676c7.865,0 11.796,-5.281 11.796,-11.795c-0,-6.515 -3.931,-11.796 -11.796,-11.796c-7.865,0 -11.795,5.281 -11.795,11.796c-0,6.514 3.93,11.795 11.795,11.795Z" style="fill:url(#_Radial24);fill-rule:nonzero;"/><path d="M16.34,28.676c7.865,0 11.796,-5.281 11.796,-11.795c-0,-6.515 -3.931,-11.796 -11.796,-11.796c-7.865,0 -11.795,5.281 -11.795,11.796c-0,6.514 3.93,11.795 11.795,11.795Z" style="fill:url(#_Radial25);fill-rule:nonzero;"/><path d="M16.34,28.676c7.865,0 11.796,-5.281 11.796,-11.795c-0,-6.515 -3.931,-11.796 -11.796,-11.796c-7.865,0 -11.795,5.281 -11.795,11.796c-0,6.514 3.93,11.795 11.795,11.795Z" style="fill:url(#_Radial26);fill-rule:nonzero;"/><path d="M16.34,28.676c7.865,0 11.796,-5.281 11.796,-11.795c-0,-6.515 -3.931,-11.796 -11.796,-11.796c-7.865,0 -11.795,5.281 -11.795,11.796c-0,6.514 3.93,11.795 11.795,11.795Z" style="fill:url(#_Radial27);fill-rule:nonzero;"/><path d="M16.34,28.676c7.865,0 11.796,-5.281 11.796,-11.795c-0,-6.515 -3.931,-11.796 -11.796,-11.796c-7.865,0 -11.795,5.281 -11.795,11.796c-0,6.514 3.93,11.795 11.795,11.795Z" style="fill:url(#_Radial28);fill-rule:nonzero;"/><g><path d="M24.346,18.567l-5.477,-4.634l5.055,-1.264l0.422,5.898Z" style="fill:url(#_Linear29);fill-rule:nonzero;"/></g><g><path d="M14.234,15.618l-5.476,-0.421l3.791,-3.371l1.685,3.792Z" style="fill:url(#_Linear30);fill-rule:nonzero;"/></g><g><path d="M16.762,8.456l1.685,-0c1.349,1.348 1.124,3.932 0.843,5.055l-2.528,0.843l1.264,-2.949l-1.264,-2.949Z" style="fill:url(#_Radial31);fill-rule:nonzero;"/></g><g><path d="M5.387,10.141l1.685,0c1.349,1.348 1.124,3.932 0.843,5.056l-2.528,1.685l1.264,-3.792l-1.264,-2.949Z" style="fill:url(#_Radial32);fill-rule:nonzero;"/></g><path d="M10.126,14.24l-2.57,1.999c-0.087,0.068 -0.214,-0.001 -0.204,-0.111l0.252,-2.769c0.068,-0.747 -0.311,-1.464 -0.967,-1.828l-1.671,-0.929c-0.31,-0.172 -0.281,-0.627 0.048,-0.759l2.132,-0.853c0.594,-0.237 1.029,-0.76 1.155,-1.388l0.397,-1.987c0.067,-0.336 0.5,-0.434 0.705,-0.16l1.15,1.532c0.394,0.526 1.033,0.81 1.688,0.751l2.943,-0.268c0.109,-0.01 0.178,0.114 0.112,0.202l-1.504,2.006c-0.397,0.53 -0.49,1.228 -0.244,1.842l1.189,2.973l-3.075,-0.616c-0.541,-0.108 -1.101,0.025 -1.536,0.363Z" style="fill:url(#_Linear33);fill-rule:nonzero;stroke:url(#_Linear34);stroke-width:0.42px;"/><path d="M22.556,14.24l2.57,1.999c0.087,0.068 0.214,-0.001 0.204,-0.111l-0.252,-2.769c-0.068,-0.747 0.311,-1.464 0.967,-1.828l1.671,-0.929c0.31,-0.172 0.281,-0.627 -0.048,-0.759l-2.132,-0.853c-0.595,-0.237 -1.029,-0.76 -1.155,-1.388l-0.397,-1.987c-0.067,-0.336 -0.5,-0.434 -0.705,-0.16l-1.15,1.532c-0.394,0.526 -1.033,0.81 -1.688,0.751l-2.943,-0.268c-0.109,-0.01 -0.178,0.114 -0.112,0.202l1.504,2.006c0.397,0.53 0.49,1.228 0.244,1.842l-1.189,2.973l3.075,-0.616c0.541,-0.108 1.101,0.025 1.536,0.363Z" style="fill:url(#_Linear35);fill-rule:nonzero;stroke:url(#_Linear36);stroke-width:0.42px;"/><path d="M16.341,25.308c-7.583,-0 -7.583,-7.584 -7.583,-7.584l15.166,0c0,0 0,7.584 -7.583,7.584Z" style="fill:url(#_Radial37);fill-rule:nonzero;"/><path d="M9.6,18.146l0,-0.422l13.482,0l-0,0.422c-0,0.465 -0.377,0.842 -0.843,0.842l-11.796,0c-0.466,0 -0.843,-0.377 -0.843,-0.842Z" style="fill:url(#_Linear38);fill-rule:nonzero;"/></g></g><defs><linearGradient id="_Linear1" x1="0" y1="0" x2="1" y2="0.00100281" gradientUnits="userSpaceOnUse" gradientTransform="matrix(0.00530443,-3.52446,4.12293,0.0110417,19.3801,27.1297)"><stop offset="0" style="stop-color:#ce9af8;stop-opacity:1"/><stop offset="0.5" style="stop-color:#d7affa;stop-opacity:0.45"/><stop offset="1" style="stop-color:#dfc0fc;stop-opacity:0"/></linearGradient><linearGradient id="_Linear2" x1="0" y1="0" x2="1" y2="0" gradientUnits="userSpaceOnUse" gradientTransform="matrix(26.0895,0,0,13.6417,1.74886,6.13982)"><stop offset="0" style="stop-color:#377af3;stop-opacity:1"/><stop offset="0.79" style="stop-color:#2ea6ff;stop-opacity:1"/><stop offset="1" style="stop-color:#2ea6ff;stop-opacity:1"/></linearGradient><linearGradient id="_Linear3" x1="0" y1="0" x2="1" y2="0" gradientUnits="userSpaceOnUse" gradientTransform="matrix(1.201e-16,1.02557,-1.96138,6.2798e-17,16,3.32358)"><stop offset="0" style="stop-color:#2d9eee;stop-opacity:1"/><stop offset="1" style="stop-color:#2d9eee;stop-opacity:0"/></linearGradient><radialGradient id="_Radial4" cx="0" cy="0" r="1" gradientUnits="userSpaceOnUse" gradientTransform="matrix(-19.6365,-1.8232,1.98124,-5.83409,21.7123,6.97004)"><stop offset="0" style="stop-color:#3955e1;stop-opacity:0"/><stop offset="0.76" style="stop-color:#3955e1;stop-opacity:0"/><stop offset="0.99" style="stop-color:#3d41a8;stop-opacity:1"/><stop offset="1" style="stop-color:#3d41a8;stop-opacity:1"/></radialGradient><radialGradient id="_Radial5" cx="0" cy="0" r="1" gradientUnits="userSpaceOnUse" gradientTransform="matrix(-8.69663,2.03562,-6.4375,-5.68592,31.6027,4.04551)"><stop offset="0" style="stop-color:#55d9ff;stop-opacity:1"/><stop offset="1" style="stop-color:#55d9ff;stop-opacity:0"/></radialGradient><radialGradient id="_Radial6" cx="0" cy="0" r="1" gradientUnits="userSpaceOnUse" gradientTransform="matrix(-0.815962,0.966656,-0.966656,-0.815962,8.11636,4.44582)"><stop offset="0" style="stop-color:#5ae68d;stop-opacity:1"/><stop offset="0.19" style="stop-color:#5ae68d;stop-opacity:1"/><stop offset="0.84" style="stop-color:#43a684;stop-opacity:1"/><stop offset="1" style="stop-color:#43a684;stop-opacity:1"/></radialGradient><linearGradient id="_Linear7" x1="0" y1="0" x2="1" y2="0" gradientUnits="userSpaceOnUse" gradientTransform="matrix(1.81053e-17,0.295681,-0.295681,1.81053e-17,7.74429,4.13876)"><stop offset="0" style="stop-color:#5ed284;stop-opacity:1"/><stop offset="1" style="stop-color:#5ed284;stop-opacity:0"/></linearGradient><radialGradient id="_Radial8" cx="0" cy="0" r="1" gradientUnits="userSpaceOnUse" gradientTransform="matrix(-0.483321,0.460583,-0.496336,-0.52084,8.1391,4.5368)"><stop offset="0" style="stop-color:#6ffca5;stop-opacity:1"/><stop offset="0.18" style="stop-color:#6ffca5;stop-opacity:1"/><stop offset="1" style="stop-color:#65e6a7;stop-opacity:0"/></radialGradient><radialGradient id="_Radial9" cx="0" cy="0" r="1" gradientUnits="userSpaceOnUse" gradientTransform="matrix(-0.875671,-6.70514e-16,6.96637e-16,-0.909788,7.94862,4.77562)"><stop offset="0" style="stop-color:#64cb85;stop-opacity:0"/><stop offset="0.62" style="stop-color:#64cb85;stop-opacity:0"/><stop offset="0.95" style="stop-color:#a4e4b7;stop-opacity:1"/><stop offset="1" style="stop-color:#a4e4b7;stop-opacity:1"/></radialGradient><radialGradient id="_Radial10" cx="0" cy="0" r="1" gradientUnits="userSpaceOnUse" gradientTransform="matrix(-3.86416e-16,1.0093,-1.04569,-4.00351e-16,7.74429,4.45719)"><stop offset="0" style="stop-color:#4a9795;stop-opacity:0"/><stop offset="0.73" style="stop-color:#4a9795;stop-opacity:0"/><stop offset="1" style="stop-color:#718cad;stop-opacity:1"/></radialGradient><radialGradient id="_Radial11" cx="0" cy="0" r="1" gradientUnits="userSpaceOnUse" gradientTransform="matrix(-0.815962,0.966656,-0.966656,-0.815962,6.32566,4.45107)"><stop offset="0" style="stop-color:#e6c35a;stop-opacity:1"/><stop offset="0.19" style="stop-color:#e6c35a;stop-opacity:1"/><stop offset="0.84" style="stop-color:#a68d43;stop-opacity:1"/><stop offset="1" style="stop-color:#a68d43;stop-opacity:1"/></radialGradient><linearGradient id="_Linear12" x1="0" y1="0" x2="1" y2="0" gradientUnits="userSpaceOnUse" gradientTransform="matrix(1.81053e-17,0.295681,-0.295681,1.81053e-17,5.9536,4.14401)"><stop offset="0" style="stop-color:#d2b55e;stop-opacity:1"/><stop offset="1" style="stop-color:#d2b55e;stop-opacity:1"/></linearGradient><radialGradient id="_Radial13" cx="0" cy="0" r="1" gradientUnits="userSpaceOnUse" gradientTransform="matrix(-0.483321,0.460583,-0.496336,-0.52084,6.34841,4.54205)"><stop offset="0" style="stop-color:#fcd96f;stop-opacity:1"/><stop offset="0.18" style="stop-color:#fcd96f;stop-opacity:1"/><stop offset="1" style="stop-color:#e6c665;stop-opacity:1"/></radialGradient><radialGradient id="_Radial14" cx="0" cy="0" r="1" gradientUnits="userSpaceOnUse" gradientTransform="matrix(-0.875671,-6.70514e-16,6.96637e-16,-0.909788,6.15792,4.78087)"><stop offset="0" style="stop-color:#cbb164;stop-opacity:0"/><stop offset="0.62" style="stop-color:#cbb164;stop-opacity:0"/><stop offset="0.95" style="stop-color:#e4d4a4;stop-opacity:0"/><stop offset="1" style="stop-color:#e4d4a4;stop-opacity:0"/></radialGradient><radialGradient id="_Radial15" cx="0" cy="0" r="1" gradientUnits="userSpaceOnUse" gradientTransform="matrix(-3.86416e-16,1.0093,-1.04569,-4.00351e-16,5.9536,4.46244)"><stop offset="0" style="stop-color:#4a9795;stop-opacity:0"/><stop offset="0.73" style="stop-color:#4a9795;stop-opacity:0"/><stop offset="1" style="stop-color:#718cad;stop-opacity:1"/></radialGradient><radialGradient id="_Radial16" cx="0" cy="0" r="1" gradientUnits="userSpaceOnUse" gradientTransform="matrix(-0.815962,0.966656,-0.966656,-0.815962,4.53497,4.45107)"><stop offset="0" style="stop-color:#e65a5a;stop-opacity:1"/><stop offset="0.19" style="stop-color:#e65a5a;stop-opacity:1"/><stop offset="0.84" style="stop-color:#a64343;stop-opacity:1"/><stop offset="1" style="stop-color:#a64343;stop-opacity:1"/></radialGradient><linearGradient id="_Linear17" x1="0" y1="0" x2="1" y2="0" gradientUnits="userSpaceOnUse" gradientTransform="matrix(1.81053e-17,0.295681,-0.295681,1.81053e-17,4.1629,4.14401)"><stop offset="0" style="stop-color:#d25e5e;stop-opacity:1"/><stop offset="1" style="stop-color:#d25e5e;stop-opacity:1"/></linearGradient><radialGradient id="_Radial18" cx="0" cy="0" r="1" gradientUnits="userSpaceOnUse" gradientTransform="matrix(-0.483321,0.460583,-0.496336,-0.52084,4.55772,4.54205)"><stop offset="0" style="stop-color:#fc6f6f;stop-opacity:1"/><stop offset="0.18" style="stop-color:#fc6f6f;stop-opacity:1"/><stop offset="1" style="stop-color:#e66565;stop-opacity:1"/></radialGradient><radialGradient id="_Radial19" cx="0" cy="0" r="1" gradientUnits="userSpaceOnUse" gradientTransform="matrix(-0.875671,-6.70514e-16,6.96637e-16,-0.909788,4.36723,4.78087)"><stop offset="0" style="stop-color:#cb6464;stop-opacity:0"/><stop offset="0.62" style="stop-color:#cb6464;stop-opacity:0"/><stop offset="0.95" style="stop-color:#e4a4a4;stop-opacity:1"/><stop offset="1" style="stop-color:#e4a4a4;stop-opacity:1"/></radialGradient><radialGradient id="_Radial20" cx="0" cy="0" r="1" gradientUnits="userSpaceOnUse" gradientTransform="matrix(-3.86416e-16,1.0093,-1.04569,-4.00351e-16,4.1629,4.46244)"><stop offset="0" style="stop-color:#4a9795;stop-opacity:0"/><stop offset="0.73" style="stop-color:#4a9795;stop-opacity:0"/><stop offset="1" style="stop-color:#718cad;stop-opacity:1"/></radialGradient><radialGradient id="_Radial21" cx="0" cy="0" r="1" gradientUnits="userSpaceOnUse" gradientTransform="matrix(-21.4863,23.1715,-23.1715,-21.4863,24.3457,10.9837)"><stop offset="0" style="stop-color:#fff478;stop-opacity:1"/><stop offset="0.47" style="stop-color:#ffb02e;stop-opacity:1"/><stop offset="1" style="stop-color:#f70a8d;stop-opacity:1"/></radialGradient><radialGradient id="_Radial22" cx="0" cy="0" r="1" gradientUnits="userSpaceOnUse" gradientTransform="matrix(-21.9077,24.4354,-24.4354,-21.9077,24.3457,10.9837)"><stop offset="0" style="stop-color:#fff478;stop-opacity:1"/><stop offset="0.47" style="stop-color:#ffb02e;stop-opacity:1"/><stop offset="1" style="stop-color:#f70a8d;stop-opacity:1"/></radialGradient><radialGradient id="_Radial23" cx="0" cy="0" r="1" gradientUnits="userSpaceOnUse" gradientTransform="matrix(-2.94912,14.7455,-18.8862,-3.77727,16.341,13.9328)"><stop offset="0" style="stop-color:#f59639;stop-opacity:0"/><stop offset="0.79" style="stop-color:#f59639;stop-opacity:0"/><stop offset="0.97" style="stop-color:#ff7dce;stop-opacity:1"/><stop offset="1" style="stop-color:#ff7dce;stop-opacity:1"/></radialGradient><radialGradient id="_Radial24" cx="0" cy="0" r="1" gradientUnits="userSpaceOnUse" gradientTransform="matrix(-24.4354,24.4354,-24.4354,-24.4354,18.0262,15.1967)"><stop offset="0" style="stop-color:#000;stop-opacity:0"/><stop offset="0.31" style="stop-color:#000;stop-opacity:0"/><stop offset="1" style="stop-color:#000;stop-opacity:0.6"/></radialGradient><radialGradient id="_Radial25" cx="0" cy="0" r="1" gradientUnits="userSpaceOnUse" gradientTransform="matrix(5.05559,23.1715,-23.1715,5.05559,16.341,17.7245)"><stop offset="0" style="stop-color:#7d6133;stop-opacity:0"/><stop offset="0.51" style="stop-color:#7d6133;stop-opacity:0"/><stop offset="1" style="stop-color:#715b32;stop-opacity:1"/></radialGradient><radialGradient id="_Radial26" cx="0" cy="0" r="1" gradientUnits="userSpaceOnUse" gradientTransform="matrix(6.3195,9.26859,-6.71835,4.5807,16.7623,17.3032)"><stop offset="0" style="stop-color:#ffb849;stop-opacity:1"/><stop offset="1" style="stop-color:#ffb847;stop-opacity:0"/></radialGradient><radialGradient id="_Radial27" cx="0" cy="0" r="1" gradientUnits="userSpaceOnUse" gradientTransform="matrix(9.68989,1.6852,-1.6852,9.68989,20.1327,18.5671)"><stop offset="0" style="stop-color:#ffa64b;stop-opacity:1"/><stop offset="0.9" style="stop-color:#ffae46;stop-opacity:0"/><stop offset="1" style="stop-color:#ffae46;stop-opacity:0"/></radialGradient><radialGradient id="_Radial28" cx="0" cy="0" r="1" gradientUnits="userSpaceOnUse" gradientTransform="matrix(35.8105,34.5466,-34.5466,35.8105,17.6049,16.0393)"><stop offset="0" style="stop-color:#000;stop-opacity:0"/><stop offset="0.19" style="stop-color:#000;stop-opacity:0"/><stop offset="1" style="stop-color:#000;stop-opacity:0.4"/></radialGradient><linearGradient id="_Linear29" x1="0" y1="0" x2="1" y2="0" gradientUnits="userSpaceOnUse" gradientTransform="matrix(-1.42054,2.66868,-2.66868,-1.42054,22.6605,13.0902)"><stop offset="0" style="stop-color:#ec812a;stop-opacity:1"/><stop offset="0.37" style="stop-color:#ec812a;stop-opacity:1"/><stop offset="1" style="stop-color:#fba84c;stop-opacity:0"/></linearGradient><linearGradient id="_Linear30" x1="0" y1="0" x2="1" y2="0" gradientUnits="userSpaceOnUse" gradientTransform="matrix(-0.210313,2.1274,-2.1274,-0.210313,11.7067,13.0902)"><stop offset="0" style="stop-color:#c85f27;stop-opacity:1"/><stop offset="1" style="stop-color:#c85f27;stop-opacity:0"/></linearGradient><radialGradient id="_Radial31" cx="0" cy="0" r="1" gradientUnits="userSpaceOnUse" gradientTransform="matrix(-3.79171,2.5278,-2.5278,-3.79171,19.7114,11.8263)"><stop offset="0" style="stop-color:#ec812a;stop-opacity:1"/><stop offset="0.12" style="stop-color:#ec812a;stop-opacity:1"/><stop offset="1" style="stop-color:#fba84c;stop-opacity:0"/></radialGradient><radialGradient id="_Radial32" cx="0" cy="0" r="1" gradientUnits="userSpaceOnUse" gradientTransform="matrix(-4.21301,1.68517,-1.68517,-4.21301,8.75757,14.3541)"><stop offset="0" style="stop-color:#cc7521;stop-opacity:1"/><stop offset="1" style="stop-color:#e6872b;stop-opacity:0"/></radialGradient><linearGradient id="_Linear33" x1="0" y1="0" x2="1" y2="0" gradientUnits="userSpaceOnUse" gradientTransform="matrix(2.1065,11.7964,-11.7964,2.1065,9.17887,4.24286)"><stop offset="0" style="stop-color:#7912b2;stop-opacity:1"/><stop offset="1" style="stop-color:#cf1da1;stop-opacity:1"/></linearGradient><linearGradient id="_Linear34" x1="0" y1="0" x2="1" y2="0" gradientUnits="userSpaceOnUse" gradientTransform="matrix(-5.4769,2.1065,-2.1065,-5.4769,15.4984,8.45586)"><stop offset="0" style="stop-color:#a82d9c;stop-opacity:1"/><stop offset="1" style="stop-color:#bf33b1;stop-opacity:0"/></linearGradient><linearGradient id="_Linear35" x1="0" y1="0" x2="1" y2="0" gradientUnits="userSpaceOnUse" gradientTransform="matrix(0.4213,10.1112,-10.1112,0.4213,21.3966,5.50676)"><stop offset="0" style="stop-color:#7912b2;stop-opacity:1"/><stop offset="1" style="stop-color:#cf1da1;stop-opacity:1"/></linearGradient><linearGradient id="_Linear36" x1="0" y1="0" x2="1" y2="0" gradientUnits="userSpaceOnUse" gradientTransform="matrix(-5.0556,0.4213,-0.4213,-5.0556,27.7161,8.45586)"><stop offset="0" style="stop-color:#b51aa6;stop-opacity:1"/><stop offset="1" style="stop-color:#bf33b1;stop-opacity:0"/></linearGradient><radialGradient id="_Radial37" cx="0" cy="0" r="1" gradientUnits="userSpaceOnUse" gradientTransform="matrix(-3.54855e-15,-9.26861,18.5372,-7.0971e-15,16.341,26.9931)"><stop offset="0" style="stop-color:#f70a8d;stop-opacity:1"/><stop offset="1" style="stop-color:#89029c;stop-opacity:1"/></radialGradient><linearGradient id="_Linear38" x1="0" y1="0" x2="1" y2="0" gradientUnits="userSpaceOnUse" gradientTransform="matrix(7.73916e-17,1.2639,-1.2639,7.73916e-17,16.341,17.7245)"><stop offset="0" style="stop-color:#d5a8fe;stop-opacity:1"/><stop offset="1" style="stop-color:#fff;stop-opacity:1"/></linearGradient></defs></svg>