<svg width="100%" height="100%" viewBox="0 0 32 32" version="1.1" xmlns="http://www.w3.org/2000/svg" style="fill-rule:evenodd;clip-rule:evenodd;stroke-linejoin:round;stroke-miterlimit:2;">
    <g transform="matrix(1.14286,0,0,1.14286,-2.28571,-2.28571)">
        <path d="M16,30C23.732,30 30,23.732 30,16C30,8.268 23.732,2 16,2C8.268,2 2,8.268 2,16C2,23.732 8.268,30 16,30Z" style="fill:url(#_Radial1);fill-rule:nonzero;"/>
        <path d="M16,30C23.732,30 30,23.732 30,16C30,8.268 23.732,2 16,2C8.268,2 2,8.268 2,16C2,23.732 8.268,30 16,30Z" style="fill:url(#_Radial2);fill-rule:nonzero;"/>
        <path d="M16,30C23.732,30 30,23.732 30,16C30,8.268 23.732,2 16,2C8.268,2 2,8.268 2,16C2,23.732 8.268,30 16,30Z" style="fill:url(#_Radial3);fill-rule:nonzero;"/>
        <path d="M16,30C23.732,30 30,23.732 30,16C30,8.268 23.732,2 16,2C8.268,2 2,8.268 2,16C2,23.732 8.268,30 16,30Z" style="fill:url(#_Radial4);fill-rule:nonzero;"/>
    </g>
    <defs>
        <radialGradient id="_Radial1" cx="0" cy="0" r="1" gradientUnits="userSpaceOnUse" gradientTransform="matrix(-15.9376,14.1874,-16.0478,-18.0275,26.125,11.5625)"><stop offset="0" style="stop-color:rgb(124,177,230);stop-opacity:1"/><stop offset="0.02" style="stop-color:rgb(124,177,230);stop-opacity:1"/><stop offset="1" style="stop-color:rgb(66,107,190);stop-opacity:1"/></radialGradient>
        <radialGradient id="_Radial2" cx="0" cy="0" r="1" gradientUnits="userSpaceOnUse" gradientTransform="matrix(-5.695e-15,-14.875,32.5077,-1.24458e-14,16.8125,30.875)"><stop offset="0" style="stop-color:rgb(89,99,238);stop-opacity:1"/><stop offset="1" style="stop-color:rgb(89,99,238);stop-opacity:0"/></radialGradient>
        <radialGradient id="_Radial3" cx="0" cy="0" r="1" gradientUnits="userSpaceOnUse" gradientTransform="matrix(-6.10178e-15,15.9375,-15.9375,-6.10178e-15,16,14.0625)"><stop offset="0" style="stop-color:rgb(113,96,238);stop-opacity:0"/><stop offset="0.93" style="stop-color:rgb(113,96,238);stop-opacity:0"/><stop offset="1" style="stop-color:rgb(113,96,238);stop-opacity:1"/></radialGradient>
        <radialGradient id="_Radial4" cx="0" cy="0" r="1" gradientUnits="userSpaceOnUse" gradientTransform="matrix(-13.7187,-13.7187,13.653,-13.653,18.625,18.625)"><stop offset="0" style="stop-color:rgb(81,107,151);stop-opacity:0"/><stop offset="0.8" style="stop-color:rgb(81,107,151);stop-opacity:0"/><stop offset="1" style="stop-color:rgb(81,107,151);stop-opacity:1"/></radialGradient>
    </defs>
</svg>
