
<svg width="100%" height="100%" viewBox="0 0 32 32" version="1.1" xmlns="http://www.w3.org/2000/svg" style="fill-rule:evenodd;clip-rule:evenodd;stroke-linejoin:round;stroke-miterlimit:2;">
    <g transform="matrix(1,0,0,1,2.46797,-0.143789)">
        <g transform="matrix(0.404933,0,0,1.39337,14.6393,-8.9348)">
            <path d="M22.83,13.77L21.7,13.77C17.425,13.854 12.472,26.671 12.472,26.671C12.472,27.251 12.942,27.731 13.532,27.731L31.024,27.675C31.604,27.675 32.084,27.205 32.084,26.615C32.084,26.615 26.657,13.872 22.83,13.77Z" style="fill:url(#_Linear1);fill-rule:nonzero;"/>
            <path d="M22.83,13.77L21.7,13.77C17.715,13.686 12.472,26.662 12.472,26.662C12.472,27.242 12.942,27.722 13.532,27.722L31.048,27.629C31.628,27.629 32.108,27.159 32.108,26.569C32.108,26.569 26.287,13.854 22.83,13.77Z" style="fill:url(#_Radial2);fill-rule:nonzero;"/>
            <path d="M22.83,13.77L21.7,13.77C17.398,13.705 12.422,26.653 12.422,26.653C12.422,27.233 12.892,27.713 13.482,27.713L30.995,27.657C31.575,27.657 32.055,27.187 32.055,26.597C32.055,26.597 26.815,13.835 22.83,13.77Z" style="fill:url(#_Linear3);fill-rule:nonzero;"/>
            <path d="M22.83,13.77L21.7,13.77C18.85,13.77 16.54,16.08 16.54,18.93L16.54,26.69C16.54,27.27 17.01,27.75 17.6,27.75L26.93,27.75C27.51,27.75 27.99,27.28 27.99,26.69L27.99,18.93C27.99,16.08 25.68,13.77 22.83,13.77Z" style="fill:url(#_Radial4);fill-rule:nonzero;"/>
            <path d="M22.83,13.77L21.7,13.77C17.689,13.779 12.316,26.597 12.316,26.597C12.316,27.177 12.786,27.657 13.376,27.657L30.919,27.648C31.499,27.648 31.979,27.178 31.979,26.588C31.979,26.588 26.577,13.817 22.83,13.77Z" style="fill:url(#_Linear5);fill-rule:nonzero;"/>
            <path d="M22.83,13.77L21.7,13.77C17.636,13.789 12.422,26.606 12.422,26.606C12.422,27.186 12.892,27.666 13.482,27.666L31.059,27.657C31.639,27.657 32.119,27.187 32.119,26.597C32.119,26.597 26.762,13.854 22.83,13.77Z" style="fill:url(#_Linear6);fill-rule:nonzero;"/>
        </g>
        <g transform="matrix(1.5443,0,0,1.62017,-12.2921,-5.76418)">
            <g transform="matrix(1.1119,0,0,1.1119,-1.40926,-5.58414)">
                <path d="M19.55,13.81C19.55,15.3 20.76,16.51 22.25,16.51C23.74,16.51 24.95,15.3 24.95,13.81L24.95,12.05L19.54,12.05L19.54,13.81L19.55,13.81Z" style="fill:url(#_Radial7);fill-rule:nonzero;"/>
            </g>
            <g transform="matrix(1.1119,0,0,1.1119,-1.40926,-5.58414)">
                <path d="M24.96,12.05C24.96,10.55 23.75,9.34 22.26,9.34C20.77,9.34 19.56,10.55 19.56,12.04L19.56,12.05L24.96,12.05Z" style="fill:url(#_Radial8);fill-rule:nonzero;"/>
            </g>
            <g transform="matrix(1.1119,0,0,1.1119,-1.40926,-5.58414)">
                <path d="M24.96,12.05C24.96,10.55 23.75,9.34 22.26,9.34C20.77,9.34 19.56,10.55 19.56,12.04L19.56,12.05L24.96,12.05Z" style="fill:url(#_Linear9);fill-rule:nonzero;"/>
            </g>
            <g transform="matrix(1.1119,0,0,1.1119,-1.40926,-5.58414)">
                <path d="M24.96,12.05C24.96,10.55 23.75,9.34 22.26,9.34C20.77,9.34 19.56,10.55 19.56,12.04L19.56,12.05L24.96,12.05Z" style="fill:url(#_Radial10);fill-rule:nonzero;"/>
            </g>
            <g transform="matrix(1.1119,0,0,1.1119,-1.40926,-5.58414)">
                <path d="M21.14,14.34C20.86,14.34 20.64,14.12 20.64,13.84L20.64,13.44C20.64,13.16 20.86,12.94 21.14,12.94C21.42,12.94 21.64,13.16 21.64,13.44L21.64,13.85C21.64,14.12 21.42,14.34 21.14,14.34Z" style="fill:url(#_Linear11);fill-rule:nonzero;"/>
            </g>
            <g transform="matrix(1.1119,0,0,1.1119,-1.40926,-5.58414)">
                <path d="M21.14,14.34C20.86,14.34 20.64,14.12 20.64,13.84L20.64,13.44C20.64,13.16 20.86,12.94 21.14,12.94C21.42,12.94 21.64,13.16 21.64,13.44L21.64,13.85C21.64,14.12 21.42,14.34 21.14,14.34Z" style="fill:url(#_Radial12);fill-rule:nonzero;"/>
            </g>
            <g transform="matrix(1.1119,0,0,1.1119,-1.40926,-5.58414)">
                <path d="M23.39,14.34C23.11,14.34 22.89,14.12 22.89,13.84L22.89,13.44C22.89,13.16 23.11,12.94 23.39,12.94C23.67,12.94 23.89,13.16 23.89,13.44L23.89,13.85C23.89,14.12 23.67,14.34 23.39,14.34Z" style="fill:url(#_Linear13);fill-rule:nonzero;"/>
            </g>
            <g transform="matrix(1.1119,0,0,1.1119,-1.40926,-5.58414)">
                <path d="M23.39,14.34C23.11,14.34 22.89,14.12 22.89,13.84L22.89,13.44C22.89,13.16 23.11,12.94 23.39,12.94C23.67,12.94 23.89,13.16 23.89,13.44L23.89,13.85C23.89,14.12 23.67,14.34 23.39,14.34Z" style="fill:url(#_Radial14);fill-rule:nonzero;"/>
            </g>
        </g>
    </g>
    <g transform="matrix(1,0,0,1,-7.62616,0.0133513)">
        <g transform="matrix(0.404933,0,0,1.39337,14.5725,-8.90807)">
            <path d="M22.83,13.77L21.7,13.77C17.425,13.854 12.472,26.671 12.472,26.671C12.472,27.251 12.942,27.731 13.532,27.731L31.024,27.675C31.604,27.675 32.084,27.205 32.084,26.615C32.084,26.615 26.657,13.872 22.83,13.77Z" style="fill:url(#_Linear15);fill-rule:nonzero;"/>
            <path d="M22.83,13.77L21.7,13.77C17.715,13.686 12.472,26.662 12.472,26.662C12.472,27.242 12.942,27.722 13.532,27.722L31.048,27.629C31.628,27.629 32.108,27.159 32.108,26.569C32.108,26.569 26.287,13.854 22.83,13.77Z" style="fill:url(#_Radial16);fill-rule:nonzero;"/>
            <path d="M22.83,13.77L21.7,13.77C17.398,13.705 12.422,26.653 12.422,26.653C12.422,27.233 12.892,27.713 13.482,27.713L30.995,27.657C31.575,27.657 32.055,27.187 32.055,26.597C32.055,26.597 26.815,13.835 22.83,13.77Z" style="fill:url(#_Linear17);fill-rule:nonzero;"/>
            <path d="M22.83,13.77L21.7,13.77C18.85,13.77 16.54,16.08 16.54,18.93L16.54,26.69C16.54,27.27 17.01,27.75 17.6,27.75L26.93,27.75C27.51,27.75 27.99,27.28 27.99,26.69L27.99,18.93C27.99,16.08 25.68,13.77 22.83,13.77Z" style="fill:url(#_Radial18);fill-rule:nonzero;"/>
            <path d="M22.83,13.77L21.7,13.77C17.689,13.779 12.316,26.597 12.316,26.597C12.316,27.177 12.786,27.657 13.376,27.657L30.919,27.648C31.499,27.648 31.979,27.178 31.979,26.588C31.979,26.588 26.577,13.817 22.83,13.77Z" style="fill:url(#_Linear19);fill-rule:nonzero;"/>
            <path d="M22.83,13.77L21.7,13.77C17.636,13.789 12.422,26.606 12.422,26.606C12.422,27.186 12.892,27.666 13.482,27.666L31.059,27.657C31.639,27.657 32.119,27.187 32.119,26.597C32.119,26.597 26.762,13.854 22.83,13.77Z" style="fill:url(#_Linear20);fill-rule:nonzero;"/>
        </g>
        <g transform="matrix(1.4929,0,0,1.56624,-11.2745,-5.46517)">
            <g transform="matrix(1.1119,0,0,1.1119,-1.40926,-5.58414)">
                <path d="M19.55,13.81C19.55,15.3 20.76,16.51 22.25,16.51C23.74,16.51 24.95,15.3 24.95,13.81L24.95,12.05L19.54,12.05L19.54,13.81L19.55,13.81Z" style="fill:url(#_Radial21);fill-rule:nonzero;"/>
            </g>
            <g transform="matrix(1.1119,0,0,1.1119,-1.40926,-5.58414)">
                <path d="M24.96,12.05C24.96,10.55 23.75,9.34 22.26,9.34C20.77,9.34 19.56,10.55 19.56,12.04L19.56,12.05L24.96,12.05Z" style="fill:url(#_Radial22);fill-rule:nonzero;"/>
            </g>
            <g transform="matrix(1.1119,0,0,1.1119,-1.40926,-5.58414)">
                <path d="M24.96,12.05C24.96,10.55 23.75,9.34 22.26,9.34C20.77,9.34 19.56,10.55 19.56,12.04L19.56,12.05L24.96,12.05Z" style="fill:url(#_Linear23);fill-rule:nonzero;"/>
            </g>
            <g transform="matrix(1.1119,0,0,1.1119,-1.40926,-5.58414)">
                <path d="M24.96,12.05C24.96,10.55 23.75,9.34 22.26,9.34C20.77,9.34 19.56,10.55 19.56,12.04L19.56,12.05L24.96,12.05Z" style="fill:url(#_Radial24);fill-rule:nonzero;"/>
            </g>
            <g transform="matrix(1.1119,0,0,1.1119,-1.40926,-5.58414)">
                <path d="M21.14,14.34C20.86,14.34 20.64,14.12 20.64,13.84L20.64,13.44C20.64,13.16 20.86,12.94 21.14,12.94C21.42,12.94 21.64,13.16 21.64,13.44L21.64,13.85C21.64,14.12 21.42,14.34 21.14,14.34Z" style="fill:url(#_Linear25);fill-rule:nonzero;"/>
            </g>
            <g transform="matrix(1.1119,0,0,1.1119,-1.40926,-5.58414)">
                <path d="M21.14,14.34C20.86,14.34 20.64,14.12 20.64,13.84L20.64,13.44C20.64,13.16 20.86,12.94 21.14,12.94C21.42,12.94 21.64,13.16 21.64,13.44L21.64,13.85C21.64,14.12 21.42,14.34 21.14,14.34Z" style="fill:url(#_Radial26);fill-rule:nonzero;"/>
            </g>
            <g transform="matrix(1.1119,0,0,1.1119,-1.40926,-5.58414)">
                <path d="M23.39,14.34C23.11,14.34 22.89,14.12 22.89,13.84L22.89,13.44C22.89,13.16 23.11,12.94 23.39,12.94C23.67,12.94 23.89,13.16 23.89,13.44L23.89,13.85C23.89,14.12 23.67,14.34 23.39,14.34Z" style="fill:url(#_Linear27);fill-rule:nonzero;"/>
            </g>
            <g transform="matrix(1.1119,0,0,1.1119,-1.40926,-5.58414)">
                <path d="M23.39,14.34C23.11,14.34 22.89,14.12 22.89,13.84L22.89,13.44C22.89,13.16 23.11,12.94 23.39,12.94C23.67,12.94 23.89,13.16 23.89,13.44L23.89,13.85C23.89,14.12 23.67,14.34 23.39,14.34Z" style="fill:url(#_Radial28);fill-rule:nonzero;"/>
            </g>
        </g>
    </g>
    <g transform="matrix(1,0,0,1,-17.7902,-0.0319101)">
        <g transform="matrix(0.404933,0,0,1.39337,14.3988,-8.89471)">
            <path d="M22.83,13.77L21.7,13.77C17.425,13.854 12.472,26.671 12.472,26.671C12.472,27.251 12.942,27.731 13.532,27.731L31.024,27.675C31.604,27.675 32.084,27.205 32.084,26.615C32.084,26.615 26.657,13.872 22.83,13.77Z" style="fill:url(#_Linear29);fill-rule:nonzero;"/>
            <path d="M22.83,13.77L21.7,13.77C17.715,13.686 12.472,26.662 12.472,26.662C12.472,27.242 12.942,27.722 13.532,27.722L31.048,27.629C31.628,27.629 32.108,27.159 32.108,26.569C32.108,26.569 26.287,13.854 22.83,13.77Z" style="fill:url(#_Radial30);fill-rule:nonzero;"/>
            <path d="M22.83,13.77L21.7,13.77C17.398,13.705 12.422,26.653 12.422,26.653C12.422,27.233 12.892,27.713 13.482,27.713L30.995,27.657C31.575,27.657 32.055,27.187 32.055,26.597C32.055,26.597 26.815,13.835 22.83,13.77Z" style="fill:url(#_Linear31);fill-rule:nonzero;"/>
            <path d="M22.83,13.77L21.7,13.77C18.85,13.77 16.54,16.08 16.54,18.93L16.54,26.69C16.54,27.27 17.01,27.75 17.6,27.75L26.93,27.75C27.51,27.75 27.99,27.28 27.99,26.69L27.99,18.93C27.99,16.08 25.68,13.77 22.83,13.77Z" style="fill:url(#_Radial32);fill-rule:nonzero;"/>
            <path d="M22.83,13.77L21.7,13.77C17.689,13.779 12.316,26.597 12.316,26.597C12.316,27.177 12.786,27.657 13.376,27.657L30.919,27.648C31.499,27.648 31.979,27.178 31.979,26.588C31.979,26.588 26.577,13.817 22.83,13.77Z" style="fill:url(#_Linear33);fill-rule:nonzero;"/>
            <path d="M22.83,13.77L21.7,13.77C17.636,13.789 12.422,26.606 12.422,26.606C12.422,27.186 12.892,27.666 13.482,27.666L31.059,27.657C31.639,27.657 32.119,27.187 32.119,26.597C32.119,26.597 26.762,13.854 22.83,13.77Z" style="fill:url(#_Linear34);fill-rule:nonzero;"/>
        </g>
        <g transform="matrix(1.47182,0,0,1.54413,-10.9264,-5.43917)">
            <g transform="matrix(1.1119,0,0,1.1119,-1.40926,-5.58414)">
                <path d="M19.55,13.81C19.55,15.3 20.76,16.51 22.25,16.51C23.74,16.51 24.95,15.3 24.95,13.81L24.95,12.05L19.54,12.05L19.54,13.81L19.55,13.81Z" style="fill:url(#_Radial35);fill-rule:nonzero;"/>
            </g>
            <g transform="matrix(1.1119,0,0,1.1119,-1.40926,-5.58414)">
                <path d="M24.96,12.05C24.96,10.55 23.75,9.34 22.26,9.34C20.77,9.34 19.56,10.55 19.56,12.04L19.56,12.05L24.96,12.05Z" style="fill:url(#_Radial36);fill-rule:nonzero;"/>
            </g>
            <g transform="matrix(1.1119,0,0,1.1119,-1.40926,-5.58414)">
                <path d="M24.96,12.05C24.96,10.55 23.75,9.34 22.26,9.34C20.77,9.34 19.56,10.55 19.56,12.04L19.56,12.05L24.96,12.05Z" style="fill:url(#_Linear37);fill-rule:nonzero;"/>
            </g>
            <g transform="matrix(1.1119,0,0,1.1119,-1.40926,-5.58414)">
                <path d="M24.96,12.05C24.96,10.55 23.75,9.34 22.26,9.34C20.77,9.34 19.56,10.55 19.56,12.04L19.56,12.05L24.96,12.05Z" style="fill:url(#_Radial38);fill-rule:nonzero;"/>
            </g>
            <g transform="matrix(1.1119,0,0,1.1119,-1.40926,-5.58414)">
                <path d="M21.14,14.34C20.86,14.34 20.64,14.12 20.64,13.84L20.64,13.44C20.64,13.16 20.86,12.94 21.14,12.94C21.42,12.94 21.64,13.16 21.64,13.44L21.64,13.85C21.64,14.12 21.42,14.34 21.14,14.34Z" style="fill:url(#_Linear39);fill-rule:nonzero;"/>
            </g>
            <g transform="matrix(1.1119,0,0,1.1119,-1.40926,-5.58414)">
                <path d="M21.14,14.34C20.86,14.34 20.64,14.12 20.64,13.84L20.64,13.44C20.64,13.16 20.86,12.94 21.14,12.94C21.42,12.94 21.64,13.16 21.64,13.44L21.64,13.85C21.64,14.12 21.42,14.34 21.14,14.34Z" style="fill:url(#_Radial40);fill-rule:nonzero;"/>
            </g>
            <g transform="matrix(1.1119,0,0,1.1119,-1.40926,-5.58414)">
                <path d="M23.39,14.34C23.11,14.34 22.89,14.12 22.89,13.84L22.89,13.44C22.89,13.16 23.11,12.94 23.39,12.94C23.67,12.94 23.89,13.16 23.89,13.44L23.89,13.85C23.89,14.12 23.67,14.34 23.39,14.34Z" style="fill:url(#_Linear41);fill-rule:nonzero;"/>
            </g>
            <g transform="matrix(1.1119,0,0,1.1119,-1.40926,-5.58414)">
                <path d="M23.39,14.34C23.11,14.34 22.89,14.12 22.89,13.84L22.89,13.44C22.89,13.16 23.11,12.94 23.39,12.94C23.67,12.94 23.89,13.16 23.89,13.44L23.89,13.85C23.89,14.12 23.67,14.34 23.39,14.34Z" style="fill:url(#_Radial42);fill-rule:nonzero;"/>
            </g>
        </g>
    </g>
    <defs>
        <linearGradient id="_Linear1" x1="0" y1="0" x2="1" y2="0" gradientUnits="userSpaceOnUse" gradientTransform="matrix(8,0,0,8,17.5968,24.9608)"><stop offset="0" style="stop-color:rgb(128,76,219);stop-opacity:1"/><stop offset="1" style="stop-color:rgb(145,93,236);stop-opacity:1"/></linearGradient>
        <radialGradient id="_Radial2" cx="0" cy="0" r="1" gradientUnits="userSpaceOnUse" gradientTransform="matrix(1.58178,4.03103,-7.49501,2.94105,18.5293,13.77)"><stop offset="0" style="stop-color:rgb(123,89,181);stop-opacity:1"/><stop offset="1" style="stop-color:rgb(123,89,181);stop-opacity:0"/></radialGradient>
        <linearGradient id="_Linear3" x1="0" y1="0" x2="1" y2="0" gradientUnits="userSpaceOnUse" gradientTransform="matrix(2.8064,0,0,2.8064,16.0291,23.873)"><stop offset="0" style="stop-color:rgb(135,100,195);stop-opacity:1"/><stop offset="1" style="stop-color:rgb(135,100,195);stop-opacity:0"/></linearGradient>
        <radialGradient id="_Radial4" cx="0" cy="0" r="1" gradientUnits="userSpaceOnUse" gradientTransform="matrix(-2.52836,1.27977,-1.2033,-2.37729,22.0066,14.5469)"><stop offset="0" style="stop-color:rgb(94,49,171);stop-opacity:1"/><stop offset="0.64" style="stop-color:rgb(94,49,171);stop-opacity:1"/><stop offset="1" style="stop-color:rgb(94,49,171);stop-opacity:0"/></radialGradient>
        <linearGradient id="_Linear5" x1="0" y1="0" x2="1" y2="0" gradientUnits="userSpaceOnUse" gradientTransform="matrix(1.10984e-16,-1.8125,1.8125,1.10984e-16,22.6563,28.4063)"><stop offset="0" style="stop-color:rgb(91,43,173);stop-opacity:1"/><stop offset="1" style="stop-color:rgb(91,43,173);stop-opacity:0"/></linearGradient>
        <linearGradient id="_Linear6" x1="0" y1="0" x2="1" y2="0" gradientUnits="userSpaceOnUse" gradientTransform="matrix(-2.25,2.75546e-16,-2.75546e-16,-2.25,28.5938,24.3438)"><stop offset="0" style="stop-color:rgb(127,79,211);stop-opacity:1"/><stop offset="1" style="stop-color:rgb(127,79,211);stop-opacity:0"/></linearGradient>
        <radialGradient id="_Radial7" cx="0" cy="0" r="1" gradientUnits="userSpaceOnUse" gradientTransform="matrix(-1.70754e-15,4.46,-5.70418,-2.18388e-15,23.173,12.05)"><stop offset="0" style="stop-color:rgb(253,244,211);stop-opacity:1"/><stop offset="0.01" style="stop-color:rgb(253,244,211);stop-opacity:1"/><stop offset="1" style="stop-color:rgb(237,198,192);stop-opacity:1"/></radialGradient>
        <radialGradient id="_Radial8" cx="0" cy="0" r="1" gradientUnits="userSpaceOnUse" gradientTransform="matrix(-6.22142e-16,-1.625,1.71385,-6.56159e-16,23.2784,12.1563)"><stop offset="0" style="stop-color:rgb(118,108,130);stop-opacity:1"/><stop offset="1" style="stop-color:rgb(79,60,98);stop-opacity:1"/></radialGradient>
        <linearGradient id="_Linear9" x1="0" y1="0" x2="1" y2="0" gradientUnits="userSpaceOnUse" gradientTransform="matrix(1.26812e-17,-0.2071,0.2071,1.26812e-17,22.8582,12.0977)"><stop offset="0" style="stop-color:rgb(70,52,93);stop-opacity:1"/><stop offset="1" style="stop-color:rgb(70,52,93);stop-opacity:0"/></linearGradient>
        <radialGradient id="_Radial10" cx="0" cy="0" r="1" gradientUnits="userSpaceOnUse" gradientTransform="matrix(2.5625,0.382496,-0.897986,6.01598,19.1251,10.3125)"><stop offset="0" style="stop-color:rgb(112,104,122);stop-opacity:1"/><stop offset="1" style="stop-color:rgb(112,104,122);stop-opacity:0"/></radialGradient>
        <linearGradient id="_Linear11" x1="0" y1="0" x2="1" y2="0" gradientUnits="userSpaceOnUse" gradientTransform="matrix(8.62396e-17,1.4084,-1.4084,8.62396e-17,21.1374,12.9355)"><stop offset="0" style="stop-color:rgb(76,63,86);stop-opacity:1"/><stop offset="0.01" style="stop-color:rgb(76,63,86);stop-opacity:1"/><stop offset="1" style="stop-color:rgb(50,31,67);stop-opacity:1"/></linearGradient>
        <radialGradient id="_Radial12" cx="0" cy="0" r="1" gradientUnits="userSpaceOnUse" gradientTransform="matrix(-3.39384e-16,0.886451,-0.357204,-1.36758e-16,21.2816,13.2921)"><stop offset="0" style="stop-color:rgb(105,93,119);stop-opacity:1"/><stop offset="1" style="stop-color:rgb(105,93,119);stop-opacity:0"/></radialGradient>
        <linearGradient id="_Linear13" x1="0" y1="0" x2="1" y2="0" gradientUnits="userSpaceOnUse" gradientTransform="matrix(8.62396e-17,1.4084,-1.4084,8.62396e-17,23.3874,12.9355)"><stop offset="0" style="stop-color:rgb(76,63,86);stop-opacity:1"/><stop offset="0.01" style="stop-color:rgb(76,63,86);stop-opacity:1"/><stop offset="1" style="stop-color:rgb(50,31,67);stop-opacity:1"/></linearGradient>
        <radialGradient id="_Radial14" cx="0" cy="0" r="1" gradientUnits="userSpaceOnUse" gradientTransform="matrix(-3.39384e-16,0.886451,-0.357204,-1.36758e-16,23.5316,13.2921)"><stop offset="0" style="stop-color:rgb(105,93,119);stop-opacity:1"/><stop offset="1" style="stop-color:rgb(105,93,119);stop-opacity:0"/></radialGradient>
        <linearGradient id="_Linear15" x1="0" y1="0" x2="1" y2="0" gradientUnits="userSpaceOnUse" gradientTransform="matrix(8,0,0,8,17.5968,24.9608)"><stop offset="0" style="stop-color:rgb(219,76,102);stop-opacity:1"/><stop offset="1" style="stop-color:rgb(236,93,146);stop-opacity:1"/></linearGradient>
        <radialGradient id="_Radial16" cx="0" cy="0" r="1" gradientUnits="userSpaceOnUse" gradientTransform="matrix(1.58178,4.03103,-7.49501,2.94105,18.5293,13.77)"><stop offset="0" style="stop-color:rgb(181,89,101);stop-opacity:1"/><stop offset="1" style="stop-color:rgb(181,89,101);stop-opacity:0"/></radialGradient>
        <linearGradient id="_Linear17" x1="0" y1="0" x2="1" y2="0" gradientUnits="userSpaceOnUse" gradientTransform="matrix(2.8064,0,0,2.8064,16.0291,23.873)"><stop offset="0" style="stop-color:rgb(195,100,114);stop-opacity:1"/><stop offset="1" style="stop-color:rgb(195,100,114);stop-opacity:0"/></linearGradient>
        <radialGradient id="_Radial18" cx="0" cy="0" r="1" gradientUnits="userSpaceOnUse" gradientTransform="matrix(-2.52836,1.27977,-1.2033,-2.37729,22.0066,14.5469)"><stop offset="0" style="stop-color:rgb(171,49,64);stop-opacity:1"/><stop offset="0.64" style="stop-color:rgb(171,49,64);stop-opacity:1"/><stop offset="1" style="stop-color:rgb(171,49,64);stop-opacity:0"/></radialGradient>
        <linearGradient id="_Linear19" x1="0" y1="0" x2="1" y2="0" gradientUnits="userSpaceOnUse" gradientTransform="matrix(1.10984e-16,-1.8125,1.8125,1.10984e-16,22.6563,28.4063)"><stop offset="0" style="stop-color:rgb(173,43,98);stop-opacity:1"/><stop offset="1" style="stop-color:rgb(173,43,98);stop-opacity:0"/></linearGradient>
        <linearGradient id="_Linear20" x1="0" y1="0" x2="1" y2="0" gradientUnits="userSpaceOnUse" gradientTransform="matrix(-2.25,2.75546e-16,-2.75546e-16,-2.25,28.5938,24.3438)"><stop offset="0" style="stop-color:rgb(211,79,138);stop-opacity:1"/><stop offset="1" style="stop-color:rgb(211,79,138);stop-opacity:0"/></linearGradient>
        <radialGradient id="_Radial21" cx="0" cy="0" r="1" gradientUnits="userSpaceOnUse" gradientTransform="matrix(-1.70754e-15,4.46,-5.70418,-2.18388e-15,23.173,12.05)"><stop offset="0" style="stop-color:rgb(253,244,211);stop-opacity:1"/><stop offset="0.01" style="stop-color:rgb(253,244,211);stop-opacity:1"/><stop offset="1" style="stop-color:rgb(237,198,192);stop-opacity:1"/></radialGradient>
        <radialGradient id="_Radial22" cx="0" cy="0" r="1" gradientUnits="userSpaceOnUse" gradientTransform="matrix(-6.22142e-16,-1.625,1.71385,-6.56159e-16,23.2784,12.1563)"><stop offset="0" style="stop-color:rgb(118,108,130);stop-opacity:1"/><stop offset="1" style="stop-color:rgb(79,60,98);stop-opacity:1"/></radialGradient>
        <linearGradient id="_Linear23" x1="0" y1="0" x2="1" y2="0" gradientUnits="userSpaceOnUse" gradientTransform="matrix(1.26812e-17,-0.2071,0.2071,1.26812e-17,22.8582,12.0977)"><stop offset="0" style="stop-color:rgb(70,52,93);stop-opacity:1"/><stop offset="1" style="stop-color:rgb(70,52,93);stop-opacity:0"/></linearGradient>
        <radialGradient id="_Radial24" cx="0" cy="0" r="1" gradientUnits="userSpaceOnUse" gradientTransform="matrix(2.5625,0.382496,-0.897986,6.01598,19.1251,10.3125)"><stop offset="0" style="stop-color:rgb(112,104,122);stop-opacity:1"/><stop offset="1" style="stop-color:rgb(112,104,122);stop-opacity:0"/></radialGradient>
        <linearGradient id="_Linear25" x1="0" y1="0" x2="1" y2="0" gradientUnits="userSpaceOnUse" gradientTransform="matrix(8.62396e-17,1.4084,-1.4084,8.62396e-17,21.1374,12.9355)"><stop offset="0" style="stop-color:rgb(76,63,86);stop-opacity:1"/><stop offset="0.01" style="stop-color:rgb(76,63,86);stop-opacity:1"/><stop offset="1" style="stop-color:rgb(50,31,67);stop-opacity:1"/></linearGradient>
        <radialGradient id="_Radial26" cx="0" cy="0" r="1" gradientUnits="userSpaceOnUse" gradientTransform="matrix(-3.39384e-16,0.886451,-0.357204,-1.36758e-16,21.2816,13.2921)"><stop offset="0" style="stop-color:rgb(105,93,119);stop-opacity:1"/><stop offset="1" style="stop-color:rgb(105,93,119);stop-opacity:0"/></radialGradient>
        <linearGradient id="_Linear27" x1="0" y1="0" x2="1" y2="0" gradientUnits="userSpaceOnUse" gradientTransform="matrix(8.62396e-17,1.4084,-1.4084,8.62396e-17,23.3874,12.9355)"><stop offset="0" style="stop-color:rgb(76,63,86);stop-opacity:1"/><stop offset="0.01" style="stop-color:rgb(76,63,86);stop-opacity:1"/><stop offset="1" style="stop-color:rgb(50,31,67);stop-opacity:1"/></linearGradient>
        <radialGradient id="_Radial28" cx="0" cy="0" r="1" gradientUnits="userSpaceOnUse" gradientTransform="matrix(-3.39384e-16,0.886451,-0.357204,-1.36758e-16,23.5316,13.2921)"><stop offset="0" style="stop-color:rgb(105,93,119);stop-opacity:1"/><stop offset="1" style="stop-color:rgb(105,93,119);stop-opacity:0"/></radialGradient>
        <linearGradient id="_Linear29" x1="0" y1="0" x2="1" y2="0" gradientUnits="userSpaceOnUse" gradientTransform="matrix(8,0,0,8,17.5968,24.9608)"><stop offset="0" style="stop-color:rgb(26,127,71);stop-opacity:1"/><stop offset="1" style="stop-color:rgb(18,152,78);stop-opacity:1"/></linearGradient>
        <radialGradient id="_Radial30" cx="0" cy="0" r="1" gradientUnits="userSpaceOnUse" gradientTransform="matrix(1.58178,4.03103,-7.49501,2.94105,18.5293,13.77)"><stop offset="0" style="stop-color:rgb(89,181,130);stop-opacity:1"/><stop offset="1" style="stop-color:rgb(89,181,130);stop-opacity:0"/></radialGradient>
        <linearGradient id="_Linear31" x1="0" y1="0" x2="1" y2="0" gradientUnits="userSpaceOnUse" gradientTransform="matrix(2.8064,0,0,2.8064,16.0291,23.873)"><stop offset="0" style="stop-color:rgb(54,139,92);stop-opacity:1"/><stop offset="1" style="stop-color:rgb(62,159,106);stop-opacity:0"/></linearGradient>
        <radialGradient id="_Radial32" cx="0" cy="0" r="1" gradientUnits="userSpaceOnUse" gradientTransform="matrix(-2.52836,1.27977,-1.2033,-2.37729,22.0066,14.5469)"><stop offset="0" style="stop-color:rgb(49,171,104);stop-opacity:1"/><stop offset="0.64" style="stop-color:rgb(49,171,104);stop-opacity:1"/><stop offset="1" style="stop-color:rgb(49,171,104);stop-opacity:0"/></radialGradient>
        <linearGradient id="_Linear33" x1="0" y1="0" x2="1" y2="0" gradientUnits="userSpaceOnUse" gradientTransform="matrix(1.10984e-16,-1.8125,1.8125,1.10984e-16,22.6563,28.4063)"><stop offset="0" style="stop-color:rgb(43,173,102);stop-opacity:1"/><stop offset="1" style="stop-color:rgb(43,173,102);stop-opacity:0"/></linearGradient>
        <linearGradient id="_Linear34" x1="0" y1="0" x2="1" y2="0" gradientUnits="userSpaceOnUse" gradientTransform="matrix(-2.25,2.75546e-16,-2.75546e-16,-2.25,28.5938,24.3438)"><stop offset="0" style="stop-color:rgb(39,156,92);stop-opacity:1"/><stop offset="1" style="stop-color:rgb(41,162,95);stop-opacity:0"/></linearGradient>
        <radialGradient id="_Radial35" cx="0" cy="0" r="1" gradientUnits="userSpaceOnUse" gradientTransform="matrix(-1.70754e-15,4.46,-5.70418,-2.18388e-15,23.173,12.05)"><stop offset="0" style="stop-color:rgb(253,244,211);stop-opacity:1"/><stop offset="0.01" style="stop-color:rgb(253,244,211);stop-opacity:1"/><stop offset="1" style="stop-color:rgb(237,198,192);stop-opacity:1"/></radialGradient>
        <radialGradient id="_Radial36" cx="0" cy="0" r="1" gradientUnits="userSpaceOnUse" gradientTransform="matrix(-6.22142e-16,-1.625,1.71385,-6.56159e-16,23.2784,12.1563)"><stop offset="0" style="stop-color:rgb(118,108,130);stop-opacity:1"/><stop offset="1" style="stop-color:rgb(79,60,98);stop-opacity:1"/></radialGradient>
        <linearGradient id="_Linear37" x1="0" y1="0" x2="1" y2="0" gradientUnits="userSpaceOnUse" gradientTransform="matrix(1.26812e-17,-0.2071,0.2071,1.26812e-17,22.8582,12.0977)"><stop offset="0" style="stop-color:rgb(70,52,93);stop-opacity:1"/><stop offset="1" style="stop-color:rgb(70,52,93);stop-opacity:0"/></linearGradient>
        <radialGradient id="_Radial38" cx="0" cy="0" r="1" gradientUnits="userSpaceOnUse" gradientTransform="matrix(2.5625,0.382496,-0.897986,6.01598,19.1251,10.3125)"><stop offset="0" style="stop-color:rgb(112,104,122);stop-opacity:1"/><stop offset="1" style="stop-color:rgb(112,104,122);stop-opacity:0"/></radialGradient>
        <linearGradient id="_Linear39" x1="0" y1="0" x2="1" y2="0" gradientUnits="userSpaceOnUse" gradientTransform="matrix(8.62396e-17,1.4084,-1.4084,8.62396e-17,21.1374,12.9355)"><stop offset="0" style="stop-color:rgb(76,63,86);stop-opacity:1"/><stop offset="0.01" style="stop-color:rgb(76,63,86);stop-opacity:1"/><stop offset="1" style="stop-color:rgb(50,31,67);stop-opacity:1"/></linearGradient>
        <radialGradient id="_Radial40" cx="0" cy="0" r="1" gradientUnits="userSpaceOnUse" gradientTransform="matrix(-3.39384e-16,0.886451,-0.357204,-1.36758e-16,21.2816,13.2921)"><stop offset="0" style="stop-color:rgb(105,93,119);stop-opacity:1"/><stop offset="1" style="stop-color:rgb(105,93,119);stop-opacity:0"/></radialGradient>
        <linearGradient id="_Linear41" x1="0" y1="0" x2="1" y2="0" gradientUnits="userSpaceOnUse" gradientTransform="matrix(8.62396e-17,1.4084,-1.4084,8.62396e-17,23.3874,12.9355)"><stop offset="0" style="stop-color:rgb(76,63,86);stop-opacity:1"/><stop offset="0.01" style="stop-color:rgb(76,63,86);stop-opacity:1"/><stop offset="1" style="stop-color:rgb(50,31,67);stop-opacity:1"/></linearGradient>
        <radialGradient id="_Radial42" cx="0" cy="0" r="1" gradientUnits="userSpaceOnUse" gradientTransform="matrix(-3.39384e-16,0.886451,-0.357204,-1.36758e-16,23.5316,13.2921)"><stop offset="0" style="stop-color:rgb(105,93,119);stop-opacity:1"/><stop offset="1" style="stop-color:rgb(105,93,119);stop-opacity:0"/></radialGradient>
    </defs>
</svg>
