<?xml version="1.0" encoding="UTF-8" standalone="no"?><!DOCTYPE svg PUBLIC "-//W3C//DTD SVG 1.1//EN" "http://www.w3.org/Graphics/SVG/1.1/DTD/svg11.dtd">
<svg width="100%" height="100%" viewBox="0 0 32 32" version="1.1" xmlns="http://www.w3.org/2000/svg"
     xml:space="preserve"
     style="fill-rule:evenodd;clip-rule:evenodd;stroke-linejoin:round;stroke-miterlimit:2;"><path d="M20.74,29.96l-9.28,0c-4.02,0 -7.29,-3.26 -7.29,-7.29l-0,-2.88l23.85,-0l-0,2.88c0.01,4.03 -3.25,7.29 -7.28,7.29Z" style="fill:url(#_Linear1);fill-rule:nonzero;"/><path d="M20.74,29.96l-9.28,0c-4.02,0 -7.29,-3.26 -7.29,-7.29l-0,-2.88l23.85,-0l-0,2.88c0.01,4.03 -3.25,7.29 -7.28,7.29Z" style="fill:url(#_Radial2);fill-rule:nonzero;"/><path d="M22.02,11.06l-12,0c-4.43,0 -8.02,3.59 -8.02,8.02c0,4.43 3.59,8.02 8.02,8.02l12,0c4.43,0 8.02,-3.59 8.02,-8.02c0,-4.43 -3.59,-8.02 -8.02,-8.02Z" style="fill:url(#_Linear3);fill-rule:nonzero;"/><path d="M22.02,11.06l-12,0c-4.43,0 -8.02,3.59 -8.02,8.02c0,4.43 3.59,8.02 8.02,8.02l12,0c4.43,0 8.02,-3.59 8.02,-8.02c0,-4.43 -3.59,-8.02 -8.02,-8.02Z" style="fill:url(#_Radial4);fill-rule:nonzero;"/><path d="M22.02,11.06l-12,0c-4.43,0 -8.02,3.59 -8.02,8.02c0,4.43 3.59,8.02 8.02,8.02l12,0c4.43,0 8.02,-3.59 8.02,-8.02c0,-4.43 -3.59,-8.02 -8.02,-8.02Z" style="fill:url(#_Radial5);fill-rule:nonzero;"/><path d="M22.02,11.06l-12,0c-4.43,0 -8.02,3.59 -8.02,8.02c0,4.43 3.59,8.02 8.02,8.02l12,0c4.43,0 8.02,-3.59 8.02,-8.02c0,-4.43 -3.59,-8.02 -8.02,-8.02Z" style="fill:url(#_Radial6);fill-rule:nonzero;"/><path d="M22.02,11.06l-12,0c-4.43,0 -8.02,3.59 -8.02,8.02c0,4.43 3.59,8.02 8.02,8.02l12,0c4.43,0 8.02,-3.59 8.02,-8.02c0,-4.43 -3.59,-8.02 -8.02,-8.02Z" style="fill:url(#_Radial7);fill-rule:nonzero;"/><path d="M22.02,13.28c3.2,-0 5.8,2.6 5.8,5.8c0,3.2 -2.6,5.8 -5.8,5.8l-12,-0c-3.2,-0 -5.8,-2.6 -5.8,-5.8c-0,-3.2 2.6,-5.8 5.8,-5.8l12,-0" style="fill:url(#_Linear8);fill-rule:nonzero;"/><path d="M22.02,13.28c3.2,-0 5.8,2.6 5.8,5.8c0,3.2 -2.6,5.8 -5.8,5.8l-12,-0c-3.2,-0 -5.8,-2.6 -5.8,-5.8c-0,-3.2 2.6,-5.8 5.8,-5.8l12,-0" style="fill:url(#_Radial9);fill-rule:nonzero;"/><g><path d="M5.088,15.54c-0.353,1.16 0.392,2.32 1.613,2.32l11.651,0c1.22,0 2.118,-1.17 1.755,-2.32c-0,0 -12.779,-7.199 -15.019,0Z" style="fill:url(#_Linear10);fill-rule:nonzero;"/></g><path d="M13.31,10c-3.54,0 -6.53,2.33 -7.52,5.54c-0.35,1.16 0.53,2.32 1.74,2.32l11.55,0c1.21,0 2.1,-1.17 1.74,-2.32c-0.99,-3.21 -3.98,-5.54 -7.51,-5.54Z" style="fill:#efebf4;fill-rule:nonzero;"/><path d="M13.31,10c-3.54,0 -6.53,2.33 -7.52,5.54c-0.35,1.16 0.53,2.32 1.74,2.32l11.55,0c1.21,0 2.1,-1.17 1.74,-2.32c-0.99,-3.21 -3.98,-5.54 -7.51,-5.54Z" style="fill:url(#_Radial11);fill-rule:nonzero;"/><path d="M13.31,10c-3.54,0 -6.53,2.33 -7.52,5.54c-0.35,1.16 0.53,2.32 1.74,2.32l11.55,0c1.21,0 2.1,-1.17 1.74,-2.32c-0.99,-3.21 -3.98,-5.54 -7.51,-5.54Z" style="fill:url(#_Radial12);fill-rule:nonzero;"/><path d="M13.31,10c-3.54,0 -6.53,2.33 -7.52,5.54c-0.35,1.16 0.53,2.32 1.74,2.32l11.55,0c1.21,0 2.1,-1.17 1.74,-2.32c-0.99,-3.21 -3.98,-5.54 -7.51,-5.54Z" style="fill:url(#_Radial13);fill-rule:nonzero;"/><path d="M13.31,10c-3.54,0 -6.53,2.33 -7.52,5.54c-0.35,1.16 0.53,2.32 1.74,2.32l11.55,0c1.21,0 2.1,-1.17 1.74,-2.32c-0.99,-3.21 -3.98,-5.54 -7.51,-5.54Z" style="fill:url(#_Radial14);fill-rule:nonzero;"/><g><g><g><path d="M23.583,17.05c-0.99,-0 -2.06,0.616 -2.196,1.117c-0.039,0.142 -0.019,0.395 0.571,0.395l3.258,0c0.325,0 0.557,-0.099 0.514,-0.333c-0.133,-0.736 -1.156,-1.179 -2.147,-1.179Z" style="fill:#b31818;fill-rule:nonzero;"/></g><path d="M23.734,16.734c-1.021,0 -2.019,0.858 -2.159,1.399c-0.04,0.155 -0.019,0.429 0.589,0.429l3.36,0c0.336,0 0.574,-0.107 0.531,-0.361c-0.138,-0.797 -1.299,-1.467 -2.321,-1.467Z" style="fill:url(#_Linear15);fill-rule:nonzero;"/><path d="M23.734,16.734c-1.021,0 -2.019,0.858 -2.159,1.399c-0.04,0.155 -0.019,0.429 0.589,0.429l3.36,0c0.336,0 0.574,-0.107 0.531,-0.361c-0.138,-0.797 -1.299,-1.467 -2.321,-1.467Z" style="fill:url(#_Radial16);fill-rule:nonzero;"/><path d="M23.734,16.734c-1.021,0 -2.019,0.858 -2.159,1.399c-0.04,0.155 -0.019,0.429 0.589,0.429l3.36,0c0.336,0 0.574,-0.107 0.531,-0.361c-0.138,-0.797 -1.299,-1.467 -2.321,-1.467Z" style="fill:url(#_Radial17);fill-rule:nonzero;"/></g><path d="M23.983,17.727c0.413,-0.013 1.464,0.177 1.907,0.343c-0.4,-0.55 -1.469,-0.843 -2.016,-0.843c-0.313,-0 -0.303,0.512 0.109,0.5Z" style="fill:url(#_Linear18);fill-rule:nonzero;"/></g><g><g><g><path d="M20.912,22.305c-0.99,0 -2.06,0.617 -2.196,1.117c-0.039,0.143 -0.019,0.396 0.571,0.396l3.258,0c0.325,0 0.556,-0.099 0.514,-0.333c-0.133,-0.737 -1.157,-1.18 -2.147,-1.18Z" style="fill:#b31818;fill-rule:nonzero;"/></g><path d="M21.063,21.99c-1.022,0 -2.019,0.857 -2.159,1.399c-0.04,0.155 -0.02,0.429 0.588,0.429l3.361,0c0.335,0 0.574,-0.107 0.53,-0.361c-0.137,-0.798 -1.299,-1.467 -2.32,-1.467Z" style="fill:url(#_Linear19);fill-rule:nonzero;"/><path d="M21.063,21.99c-1.022,0 -2.019,0.857 -2.159,1.399c-0.04,0.155 -0.02,0.429 0.588,0.429l3.361,0c0.335,0 0.574,-0.107 0.53,-0.361c-0.137,-0.798 -1.299,-1.467 -2.32,-1.467Z" style="fill:url(#_Radial20);fill-rule:nonzero;"/><path d="M21.063,21.99c-1.022,0 -2.019,0.857 -2.159,1.399c-0.04,0.155 -0.02,0.429 0.588,0.429l3.361,0c0.335,0 0.574,-0.107 0.53,-0.361c-0.137,-0.798 -1.299,-1.467 -2.32,-1.467Z" style="fill:url(#_Radial21);fill-rule:nonzero;"/></g><path d="M21.312,22.982c0.412,-0.012 1.463,0.177 1.906,0.344c-0.4,-0.55 -1.469,-0.844 -2.016,-0.844c-0.312,0 -0.303,0.513 0.11,0.5Z" style="fill:url(#_Linear22);fill-rule:nonzero;"/></g><g><g><g><path d="M16.045,18.877c-0.99,0 -2.06,0.617 -2.196,1.117c-0.039,0.143 -0.019,0.396 0.571,0.396l3.258,0c0.325,0 0.557,-0.099 0.514,-0.333c-0.133,-0.737 -1.156,-1.18 -2.147,-1.18Z" style="fill:#b31818;fill-rule:nonzero;"/></g><path d="M16.196,18.562c-1.021,-0 -2.019,0.857 -2.159,1.399c-0.04,0.155 -0.019,0.429 0.589,0.429l3.36,0c0.336,0 0.574,-0.107 0.531,-0.361c-0.138,-0.798 -1.299,-1.467 -2.321,-1.467Z" style="fill:url(#_Linear23);fill-rule:nonzero;"/><path d="M16.196,18.562c-1.021,-0 -2.019,0.857 -2.159,1.399c-0.04,0.155 -0.019,0.429 0.589,0.429l3.36,0c0.336,0 0.574,-0.107 0.531,-0.361c-0.138,-0.798 -1.299,-1.467 -2.321,-1.467Z" style="fill:url(#_Radial24);fill-rule:nonzero;"/><path d="M16.196,18.562c-1.021,-0 -2.019,0.857 -2.159,1.399c-0.04,0.155 -0.019,0.429 0.589,0.429l3.36,0c0.336,0 0.574,-0.107 0.531,-0.361c-0.138,-0.798 -1.299,-1.467 -2.321,-1.467Z" style="fill:url(#_Radial25);fill-rule:nonzero;"/></g><path d="M16.445,19.554c0.413,-0.012 1.464,0.177 1.906,0.344c-0.4,-0.55 -1.468,-0.844 -2.015,-0.844c-0.313,0 -0.303,0.513 0.109,0.5Z" style="fill:url(#_Linear26);fill-rule:nonzero;"/></g><g><g><g><path d="M9.709,21.791c-0.99,0 -2.06,0.617 -2.196,1.117c-0.039,0.143 -0.019,0.396 0.571,0.396l3.258,0c0.325,0 0.557,-0.099 0.514,-0.333c-0.133,-0.737 -1.156,-1.18 -2.147,-1.18Z" style="fill:#b31818;fill-rule:nonzero;"/></g><path d="M9.86,21.476c-1.021,-0 -2.019,0.857 -2.159,1.399c-0.04,0.155 -0.019,0.429 0.589,0.429l3.36,0c0.336,0 0.574,-0.107 0.531,-0.361c-0.138,-0.798 -1.299,-1.467 -2.321,-1.467Z" style="fill:url(#_Linear27);fill-rule:nonzero;"/><path d="M9.86,21.476c-1.021,-0 -2.019,0.857 -2.159,1.399c-0.04,0.155 -0.019,0.429 0.589,0.429l3.36,0c0.336,0 0.574,-0.107 0.531,-0.361c-0.138,-0.798 -1.299,-1.467 -2.321,-1.467Z" style="fill:url(#_Radial28);fill-rule:nonzero;"/><path d="M9.86,21.476c-1.021,-0 -2.019,0.857 -2.159,1.399c-0.04,0.155 -0.019,0.429 0.589,0.429l3.36,0c0.336,0 0.574,-0.107 0.531,-0.361c-0.138,-0.798 -1.299,-1.467 -2.321,-1.467Z" style="fill:url(#_Radial29);fill-rule:nonzero;"/></g><path d="M10.109,22.468c0.413,-0.012 1.464,0.177 1.907,0.344c-0.4,-0.55 -1.469,-0.844 -2.016,-0.844c-0.313,0 -0.303,0.513 0.109,0.5Z" style="fill:url(#_Linear30);fill-rule:nonzero;"/></g><path d="M12.146,10.918c0.132,-0.086 0.309,-0.049 0.395,0.083l0.413,0.632c0.086,0.132 0.049,0.31 -0.083,0.396c-0.132,0.086 -0.309,0.049 -0.396,-0.083l-0.413,-0.632c-0.086,-0.132 -0.049,-0.31 0.084,-0.396Z" style="fill:#dcdadd;fill-rule:nonzero;"/><path d="M15.25,11.531c0.086,-0.132 0.264,-0.169 0.396,-0.082l0.749,0.478c0.132,0.087 0.168,0.264 0.082,0.396c-0.087,0.132 -0.265,0.168 -0.396,0.082l-0.75,-0.478c-0.131,-0.087 -0.168,-0.264 -0.081,-0.396Z" style="fill:#e3e1e4;fill-rule:nonzero;"/><path d="M12.719,13.281c0.135,-0.082 0.311,-0.039 0.393,0.095l0.436,0.693c0.082,0.135 0.04,0.311 -0.095,0.393c-0.135,0.082 -0.311,0.039 -0.393,-0.095l-0.436,-0.693c-0.083,-0.135 -0.04,-0.311 0.095,-0.393Z" style="fill:#dbd5df;fill-rule:nonzero;"/><path d="M16.227,13.758c0.151,0.046 0.236,0.206 0.19,0.357l-0.257,0.833c-0.046,0.151 -0.205,0.236 -0.356,0.19c-0.151,-0.046 -0.237,-0.205 -0.191,-0.357l0.257,-0.833c0.046,-0.151 0.205,-0.236 0.357,-0.19Z" style="fill:#d7d1da;fill-rule:nonzero;"/><path d="M15.033,15.857c0.059,0.147 -0.013,0.313 -0.16,0.372l-0.81,0.321c-0.147,0.058 -0.313,-0.013 -0.372,-0.16c-0.058,-0.147 0.013,-0.313 0.16,-0.372l0.811,-0.32c0.146,-0.059 0.313,0.013 0.371,0.159Z" style="fill:#c0abb3;fill-rule:nonzero;"/><path d="M18.352,14.933c0.157,-0.006 0.29,0.117 0.296,0.275l0.031,0.872c0.006,0.157 -0.117,0.29 -0.275,0.296c-0.158,0.006 -0.291,-0.117 -0.297,-0.275l-0.03,-0.871c-0.006,-0.158 0.117,-0.291 0.275,-0.297Z" style="fill:#d0c5ca;fill-rule:nonzero;"/><path d="M10.2,15.399c0.084,-0.133 0.261,-0.172 0.394,-0.087l0.734,0.471c0.133,0.085 0.172,0.262 0.087,0.395c-0.085,0.133 -0.262,0.172 -0.395,0.087l-0.733,-0.471c-0.133,-0.085 -0.173,-0.262 -0.088,-0.395Z" style="fill:#cdbbc5;fill-rule:nonzero;"/><path d="M11.541,18.68c0.262,0.149 0.325,0.322 0.374,0.385c0.109,0.144 0.086,0.425 -0.156,0.479c-0.395,0.089 -0.102,-0.35 -0.452,-0.542c-0.349,-0.191 -0.554,0.279 -0.706,-0.206c-0.062,-0.2 0.089,-0.295 0.213,-0.322c0.166,-0.036 0.529,0.094 0.727,0.206Z" style="fill:#662802;"/><path d="M8.035,19.881c0.262,0.148 0.325,0.321 0.374,0.385c0.109,0.143 0.086,0.424 -0.156,0.479c-0.395,0.089 -0.102,-0.351 -0.452,-0.542c-0.349,-0.192 -0.554,0.278 -0.706,-0.207c-0.062,-0.199 0.089,-0.294 0.213,-0.321c0.166,-0.036 0.529,0.093 0.727,0.206Z" style="fill:#662802;"/><path d="M5.383,18.961c0.227,-0.198 0.411,-0.201 0.488,-0.225c0.171,-0.056 0.429,0.058 0.4,0.305c-0.046,0.402 -0.365,-0.019 -0.661,0.247c-0.296,0.267 0.08,0.616 -0.428,0.599c-0.209,-0.008 -0.249,-0.182 -0.233,-0.308c0.021,-0.169 0.263,-0.468 0.434,-0.618Z" style="fill:#662802;"/><path d="M16.665,22.465c0.227,-0.199 0.411,-0.201 0.487,-0.226c0.171,-0.056 0.429,0.059 0.401,0.305c-0.047,0.402 -0.365,-0.019 -0.661,0.248c-0.296,0.266 0.08,0.615 -0.428,0.598c-0.209,-0.007 -0.249,-0.182 -0.234,-0.308c0.021,-0.168 0.263,-0.467 0.435,-0.617Z" style="fill:#662802;"/><path d="M12.736,23.383c0.227,-0.198 0.411,-0.201 0.487,-0.225c0.172,-0.056 0.429,0.058 0.401,0.305c-0.046,0.402 -0.365,-0.019 -0.661,0.247c-0.296,0.267 0.08,0.616 -0.428,0.599c-0.209,-0.007 -0.249,-0.182 -0.233,-0.308c0.021,-0.169 0.263,-0.468 0.434,-0.618Z" style="fill:#662802;"/><path d="M11.023,20.408c0.227,-0.199 0.411,-0.201 0.487,-0.226c0.171,-0.056 0.429,0.059 0.401,0.305c-0.047,0.402 -0.365,-0.019 -0.661,0.248c-0.297,0.266 0.079,0.615 -0.428,0.598c-0.209,-0.007 -0.249,-0.182 -0.234,-0.308c0.021,-0.168 0.263,-0.467 0.435,-0.617Z" style="fill:#662802;"/><path d="M14.241,21.532c0.255,0.162 0.308,0.338 0.353,0.404c0.102,0.149 0.064,0.429 -0.181,0.47c-0.398,0.068 -0.083,-0.355 -0.422,-0.565c-0.339,-0.21 -0.569,0.249 -0.694,-0.243c-0.052,-0.203 0.104,-0.29 0.23,-0.31c0.167,-0.028 0.522,0.121 0.714,0.244Z" style="fill:#662802;"/><path d="M21.353,20.43c0.227,-0.198 0.411,-0.201 0.488,-0.225c0.171,-0.056 0.429,0.058 0.4,0.305c-0.046,0.402 -0.365,-0.019 -0.661,0.247c-0.296,0.267 0.08,0.616 -0.428,0.599c-0.209,-0.007 -0.249,-0.182 -0.233,-0.308c0.021,-0.169 0.263,-0.468 0.434,-0.618Z" style="fill:#662802;"/><path d="M20.391,19.524c-0.257,0.157 -0.439,0.128 -0.518,0.14c-0.178,0.026 -0.413,-0.131 -0.343,-0.369c0.114,-0.388 0.356,0.081 0.693,-0.132c0.337,-0.212 0.026,-0.62 0.523,-0.517c0.205,0.043 0.215,0.221 0.178,0.343c-0.049,0.163 -0.338,0.416 -0.533,0.535Z" style="fill:#662802;"/><path d="M25.445,15.749c-0.257,0.157 -0.439,0.128 -0.519,0.139c-0.178,0.026 -0.412,-0.13 -0.343,-0.369c0.114,-0.388 0.357,0.081 0.694,-0.131c0.337,-0.212 0.026,-0.62 0.523,-0.517c0.205,0.042 0.214,0.221 0.178,0.343c-0.049,0.162 -0.339,0.416 -0.533,0.535Z" style="fill:#662802;"/><path d="M25.382,19.809c0.214,0.212 0.23,0.396 0.26,0.47c0.067,0.167 -0.029,0.432 -0.277,0.421c-0.404,-0.018 -0.006,-0.365 -0.293,-0.642c-0.287,-0.277 -0.608,0.123 -0.627,-0.385c-0.008,-0.209 0.164,-0.261 0.291,-0.254c0.169,0.009 0.484,0.229 0.646,0.39Z" style="fill:#662802;"/><path d="M23.141,15.072c0.26,0.152 0.32,0.326 0.368,0.391c0.107,0.145 0.079,0.426 -0.164,0.476c-0.396,0.083 -0.096,-0.352 -0.443,-0.549c-0.346,-0.197 -0.559,0.27 -0.703,-0.218c-0.059,-0.2 0.094,-0.293 0.219,-0.318c0.166,-0.033 0.526,0.102 0.723,0.218Z" style="fill:#662802;"/><path d="M10.492,12.2c0.154,0.034 0.252,0.186 0.219,0.34l-0.186,0.852c-0.033,0.154 -0.185,0.253 -0.339,0.219c-0.155,-0.033 -0.253,-0.185 -0.22,-0.339l0.186,-0.852c0.033,-0.155 0.185,-0.253 0.34,-0.22Z" style="fill:#d6d2d9;fill-rule:nonzero;"/><path d="M8.722,14.286c0.062,0.145 -0.006,0.313 -0.151,0.375l-0.804,0.338c-0.145,0.062 -0.313,-0.006 -0.375,-0.151c-0.061,-0.146 0.006,-0.314 0.152,-0.375l0.803,-0.339c0.146,-0.061 0.314,0.006 0.375,0.152Z" style="fill:#c3bec8;fill-rule:nonzero;"/><g><path d="M29.047,19.25c-0,-2.188 -0.656,-4.938 -2.563,-6.219c1.641,0.422 3.344,2.813 3.344,6.094c0,4.963 -3.344,7.156 -10.234,6.813c9,-0.813 9.453,-4.5 9.453,-6.688Z" style="fill:url(#_Radial31);fill-rule:nonzero;"/><path d="M29.047,19.25c-0,-2.188 -0.656,-4.938 -2.563,-6.219c1.641,0.422 3.344,2.813 3.344,6.094c0,4.963 -3.344,7.156 -10.234,6.813c9,-0.813 9.453,-4.5 9.453,-6.688Z" style="fill:url(#_Radial32);fill-rule:nonzero;"/></g><defs><linearGradient id="_Linear1" x1="0" y1="0" x2="1" y2="0" gradientUnits="userSpaceOnUse" gradientTransform="matrix(22.3125,0,0,22.3125,5.1875,26.25)"><stop offset="0" style="stop-color:#6f6a72;stop-opacity:1"/><stop offset="0.22" style="stop-color:#726681;stop-opacity:1"/><stop offset="0.53" style="stop-color:#8d7ea3;stop-opacity:1"/><stop offset="1" style="stop-color:#c4bbd1;stop-opacity:1"/></linearGradient><radialGradient id="_Radial2" cx="0" cy="0" r="1" gradientUnits="userSpaceOnUse" gradientTransform="matrix(-1.57927e-15,4.12496,-12.75,-4.88143e-15,18.5,24.875)"><stop offset="0" style="stop-color:#8d79a9;stop-opacity:1"/><stop offset="0.48" style="stop-color:#8d79a9;stop-opacity:1"/><stop offset="0.76" style="stop-color:#8e7aaa;stop-opacity:0"/><stop offset="1" style="stop-color:#8e7aaa;stop-opacity:0"/></radialGradient><linearGradient id="_Linear3" x1="0" y1="0" x2="1" y2="0" gradientUnits="userSpaceOnUse" gradientTransform="matrix(9.82167e-16,16.04,-16.04,9.82167e-16,16.02,11.0601)"><stop offset="0" style="stop-color:#b4b3b3;stop-opacity:1"/><stop offset="0.02" style="stop-color:#d3d1d2;stop-opacity:1"/><stop offset="0.65" style="stop-color:#dddbdd;stop-opacity:1"/><stop offset="0.91" style="stop-color:#d8d3df;stop-opacity:1"/><stop offset="0.96" style="stop-color:#c9beda;stop-opacity:1"/><stop offset="1" style="stop-color:#a28fbe;stop-opacity:1"/></linearGradient><radialGradient id="_Radial4" cx="0" cy="0" r="1" gradientUnits="userSpaceOnUse" gradientTransform="matrix(0.187501,11.4375,-17.467,0.286346,19.4375,18.0625)"><stop offset="0" style="stop-color:#888786;stop-opacity:0"/><stop offset="0.92" style="stop-color:#888786;stop-opacity:0"/><stop offset="1" style="stop-color:#8e8c8d;stop-opacity:1"/></radialGradient><radialGradient id="_Radial5" cx="0" cy="0" r="1" gradientUnits="userSpaceOnUse" gradientTransform="matrix(-0.125006,7.6875,-8.3465,-0.135722,9.1875,8.125)"><stop offset="0" style="stop-color:#847e80;stop-opacity:1"/><stop offset="1" style="stop-color:#a39fa2;stop-opacity:0"/></radialGradient><radialGradient id="_Radial6" cx="0" cy="0" r="1" gradientUnits="userSpaceOnUse" gradientTransform="matrix(-1.5,6.875,-8.08315,-1.7636,21.8125,18.25)"><stop offset="0" style="stop-color:#a69490;stop-opacity:1"/><stop offset="0.74" style="stop-color:#a69490;stop-opacity:1"/><stop offset="0.84" style="stop-color:#c1bec1;stop-opacity:1"/><stop offset="0.94" style="stop-color:#d0cfd1;stop-opacity:0"/><stop offset="1" style="stop-color:#d0cfd1;stop-opacity:0"/></radialGradient><radialGradient id="_Radial7" cx="0" cy="0" r="1" gradientUnits="userSpaceOnUse" gradientTransform="matrix(-0.312497,3.75,-11.7142,-0.976174,7.5625,28.1875)"><stop offset="0" style="stop-color:#a59ab7;stop-opacity:1"/><stop offset="0.86" style="stop-color:#a396b6;stop-opacity:0"/><stop offset="1" style="stop-color:#a396b6;stop-opacity:0"/></radialGradient><linearGradient id="_Linear8" x1="0" y1="0" x2="1" y2="0" gradientUnits="userSpaceOnUse" gradientTransform="matrix(24.655,-3.25,3.25,24.655,4.21997,19.6875)"><stop offset="0" style="stop-color:#2e1102;stop-opacity:1"/><stop offset="1" style="stop-color:#381800;stop-opacity:1"/></linearGradient><radialGradient id="_Radial9" cx="0" cy="0" r="1" gradientUnits="userSpaceOnUse" gradientTransform="matrix(0.125002,9.23247,-13.5273,0.18315,14.9375,19.08)"><stop offset="0" style="stop-color:#c54f2d;stop-opacity:0"/><stop offset="0.91" style="stop-color:#c54f2d;stop-opacity:0"/><stop offset="0.95" style="stop-color:#5e2715;stop-opacity:1"/><stop offset="1" style="stop-color:#562413;stop-opacity:1"/></radialGradient><linearGradient id="_Linear10" x1="0" y1="0" x2="1" y2="0" gradientUnits="userSpaceOnUse" gradientTransform="matrix(3.2338e-16,-5.2812,5.2812,3.2338e-16,9.4375,18.0937)"><stop offset="0" style="stop-color:#863b1f;stop-opacity:1"/><stop offset="0.31" style="stop-color:#863b1f;stop-opacity:1"/><stop offset="0.76" style="stop-color:#6b605d;stop-opacity:1"/><stop offset="1" style="stop-color:#6b605d;stop-opacity:1"/></linearGradient><radialGradient id="_Radial11" cx="0" cy="0" r="1" gradientUnits="userSpaceOnUse" gradientTransform="matrix(-2.24928e-15,5.875,-11.3526,-4.34642e-15,13.3066,16.8125)"><stop offset="0" style="stop-color:#e7ddea;stop-opacity:1"/><stop offset="1" style="stop-color:#e8e0ec;stop-opacity:0"/></radialGradient><radialGradient id="_Radial12" cx="0" cy="0" r="1" gradientUnits="userSpaceOnUse" gradientTransform="matrix(-0.0312524,3.34375,-17.5236,-0.163785,15.4687,18.0312)"><stop offset="0" style="stop-color:#c3867e;stop-opacity:1"/><stop offset="0.77" style="stop-color:#c38680;stop-opacity:0"/><stop offset="1" style="stop-color:#c38680;stop-opacity:0"/></radialGradient><radialGradient id="_Radial13" cx="0" cy="0" r="1" gradientUnits="userSpaceOnUse" gradientTransform="matrix(-17.6875,8.875,-7.52378,-14.9946,15.0625,18.625)"><stop offset="0" style="stop-color:#cbc9cb;stop-opacity:0"/><stop offset="0.48" style="stop-color:#cbc9cb;stop-opacity:0"/><stop offset="0.57" style="stop-color:#b3b1b2;stop-opacity:1"/><stop offset="1" style="stop-color:#b3b1b2;stop-opacity:1"/></radialGradient><radialGradient id="_Radial14" cx="0" cy="0" r="1" gradientUnits="userSpaceOnUse" gradientTransform="matrix(-1.8125,3.93,-8.61303,-3.9723,18.875,13.93)"><stop offset="0" style="stop-color:#fcfbfc;stop-opacity:1"/><stop offset="0.64" style="stop-color:#fcfbfc;stop-opacity:0"/><stop offset="1" style="stop-color:#fcfbfc;stop-opacity:0"/></radialGradient><linearGradient id="_Linear15" x1="0" y1="0" x2="1" y2="0" gradientUnits="userSpaceOnUse" gradientTransform="matrix(4.4974,0,0,4.4974,21.5625,18.5625)"><stop offset="0" style="stop-color:#a62323;stop-opacity:1"/><stop offset="0.51" style="stop-color:#e11700;stop-opacity:1"/><stop offset="1" style="stop-color:#8f0000;stop-opacity:1"/></linearGradient><radialGradient id="_Radial16" cx="0" cy="0" r="1" gradientUnits="userSpaceOnUse" gradientTransform="matrix(-0.03125,0.91014,-2.85843,-0.0981451,24.375,18.7381)"><stop offset="0" style="stop-color:#ac0000;stop-opacity:1"/><stop offset="0.37" style="stop-color:#9a0000;stop-opacity:1"/><stop offset="1" style="stop-color:#ff8826;stop-opacity:0"/></radialGradient><radialGradient id="_Radial17" cx="0" cy="0" r="1" gradientUnits="userSpaceOnUse" gradientTransform="matrix(0.718747,0.91406,-7.04644,5.54078,20.8438,17.6484)"><stop offset="0" style="stop-color:#c63333;stop-opacity:1"/><stop offset="0.42" style="stop-color:#c63d33;stop-opacity:1"/><stop offset="1" style="stop-color:#c78d34;stop-opacity:0"/></radialGradient><linearGradient id="_Linear18" x1="0" y1="0" x2="1" y2="0" gradientUnits="userSpaceOnUse" gradientTransform="matrix(-2.2812,-0.5156,0.5156,-2.2812,25.7958,17.7422)"><stop offset="0" style="stop-color:#ff7272;stop-opacity:1"/><stop offset="0.6" style="stop-color:#ff7272;stop-opacity:1"/><stop offset="1" style="stop-color:#fff16e;stop-opacity:0"/></linearGradient><linearGradient id="_Linear19" x1="0" y1="0" x2="1" y2="0" gradientUnits="userSpaceOnUse" gradientTransform="matrix(4.4974,0,0,4.4974,18.8911,23.8181)"><stop offset="0" style="stop-color:#a62323;stop-opacity:1"/><stop offset="0.51" style="stop-color:#e11700;stop-opacity:1"/><stop offset="1" style="stop-color:#8f0000;stop-opacity:1"/></linearGradient><radialGradient id="_Radial20" cx="0" cy="0" r="1" gradientUnits="userSpaceOnUse" gradientTransform="matrix(-0.03125,0.91014,-2.85843,-0.0981451,21.7036,23.9937)"><stop offset="0" style="stop-color:#ac0000;stop-opacity:1"/><stop offset="0.37" style="stop-color:#9a0000;stop-opacity:1"/><stop offset="1" style="stop-color:#ff8826;stop-opacity:0"/></radialGradient><radialGradient id="_Radial21" cx="0" cy="0" r="1" gradientUnits="userSpaceOnUse" gradientTransform="matrix(0.718747,0.91406,-7.04644,5.54078,18.1724,22.904)"><stop offset="0" style="stop-color:#c63333;stop-opacity:1"/><stop offset="0.42" style="stop-color:#c63d33;stop-opacity:1"/><stop offset="1" style="stop-color:#c78d34;stop-opacity:0"/></radialGradient><linearGradient id="_Linear22" x1="0" y1="0" x2="1" y2="0" gradientUnits="userSpaceOnUse" gradientTransform="matrix(-2.2812,-0.5156,0.5156,-2.2812,23.1244,22.9978)"><stop offset="0" style="stop-color:#ff7272;stop-opacity:1"/><stop offset="0.6" style="stop-color:#ff7272;stop-opacity:1"/><stop offset="1" style="stop-color:#fff16e;stop-opacity:0"/></linearGradient><linearGradient id="_Linear23" x1="0" y1="0" x2="1" y2="0" gradientUnits="userSpaceOnUse" gradientTransform="matrix(4.4974,0,0,4.4974,14.0244,20.39)"><stop offset="0" style="stop-color:#a62323;stop-opacity:1"/><stop offset="0.51" style="stop-color:#e11700;stop-opacity:1"/><stop offset="1" style="stop-color:#8f0000;stop-opacity:1"/></linearGradient><radialGradient id="_Radial24" cx="0" cy="0" r="1" gradientUnits="userSpaceOnUse" gradientTransform="matrix(-0.03125,0.91014,-2.85843,-0.0981451,16.8369,20.5656)"><stop offset="0" style="stop-color:#ac0000;stop-opacity:1"/><stop offset="0.37" style="stop-color:#9a0000;stop-opacity:1"/><stop offset="1" style="stop-color:#ff8826;stop-opacity:0"/></radialGradient><radialGradient id="_Radial25" cx="0" cy="0" r="1" gradientUnits="userSpaceOnUse" gradientTransform="matrix(0.718747,0.91406,-7.04644,5.54078,13.3057,19.4759)"><stop offset="0" style="stop-color:#c63333;stop-opacity:1"/><stop offset="0.42" style="stop-color:#c63d33;stop-opacity:1"/><stop offset="1" style="stop-color:#c78d34;stop-opacity:0"/></radialGradient><linearGradient id="_Linear26" x1="0" y1="0" x2="1" y2="0" gradientUnits="userSpaceOnUse" gradientTransform="matrix(-2.2812,-0.5156,0.5156,-2.2812,18.2577,19.5697)"><stop offset="0" style="stop-color:#ff7272;stop-opacity:1"/><stop offset="0.6" style="stop-color:#ff7272;stop-opacity:1"/><stop offset="1" style="stop-color:#fff16e;stop-opacity:0"/></linearGradient><linearGradient id="_Linear27" x1="0" y1="0" x2="1" y2="0" gradientUnits="userSpaceOnUse" gradientTransform="matrix(4.4974,0,0,4.4974,7.68843,23.3041)"><stop offset="0" style="stop-color:#a62323;stop-opacity:1"/><stop offset="0.51" style="stop-color:#e11700;stop-opacity:1"/><stop offset="1" style="stop-color:#8f0000;stop-opacity:1"/></linearGradient><radialGradient id="_Radial28" cx="0" cy="0" r="1" gradientUnits="userSpaceOnUse" gradientTransform="matrix(-0.03125,0.91014,-2.85843,-0.0981451,10.5009,23.4797)"><stop offset="0" style="stop-color:#ac0000;stop-opacity:1"/><stop offset="0.37" style="stop-color:#9a0000;stop-opacity:1"/><stop offset="1" style="stop-color:#ff8826;stop-opacity:0"/></radialGradient><radialGradient id="_Radial29" cx="0" cy="0" r="1" gradientUnits="userSpaceOnUse" gradientTransform="matrix(0.718747,0.91406,-7.04644,5.54078,6.96973,22.39)"><stop offset="0" style="stop-color:#c63333;stop-opacity:1"/><stop offset="0.42" style="stop-color:#c63d33;stop-opacity:1"/><stop offset="1" style="stop-color:#c78d34;stop-opacity:0"/></radialGradient><linearGradient id="_Linear30" x1="0" y1="0" x2="1" y2="0" gradientUnits="userSpaceOnUse" gradientTransform="matrix(-2.2812,-0.5156,0.5156,-2.2812,11.9217,22.4838)"><stop offset="0" style="stop-color:#ff7272;stop-opacity:1"/><stop offset="0.6" style="stop-color:#ff7272;stop-opacity:1"/><stop offset="1" style="stop-color:#fff16e;stop-opacity:0"/></linearGradient><radialGradient id="_Radial31" cx="0" cy="0" r="1" gradientUnits="userSpaceOnUse" gradientTransform="matrix(-4.31253,8.01561,-9.08093,-4.88569,29.125,19.2969)"><stop offset="0" style="stop-color:#fffeff;stop-opacity:1"/><stop offset="1" style="stop-color:#fdfbfe;stop-opacity:0"/></radialGradient><radialGradient id="_Radial32" cx="0" cy="0" r="1" gradientUnits="userSpaceOnUse" gradientTransform="matrix(-4.50002,3.06246,-2.2004,-3.23329,25.6875,24.3125)"><stop offset="0" style="stop-color:#fdfbff;stop-opacity:1"/><stop offset="1" style="stop-color:#fbf9ff;stop-opacity:0"/></radialGradient></defs></svg>
