<svg viewBox="0 0 600 723" xmlns="http://www.w3.org/2000/svg" fill-rule="evenodd" clip-rule="evenodd"
     stroke-linejoin="round" stroke-miterlimit="2" fill="red">
    <defs>
        <filter id="strong-inner">
            <feFlood flood-color="blue"/>

            <!-- This next operation subtracts the original shape from the red color
            field filling the filter region - which will give you a big color border
            surrounding the original shape -->
            <feComposite operator="out" in2="SourceGraphic" />

            <!-- Next we want to expand the red border so it overlaps the space of the
            original shape - the radius 4 below will expand it by 4 pixels -->

            <feMorphology operator="dilate" radius="4"/>
            <feGaussianBlur stdDeviation="5" />

            <!-- After blurring it, we want to select just the parts of the blurred,
            expanded border that overlap the original shape - which we can do by using
            the 'atop' operator -->

            <feComposite operator="atop" in2="SourceGraphic"/>
        </filter>
    </defs>
    <g filter="url(#strong-inner)">
        <path d="M903.919 643.067H761.997c-10.987 0-19.902 8.916-19.902 19.9 0 10.994 8.915 19.908 19.902 19.908h141.922c10.987 0 19.911-8.914 19.911-19.907.002-10.985-8.921-19.901-19.911-19.901zM796.413 759.072c2.699 17.865 17.962 31.622 36.594 31.622 18.613 0 33.911-13.751 36.599-31.622 24.363-1.438 43.725-21.46 43.725-46.182H752.588c0 24.737 19.418 44.773 43.825 46.182zM833.006 105.519c14.682 0 26.55-11.885 26.55-26.541V17.235c0-14.662-11.866-26.541-26.55-26.541-14.668 0-26.535 11.879-26.535 26.54v61.744c.002 14.656 11.868 26.54 26.535 26.54zM658.842 144.187c5.213 7.156 13.301 10.954 21.522 10.954a26.445 26.445 0 0015.568-5.07c11.849-8.606 14.493-25.202 5.887-37.06l-36.287-49.966c-8.629-11.847-25.192-14.517-37.082-5.885-11.845 8.602-14.489 25.202-5.883 37.059l36.275 49.968zM1007.13 533.24c-8.608-11.847-25.193-14.475-37.072-5.866-11.837 8.614-14.48 25.213-5.849 37.068l36.307 49.969c5.179 7.14 13.267 10.942 21.492 10.942a26.41 26.41 0 0015.567-5.068c11.847-8.618 14.488-25.22 5.864-37.077l-36.309-49.968zM594.215 233.214l-58.736-19.102c-14.073-4.535-28.914 3.096-33.454 17.04-4.541 13.93 3.085 28.91 17.025 33.446l58.736 19.102c2.743.88 5.488 1.31 8.208 1.31 11.196 0 21.588-7.128 25.247-18.351 4.539-13.93-3.085-28.912-17.026-33.445zM1146.946 412.82l-58.721-19.074c-13.952-4.5-28.906 3.108-33.438 17.039-4.54 13.943 3.108 28.917 17.046 33.45l58.736 19.074a26.448 26.448 0 008.189 1.307c11.194 0 21.586-7.14 25.244-18.347 4.529-13.95-3.107-28.913-17.056-33.448zM577.807 393.746l-58.757 19.049c-13.94 4.52-21.587 19.485-17.046 33.433 3.626 11.224 14.038 18.364 25.233 18.364 2.703 0 5.478-.433 8.2-1.314l58.746-19.047c13.952-4.524 21.597-19.491 17.059-33.433-4.507-13.934-19.365-21.554-33.435-17.052zM1080.033 285.01c2.724 0 5.465-.43 8.192-1.31l58.721-19.075c13.947-4.535 21.585-19.506 17.055-33.444-4.542-13.934-19.568-21.55-33.433-17.042l-58.736 19.073c-13.941 4.534-21.585 19.505-17.047 33.445 3.651 11.213 14.053 18.354 25.248 18.354zM658.878 533.23l-36.343 49.939c-8.629 11.857-6.006 28.456 5.864 37.075a26.285 26.285 0 0015.568 5.085c8.221 0 16.309-3.785 21.491-10.927l36.341-49.942c8.629-11.853 6.006-28.454-5.863-37.075-11.817-8.667-28.487-6.01-37.058 5.846zM1000.494 63.043l-36.287 49.967c-8.606 11.857-5.964 28.455 5.887 37.06a26.45 26.45 0 0015.567 5.069c8.221 0 16.307-3.796 21.51-10.954l36.286-49.97c8.605-11.856 5.962-28.456-5.888-37.058-11.917-8.654-28.446-5.987-37.075 5.886zM1024.693 339.695c0-105.888-85.832-191.725-191.707-191.725-105.895 0-191.729 85.837-191.729 191.725 0 44.667 15.362 85.683 41.027 118.244 22.49 28.536 43.789 59.687 62.248 91.035v63.684h175.819v-61.994c18.289-30.49 41.933-65.593 63.294-92.694 25.687-32.571 41.048-73.58 41.048-118.275z"
              transform="translate(-452.017 8.401) scale(.90278)"/>
    </g>
</svg>
