<?xml version="1.0" encoding="UTF-8" standalone="no"?>
<!DOCTYPE svg PUBLIC "-//W3C//DTD SVG 1.1//EN" "http://www.w3.org/Graphics/SVG/1.1/DTD/svg11.dtd">
<svg width="100%" height="100%" viewBox="0 0 100 51" version="1.1" xmlns="http://www.w3.org/2000/svg"
     xml:space="preserve"
     style="fill-rule:evenodd;clip-rule:evenodd;stroke-linejoin:round;stroke-miterlimit:2;">
    <g id="Ebene_x0020_1" transform="matrix(0.226098,0,0,0.226098,-7.45286e-05,0)">
        <g>
            <path d="M0.03,203.119C0.03,195.419 4.57,191.848 10.48,191.848C14.28,191.848 17.26,193.448 19,196.428C20.739,193.448 23.72,191.848 27.52,191.848C33.43,191.848 37.97,195.419 37.97,203.119L37.97,222.408L32.1,222.409L32.1,203.119C32.1,198.999 29.9,197.299 27.01,197.299C24.12,197.299 21.92,199.039 21.92,203.119L21.92,222.409L16.05,222.409L16.05,203.119C16.05,199.039 13.85,197.299 10.96,197.299C8.07,197.299 5.87,198.999 5.87,203.119L5.87,222.409L0,222.409L0,203.119L0.03,203.119L0.03,203.119Z" style="fill:rgb(10,10,10);"/>
            <path d="M50.28,204.869C50.28,196.849 54.86,191.859 63.329,191.859C71.809,191.859 76.479,196.849 76.479,204.869L76.479,222.419L70.619,222.419L70.619,213.439L56.01,213.439L56.01,222.419L50.28,222.419L50.28,204.869ZM70.619,208.119L70.619,204.869C70.619,200.059 68.239,197.309 63.29,197.309C58.39,197.309 56.01,200.059 56.01,204.869L56.01,208.119L70.619,208.119Z" style="fill:rgb(10,10,10);"/>
            <path d="M89.419,192.019L95.369,192.019L95.369,222.419L89.419,222.419L89.419,192.019Z" style="fill:rgb(10,10,10);"/>
            <path d="M108.619,192.019L123.169,192.019C128.929,192.019 131.949,195.319 131.949,199.919C131.949,202.989 130.509,205.358 127.999,206.609L127.999,206.699C131.349,207.769 133.349,210.559 133.349,214.179C133.349,218.919 130.279,222.409 124.379,222.409L108.619,222.409L108.619,192.019L108.619,192.019ZM122.419,204.329C124.879,204.329 126.049,202.839 126.049,200.939C126.049,198.989 125.119,197.549 122.379,197.549L114.569,197.549L114.569,204.338L122.419,204.338L122.419,204.329L122.419,204.329ZM123.349,216.929C126.139,216.929 127.249,215.299 127.249,213.309C127.249,211.259 125.859,209.639 123.389,209.639L114.559,209.638L114.559,216.938L123.349,216.938L123.349,216.929L123.349,216.929Z" style="fill:rgb(10,10,10);"/>
            <path d="M143.109,207.179C143.109,198.249 149.669,191.689 158.969,191.689C168.269,191.689 174.828,198.249 174.828,207.179C174.828,216.108 168.269,222.668 158.969,222.668C149.669,222.668 143.109,216.118 143.109,207.179ZM168.899,207.179C168.899,201.349 164.889,197.109 158.969,197.109C153.048,197.109 149.039,201.349 149.039,207.179C149.039,213.008 153.048,217.299 158.969,217.299C164.889,217.299 168.899,213.019 168.899,207.179Z" style="fill:rgb(10,10,10);"/>
            <path d="M187.139,192.019L199.878,192.019C207.598,192.019 210.988,196.249 210.988,202.059C210.988,206.849 208.708,210.149 204.618,211.499L212.098,222.418L205.028,222.418L198.568,212.149L193.079,212.149L193.079,222.418L187.129,222.418L187.129,192.018L187.139,192.018L187.139,192.019ZM199.959,206.609C203.719,206.609 204.978,204.659 204.978,202.059C204.978,199.459 203.718,197.549 199.959,197.549L193.079,197.549L193.079,206.609L199.959,206.609Z" style="fill:rgb(10,10,10);"/>
            <path d="M222.508,204.359C222.508,196.659 227.109,191.849 235.428,191.849C243.748,191.849 248.348,196.659 248.348,204.359L248.348,222.409L242.398,222.409L242.398,204.359C242.398,199.919 240.078,197.299 235.428,197.299C230.778,197.299 228.458,199.909 228.458,204.359L228.458,222.409L222.508,222.409L222.508,204.359Z" style="fill:rgb(10,10,10);"/>
            <path d="M260.818,211.329L260.818,192.019L266.688,192.019L266.688,211.329C266.688,215.459 268.888,217.159 271.778,217.159C274.668,217.159 276.868,215.419 276.868,211.329L276.868,192.019L282.738,192.019L282.738,211.329C282.738,215.409 284.938,217.159 287.828,217.159C290.718,217.159 292.918,215.459 292.918,211.329L292.918,192.019L298.788,192.019L298.788,211.329C298.788,219.039 294.248,222.609 288.328,222.609C284.518,222.609 281.538,220.999 279.798,218.019C278.058,220.999 275.068,222.609 271.268,222.609C265.358,222.609 260.818,219.039 260.818,211.329Z" style="fill:rgb(10,10,10);"/>
            <path d="M309.628,207.179C309.628,198.229 316.208,191.649 325.527,191.649C334.847,191.649 341.427,198.229 341.427,207.179C341.427,216.128 334.847,222.708 325.527,222.708C316.208,222.708 309.628,216.128 309.628,207.179ZM335.477,207.179C335.477,201.329 331.457,197.079 325.518,197.079C319.578,197.079 315.558,201.328 315.558,207.179C315.558,213.028 319.578,217.318 325.518,217.318C331.457,217.318 335.477,213.018 335.477,207.179Z" style="fill:rgb(10,10,10);"/>
            <path d="M353.648,192.019L359.597,192.019L359.597,216.929L375.497,216.929L375.497,222.419L353.648,222.419L353.648,192.019Z" style="fill:rgb(10,10,10);"/>
            <path d="M386.797,192.019L408.827,192.019L408.827,197.548L392.747,197.549L392.747,204.239L406.137,204.239L406.137,209.629L392.747,209.629L392.747,222.409L386.797,222.409L386.797,192.019Z" style="fill:rgb(10,10,10);"/>
            <path d="M420.257,192.019L442.287,192.019L442.287,197.548L426.207,197.549L426.207,204.239L439.597,204.239L439.597,209.629L426.207,209.629L426.207,222.409L420.257,222.409L420.257,192.019Z" style="fill:rgb(10,10,10);"/>
            <g id="_2564683870528">
                <g>
                    <path d="M199.749,49.33L199.758,49.33C199.848,32.53 208.298,17.72 221.158,8.81C213.158,3.27 203.458,0.001 192.988,0.001C165.689,0.001 143.559,22.06 143.419,49.33L143.409,49.33L143.409,136.799L186.229,136.8L186.229,49.58C186.229,45.85 189.259,42.82 192.989,42.82C196.719,42.82 199.739,45.84 199.749,49.56L199.749,49.33Z" style="fill:url(#_Linear1);"/>
                </g>
                <path d="M298.888,49.33C298.748,22.07 276.618,0 249.318,0C222.018,0 199.888,22.06 199.748,49.33L199.739,49.33L199.739,136.799L242.558,136.799L242.558,49.56C242.558,46.94 243.998,44.44 246.408,43.42C251.338,41.34 256.078,44.9 256.078,49.57L256.078,136.789L298.897,136.789L298.897,49.32L298.888,49.32L298.888,49.33L298.888,49.33Z" style="fill:url(#_Linear2);"/>
            </g>
        </g>
    </g>
    <defs>
        <linearGradient id="_Linear1" x1="0" y1="0" x2="1" y2="0" gradientUnits="userSpaceOnUse" gradientTransform="matrix(53.9998,13,-13,53.9998,143.849,61.1899)"><stop offset="0" style="stop-color:rgb(255,44,164);stop-opacity:1"/><stop offset="0.25" style="stop-color:rgb(255,33,157);stop-opacity:1"/><stop offset="0.68" style="stop-color:rgb(255,2,140);stop-opacity:1"/><stop offset="1" style="stop-color:rgb(255,0,139);stop-opacity:1"/></linearGradient>
        <linearGradient id="_Linear2" x1="0" y1="0" x2="1" y2="0" gradientUnits="userSpaceOnUse" gradientTransform="matrix(96.9992,0,0,96.9992,202.848,68.1897)"><stop offset="0" style="stop-color:rgb(55,212,255);stop-opacity:1"/><stop offset="0.15" style="stop-color:rgb(49,217,236);stop-opacity:1"/><stop offset="0.43" style="stop-color:rgb(34,228,188);stop-opacity:1"/><stop offset="0.84" style="stop-color:rgb(10,247,112);stop-opacity:1"/><stop offset="1" style="stop-color:rgb(0,255,79);stop-opacity:1"/></linearGradient>
    </defs>
</svg>
