<svg width="899" height="891" viewBox="0 0 899 891" fill="none" xmlns="http://www.w3.org/2000/svg">
<g filter="url(#filter0_f_103_332)">
<path d="M230.317 327.42C161.662 290.976 229.515 260.552 272.024 249.895C305.977 253.092 388.32 250.215 446.068 213.131C518.252 166.776 610.829 261.272 658.952 361.175C707.075 461.079 732.566 626.981 601.833 680.53C471.099 734.078 333.101 545.811 289.336 484.27C217.903 383.821 316.136 372.976 230.317 327.42Z" fill="#00F0FF" fill-opacity="0.3"/>
<path d="M230.317 327.42C161.662 290.976 229.515 260.552 272.024 249.895C305.977 253.092 388.32 250.215 446.068 213.131C518.252 166.776 610.829 261.272 658.952 361.175C707.075 461.079 732.566 626.981 601.833 680.53C471.099 734.078 333.101 545.811 289.336 484.27C217.903 383.821 316.136 372.976 230.317 327.42Z" fill="black" fill-opacity="0.2"/>
<path d="M230.317 327.42C161.662 290.976 229.515 260.552 272.024 249.895C305.977 253.092 388.32 250.215 446.068 213.131C518.252 166.776 610.829 261.272 658.952 361.175C707.075 461.079 732.566 626.981 601.833 680.53C471.099 734.078 333.101 545.811 289.336 484.27C217.903 383.821 316.136 372.976 230.317 327.42Z" stroke="black"/>
</g>
<defs>
<filter id="filter0_f_103_332" x="0.499023" y="0.498413" width="898.001" height="890.003" filterUnits="userSpaceOnUse" color-interpolation-filters="sRGB">
<feFlood flood-opacity="0" result="BackgroundImageFix"/>
<feBlend mode="normal" in="SourceGraphic" in2="BackgroundImageFix" result="shape"/>
<feGaussianBlur stdDeviation="100" result="effect1_foregroundBlur_103_332"/>
</filter>
</defs>
</svg>
