<svg width="1477" height="1526" viewBox="0 0 1477 1526" fill="none" xmlns="http://www.w3.org/2000/svg">
<g filter="url(#filter0_f_123_154)">
<path d="M524.577 750.15C447.308 703.27 580.64 583.301 628.482 569.594C676.323 555.886 762.199 472.053 831.805 511.428C879.645 538.491 842.678 621.641 896.838 750.15C950.999 878.658 1043.97 836.781 896.838 905.662C749.702 974.542 782.428 1049.09 699.121 1017.55C441.977 920.203 621.163 808.749 524.577 750.15Z" fill="#0066FF" fill-opacity="0.5"/>
<path d="M524.577 750.15C447.308 703.27 580.64 583.301 628.482 569.594C676.323 555.886 762.199 472.053 831.805 511.428C879.645 538.491 842.678 621.641 896.838 750.15C950.999 878.658 1043.97 836.781 896.838 905.662C749.702 974.542 782.428 1049.09 699.121 1017.55C441.977 920.203 621.163 808.749 524.577 750.15Z" fill="black" fill-opacity="0.2"/>
<path d="M524.577 750.15C447.308 703.27 580.64 583.301 628.482 569.594C676.323 555.886 762.199 472.053 831.805 511.428C879.645 538.491 842.678 621.641 896.838 750.15C950.999 878.658 1043.97 836.781 896.838 905.662C749.702 974.542 782.428 1049.09 699.121 1017.55C441.977 920.203 621.163 808.749 524.577 750.15Z" stroke="black"/>
</g>
<defs>
<filter id="filter0_f_123_154" x="0.5" y="0.499634" width="1476" height="1525" filterUnits="userSpaceOnUse" color-interpolation-filters="sRGB">
<feFlood flood-opacity="0" result="BackgroundImageFix"/>
<feBlend mode="normal" in="SourceGraphic" in2="BackgroundImageFix" result="shape"/>
<feGaussianBlur stdDeviation="250" result="effect1_foregroundBlur_123_154"/>
</filter>
</defs>
</svg>
