<svg width="1477" height="1080" viewBox="0 0 1477 1080" fill="none" xmlns="http://www.w3.org/2000/svg">
<g filter="url(#filter0_f_108_165)">
<path d="M524.577 550.15C447.308 503.27 580.64 383.301 628.482 369.594C676.323 355.886 762.199 272.053 831.805 311.428C879.645 338.491 842.678 421.641 896.838 550.15C950.999 678.658 1043.97 636.781 896.838 705.662C749.702 774.542 782.428 849.087 699.121 817.55C441.977 720.203 621.163 608.749 524.577 550.15Z" fill="#0066FF" fill-opacity="0.5"/>
<path d="M524.577 550.15C447.308 503.27 580.64 383.301 628.482 369.594C676.323 355.886 762.199 272.053 831.805 311.428C879.645 338.491 842.678 421.641 896.838 550.15C950.999 678.658 1043.97 636.781 896.838 705.662C749.702 774.542 782.428 849.087 699.121 817.55C441.977 720.203 621.163 608.749 524.577 550.15Z" fill="black" fill-opacity="0.2"/>
<path d="M524.577 550.15C447.308 503.27 580.64 383.301 628.482 369.594C676.323 355.886 762.199 272.053 831.805 311.428C879.645 338.491 842.678 421.641 896.838 550.15C950.999 678.658 1043.97 636.781 896.838 705.662C749.702 774.542 782.428 849.087 699.121 817.55C441.977 720.203 621.163 608.749 524.577 550.15Z" stroke="black"/>
</g>
<defs>
<filter id="filter0_f_108_165" x="0.5" y="-199.5" width="1476" height="1525" filterUnits="userSpaceOnUse" color-interpolation-filters="sRGB">
<feFlood flood-opacity="0" result="BackgroundImageFix"/>
<feBlend mode="normal" in="SourceGraphic" in2="BackgroundImageFix" result="shape"/>
<feGaussianBlur stdDeviation="250" result="effect1_foregroundBlur_108_165"/>
</filter>
</defs>
</svg>
