<svg width="1004" height="944" viewBox="0 0 1004 944" fill="none" xmlns="http://www.w3.org/2000/svg">
<g filter="url(#filter0_f_103_331)">
<path d="M240.309 368.372C148.256 319.381 239.233 278.484 296.228 264.159C341.753 268.456 452.159 264.589 529.587 214.738C626.371 152.425 724.231 314.654 788.754 448.95C853.277 583.246 687.668 661.674 512.381 733.657C337.093 805.639 563.999 436.057 405.918 499.445C247.837 562.833 355.374 429.611 240.309 368.372Z" fill="#8F00FF" fill-opacity="0.3"/>
<path d="M240.309 368.372C148.256 319.381 239.233 278.484 296.228 264.159C341.753 268.456 452.159 264.589 529.587 214.738C626.371 152.425 724.231 314.654 788.754 448.95C853.277 583.246 687.668 661.674 512.381 733.657C337.093 805.639 563.999 436.057 405.918 499.445C247.837 562.833 355.374 429.611 240.309 368.372Z" fill="black" fill-opacity="0.2"/>
<path d="M240.309 368.372C148.256 319.381 239.233 278.484 296.228 264.159C341.753 268.456 452.159 264.589 529.587 214.738C626.371 152.425 724.231 314.654 788.754 448.95C853.277 583.246 687.668 661.674 512.381 733.657C337.093 805.639 563.999 436.057 405.918 499.445C247.837 562.833 355.374 429.611 240.309 368.372Z" stroke="black"/>
</g>
<defs>
<filter id="filter0_f_103_331" x="0.499023" y="0.500046" width="1003" height="943" filterUnits="userSpaceOnUse" color-interpolation-filters="sRGB">
<feFlood flood-opacity="0" result="BackgroundImageFix"/>
<feBlend mode="normal" in="SourceGraphic" in2="BackgroundImageFix" result="shape"/>
<feGaussianBlur stdDeviation="100" result="effect1_foregroundBlur_103_331"/>
</filter>
</defs>
</svg>
