<svg width="100%" height="100%" viewBox="0 0 30 26" version="1.1" xmlns="http://www.w3.org/2000/svg"
     xml:space="preserve"
     style="fill-rule:evenodd;clip-rule:evenodd;stroke-linejoin:round;stroke-miterlimit:2;">
    <g transform="matrix(1,0,0,1,0,-3.27265)">
        <path d="M25.286,20.98C25.543,20.832 25.703,20.557 25.704,20.26L25.719,15.437C25.72,15.14 25.88,14.865 26.137,14.717L28.752,13.216C28.878,13.143 29.021,13.105 29.167,13.105C29.624,13.105 30,13.481 30,13.938L30,22.706C30,23.004 29.84,23.28 29.582,23.428L19.716,29.095C19.46,29.242 19.144,29.242 18.887,29.096L11.145,24.667C10.886,24.519 10.725,24.243 10.725,23.944L10.725,19.523C10.725,19.518 10.731,19.515 10.736,19.517C10.74,19.52 10.746,19.517 10.746,19.512L10.746,19.507C10.746,19.503 10.747,19.5 10.751,19.498L17.127,15.835C17.133,15.832 17.131,15.822 17.124,15.822C17.121,15.822 17.118,15.819 17.118,15.816L17.13,11.482C17.13,11.481 17.13,11.479 17.13,11.478C17.13,11.021 16.754,10.645 16.297,10.645C16.15,10.645 16.007,10.684 15.88,10.757L11.141,13.487C10.884,13.636 10.566,13.636 10.309,13.487L5.555,10.75C5.429,10.677 5.285,10.639 5.139,10.639C4.682,10.639 4.306,11.015 4.306,11.472L4.306,19.306C4.306,19.763 3.93,20.139 3.473,20.139C3.328,20.139 3.185,20.101 3.059,20.029L0.421,18.521C0.161,18.372 0,18.095 0.001,17.796L0.024,4.104C0.025,3.648 0.401,3.273 0.857,3.273C1.003,3.273 1.146,3.311 1.272,3.383L10.31,8.574C10.567,8.722 10.883,8.722 11.14,8.574L20.175,3.383C20.301,3.311 20.444,3.273 20.59,3.273C21.047,3.273 21.423,3.649 21.423,4.106C21.423,4.106 21.423,4.106 21.423,4.107L21.423,17.802C21.423,18.099 21.264,18.376 21.006,18.524L16.274,21.249C16.016,21.398 15.857,21.674 15.857,21.971C15.857,22.27 16.018,22.547 16.278,22.695L18.888,24.181C19.144,24.327 19.459,24.326 19.715,24.179L25.286,20.98ZM25.833,8.695C25.834,9.152 26.21,9.528 26.667,9.528C26.818,9.528 26.966,9.487 27.095,9.409L29.595,7.909C29.846,7.759 30,7.487 30,7.195L30,4.138C29.999,3.682 29.623,3.306 29.167,3.306C29.016,3.306 28.868,3.347 28.738,3.425L26.238,4.925C25.988,5.075 25.834,5.347 25.833,5.639L25.833,8.696L25.833,8.695Z" style="fill:rgb(0,127,255);"/>
    </g>
</svg>
