<svg xmlns="http://www.w3.org/2000/svg" height="24px" viewBox="0 0 24 24" width="24px" fill="#3D3D3D">
    <rect x="0" y="0" width="24" height="24" style="fill:none;fill-rule:nonzero;"/>
    <path d="M18,2C17.887,1.996 6,2 6,2C4.9,2 4.01,2.9 4.01,4L4,20C4,21.1 4.89,22 5.99,22L18,22C19.1,22 20,21.1 20,20C20,20 20.008,4.117 20,4C19.929,3.008 18.838,2.029 18,2ZM15,19L9,19L9,18L15,18L15,19ZM16,17L8,17L8,16L16,16L16,17ZM12,4.02C14.758,4.02 16.997,6.259 16.997,9.017C16.997,11.775 14.758,14.014 12,14.014C9.242,14.014 7.003,11.775 7.003,9.017C7.003,6.259 9.242,4.02 12,4.02Z" style="fill-rule:nonzero;"/>
    <path d="M11.024,9.5L13.324,9.5C13.203,11.344 12.415,12.632 12.174,12.985C11.934,12.632 11.145,11.344 11.024,9.5ZM10.014,9.5C10.099,10.963 10.561,12.13 10.939,12.858C9.401,12.435 8.233,11.117 8.031,9.5L10.014,9.5ZM14.335,9.5L15.969,9.5C15.786,10.966 14.808,12.187 13.481,12.716C13.843,11.983 14.255,10.872 14.335,9.5ZM10.927,5.146C10.345,6.349 10.082,7.48 10.017,8.5L8.031,8.5C8.232,6.887 9.395,5.572 10.927,5.146ZM13.488,5.286C14.812,5.818 15.786,7.037 15.969,8.5L14.332,8.5C14.269,7.52 14.024,6.437 13.488,5.286ZM12.132,5.002C12.161,5.003 12.19,5.004 12.218,5.006C12.935,6.267 13.246,7.45 13.321,8.5L11.027,8.5C11.103,7.449 11.414,6.266 12.132,5.002Z"/>
</svg>
