<?xml version="1.0" encoding="UTF-8" standalone="no"?><!DOCTYPE svg PUBLIC "-//W3C//DTD SVG 1.1//EN" "http://www.w3.org/Graphics/SVG/1.1/DTD/svg11.dtd"><svg width="100%" height="100%" viewBox="0 0 32 32" version="1.1" xmlns="http://www.w3.org/2000/svg" xmlns:xlink="http://www.w3.org/1999/xlink" xml:space="preserve" xmlns:serif="http://www.serif.com/" style="fill-rule:evenodd;clip-rule:evenodd;stroke-linejoin:round;stroke-miterlimit:2;"><g><path d="M10.582,13.718c1.2,-0.442 2.367,0.725 1.925,1.926l-2.618,7.114c-0.253,0.685 -1.13,0.878 -1.646,0.362l-5.138,-5.138c-0.516,-0.516 -0.323,-1.393 0.362,-1.645l7.114,-2.619Z" style="fill:url(#_Linear1);fill-rule:nonzero;"/><path d="M10.582,13.718c1.2,-0.442 2.367,0.725 1.925,1.926l-2.618,7.114c-0.253,0.685 -1.13,0.878 -1.646,0.362l-5.138,-5.138c-0.516,-0.516 -0.323,-1.393 0.362,-1.645l7.114,-2.619Z" style="fill:url(#_Radial2);fill-rule:nonzero;"/><path d="M10.582,13.718c1.2,-0.442 2.367,0.725 1.925,1.926l-2.618,7.114c-0.253,0.685 -1.13,0.878 -1.646,0.362l-5.138,-5.138c-0.516,-0.516 -0.323,-1.393 0.362,-1.645l7.114,-2.619Z" style="fill:url(#_Linear3);fill-rule:nonzero;"/><path d="M16.581,19.718c1.201,-0.442 2.368,0.725 1.926,1.926l-2.618,7.114c-0.253,0.685 -1.13,0.878 -1.646,0.362l-5.138,-5.138c-0.516,-0.516 -0.323,-1.393 0.362,-1.645l7.115,-2.619Z" style="fill:url(#_Linear4);fill-rule:nonzero;"/><path d="M16.581,19.718c1.201,-0.442 2.368,0.725 1.926,1.926l-2.618,7.114c-0.253,0.685 -1.13,0.878 -1.646,0.362l-5.138,-5.138c-0.516,-0.516 -0.323,-1.393 0.362,-1.645l7.115,-2.619Z" style="fill:url(#_Radial5);fill-rule:nonzero;"/><path d="M16.581,19.718c1.201,-0.442 2.368,0.725 1.926,1.926l-2.618,7.114c-0.253,0.685 -1.13,0.878 -1.646,0.362l-5.138,-5.138c-0.516,-0.516 -0.323,-1.393 0.362,-1.645l7.115,-2.619Z" style="fill:url(#_Radial6);fill-rule:nonzero;"/><g><path d="M22.399,3.551c0.056,-0.023 0.12,-0.01 0.162,0.033l5.886,5.931c0.043,0.042 0.056,0.106 0.033,0.161c-1.409,3.46 -3.353,7.14 -5.954,9.742c-2.534,2.534 -6.82,4.693 -10.69,6.281l-5.491,-5.491c1.588,-3.87 3.747,-8.156 6.281,-10.69c2.61,-2.61 6.304,-4.557 9.773,-5.967Z" style="fill:url(#_Linear7);fill-rule:nonzero;"/><path d="M22.399,3.551c0.056,-0.023 0.12,-0.01 0.162,0.033l5.886,5.931c0.043,0.042 0.056,0.106 0.033,0.161c-1.409,3.46 -3.353,7.14 -5.954,9.742c-2.534,2.534 -6.82,4.693 -10.69,6.281l-5.491,-5.491c1.588,-3.87 3.747,-8.156 6.281,-10.69c2.61,-2.61 6.304,-4.557 9.773,-5.967Z" style="fill:url(#_Radial8);fill-rule:nonzero;"/><path d="M22.399,3.551c0.056,-0.023 0.12,-0.01 0.162,0.033l5.886,5.931c0.043,0.042 0.056,0.106 0.033,0.161c-1.409,3.46 -3.353,7.14 -5.954,9.742c-2.534,2.534 -6.82,4.693 -10.69,6.281l-5.491,-5.491c1.588,-3.87 3.747,-8.156 6.281,-10.69c2.61,-2.61 6.304,-4.557 9.773,-5.967Z" style="fill:url(#_Radial9);fill-rule:nonzero;"/><path d="M22.399,3.551c0.056,-0.023 0.12,-0.01 0.162,0.033l5.886,5.931c0.043,0.042 0.056,0.106 0.033,0.161c-1.409,3.46 -3.353,7.14 -5.954,9.742c-2.534,2.534 -6.82,4.693 -10.69,6.281l-5.491,-5.491c1.588,-3.87 3.747,-8.156 6.281,-10.69c2.61,-2.61 6.304,-4.557 9.773,-5.967Z" style="fill:url(#_Radial10);fill-rule:nonzero;"/><path d="M22.399,3.551c0.056,-0.023 0.12,-0.01 0.162,0.033l5.886,5.931c0.043,0.042 0.056,0.106 0.033,0.161c-1.409,3.46 -3.353,7.14 -5.954,9.742c-2.534,2.534 -6.82,4.693 -10.69,6.281l-5.491,-5.491c1.588,-3.87 3.747,-8.156 6.281,-10.69c2.61,-2.61 6.304,-4.557 9.773,-5.967Z" style="fill:url(#_Radial11);fill-rule:nonzero;"/></g><g><path d="M24.5,11.062c0,1.856 -1.504,3.36 -3.359,3.36c-1.856,-0 -3.36,-1.504 -3.36,-3.36c0,-1.855 1.504,-3.359 3.36,-3.359c1.855,0 3.359,1.504 3.359,3.359Z" style="fill:url(#_Linear12);fill-rule:nonzero;"/><path d="M24.5,11.062c0,1.856 -1.504,3.36 -3.359,3.36c-1.856,-0 -3.36,-1.504 -3.36,-3.36c0,-1.855 1.504,-3.359 3.36,-3.359c1.855,0 3.359,1.504 3.359,3.359Z" style="fill:url(#_Radial13);fill-rule:nonzero;"/></g><path d="M23.466,11.062c0,1.285 -1.041,2.326 -2.325,2.326c-1.285,0 -2.326,-1.041 -2.326,-2.326c-0,-1.284 1.041,-2.325 2.326,-2.325c1.284,-0 2.325,1.041 2.325,2.325Z" style="fill:url(#_Radial14);fill-rule:nonzero;"/><g><path d="M2.423,29.533c-0.707,-0.707 -0.423,-5.611 2.077,-6.611c0,-0 2.5,-1 4.111,0.6c1.611,1.601 0.889,3.4 0.889,3.4c-0.707,2.121 -3.717,2.964 -4.071,2.611c-0.195,-0.196 0.156,-0.551 0,-0.707c-0.156,-0.157 -0.398,0.022 -1.061,0.353c-0.471,0.236 -1.662,0.636 -1.945,0.354Z" style="fill:url(#_Radial15);fill-rule:nonzero;"/><path d="M2.423,29.533c-0.707,-0.707 -0.423,-5.611 2.077,-6.611c0,-0 2.5,-1 4.111,0.6c1.611,1.601 0.889,3.4 0.889,3.4c-0.707,2.121 -3.717,2.964 -4.071,2.611c-0.195,-0.196 0.156,-0.551 0,-0.707c-0.156,-0.157 -0.398,0.022 -1.061,0.353c-0.471,0.236 -1.662,0.636 -1.945,0.354Z" style="fill:url(#_Radial16);fill-rule:nonzero;"/></g><path d="M6.061,20.982c0.585,-0.585 1.535,-0.585 2.121,0l3.535,3.536c0.586,0.586 0.586,1.535 0,2.121c-0.585,0.586 -1.535,0.586 -2.121,0l-3.535,-3.535c-0.586,-0.586 -0.586,-1.536 -0,-2.122Z" style="fill:url(#_Linear17);fill-rule:nonzero;"/><path d="M6.061,20.982c0.585,-0.585 1.535,-0.585 2.121,0l3.535,3.536c0.586,0.586 0.586,1.535 0,2.121c-0.585,0.586 -1.535,0.586 -2.121,0l-3.535,-3.535c-0.586,-0.586 -0.586,-1.536 -0,-2.122Z" style="fill:url(#_Radial18);fill-rule:nonzero;"/><path d="M6.061,20.982c0.585,-0.585 1.535,-0.585 2.121,0l3.535,3.536c0.586,0.586 0.586,1.535 0,2.121c-0.585,0.586 -1.535,0.586 -2.121,0l-3.535,-3.535c-0.586,-0.586 -0.586,-1.536 -0,-2.122Z" style="fill:url(#_Radial19);fill-rule:nonzero;"/><path d="M29.172,2.871c-0.947,-0.947 -2.608,-0.839 -3.818,-0.424c-0.869,0.299 -1.782,0.633 -2.714,1.007c-0.067,0.026 -0.084,0.112 -0.034,0.163l5.809,5.849c0.051,0.051 0.137,0.033 0.163,-0.033c0.379,-0.942 0.717,-1.865 1.019,-2.743c0.41,-1.194 0.739,-2.654 -0.425,-3.819Z" style="fill:url(#_Linear20);fill-rule:nonzero;"/><path d="M29.172,2.871c-0.947,-0.947 -2.608,-0.839 -3.818,-0.424c-0.869,0.299 -1.782,0.633 -2.714,1.007c-0.067,0.026 -0.084,0.112 -0.034,0.163l5.809,5.849c0.051,0.051 0.137,0.033 0.163,-0.033c0.379,-0.942 0.717,-1.865 1.019,-2.743c0.41,-1.194 0.739,-2.654 -0.425,-3.819Z" style="fill:url(#_Radial21);fill-rule:nonzero;"/><path d="M29.172,2.871c-0.947,-0.947 -2.608,-0.839 -3.818,-0.424c-0.869,0.299 -1.782,0.633 -2.714,1.007c-0.067,0.026 -0.084,0.112 -0.034,0.163l5.809,5.849c0.051,0.051 0.137,0.033 0.163,-0.033c0.379,-0.942 0.717,-1.865 1.019,-2.743c0.41,-1.194 0.739,-2.654 -0.425,-3.819Z" style="fill:url(#_Linear22);fill-rule:nonzero;"/><path d="M13.582,16.718c1.2,-0.442 2.367,0.725 1.925,1.926l-2.619,7.114c-0.252,0.685 -1.129,0.878 -1.645,0.362l-5.138,-5.138c-0.516,-0.516 -0.323,-1.393 0.362,-1.645l7.114,-2.619Z" style="fill:url(#_Linear23);fill-rule:nonzero;"/><path d="M13.582,16.718c1.2,-0.442 2.367,0.725 1.925,1.926l-2.619,7.114c-0.252,0.685 -1.129,0.878 -1.645,0.362l-5.138,-5.138c-0.516,-0.516 -0.323,-1.393 0.362,-1.645l7.114,-2.619Z" style="fill:url(#_Radial24);fill-rule:nonzero;"/><path d="M13.582,16.718c1.2,-0.442 2.367,0.725 1.925,1.926l-2.619,7.114c-0.252,0.685 -1.129,0.878 -1.645,0.362l-5.138,-5.138c-0.516,-0.516 -0.323,-1.393 0.362,-1.645l7.114,-2.619Z" style="fill:url(#_Radial25);fill-rule:nonzero;"/><path d="M13.582,16.718c1.2,-0.442 2.367,0.725 1.925,1.926l-2.619,7.114c-0.252,0.685 -1.129,0.878 -1.645,0.362l-5.138,-5.138c-0.516,-0.516 -0.323,-1.393 0.362,-1.645l7.114,-2.619Z" style="fill:url(#_Radial26);fill-rule:nonzero;"/><g><path d="M9.205,22.047l5.625,-4.407l-3.625,6.438l-2,-2.031Z" style="fill:url(#_Linear27);fill-rule:nonzero;"/></g></g><defs><linearGradient id="_Linear1" x1="0" y1="0" x2="1" y2="0" gradientUnits="userSpaceOnUse" gradientTransform="matrix(-5,-0.8236,0.8236,-5,8.1109,17.3079)"><stop offset="0" style="stop-color:#ee2452;stop-opacity:1"/><stop offset="1" style="stop-color:#f63e7a;stop-opacity:1"/></linearGradient><radialGradient id="_Radial2" cx="0" cy="0" r="1" gradientUnits="userSpaceOnUse" gradientTransform="matrix(7.52114,-2.73117,0.464355,1.27875,2.39755,17.0631)"><stop offset="0" style="stop-color:#ff8db0;stop-opacity:1"/><stop offset="0.16" style="stop-color:#ff8db0;stop-opacity:1"/><stop offset="1" style="stop-color:#ff8db0;stop-opacity:0"/></radialGradient><linearGradient id="_Linear3" x1="0" y1="0" x2="1" y2="0" gradientUnits="userSpaceOnUse" gradientTransform="matrix(0.81527,-0.7949,0.7949,0.81527,4.90476,19.7332)"><stop offset="0" style="stop-color:#dd467c;stop-opacity:1"/><stop offset="0.49" style="stop-color:#dd467c;stop-opacity:1"/><stop offset="1" style="stop-color:#dd467c;stop-opacity:0"/></linearGradient><linearGradient id="_Linear4" x1="0" y1="0" x2="1" y2="0" gradientUnits="userSpaceOnUse" gradientTransform="matrix(-6.2179,4.8792,-4.8792,-6.2179,17.8921,21.6718)"><stop offset="0" style="stop-color:#f83267;stop-opacity:1"/><stop offset="1" style="stop-color:#ff3190;stop-opacity:1"/></linearGradient><radialGradient id="_Radial5" cx="0" cy="0" r="1" gradientUnits="userSpaceOnUse" gradientTransform="matrix(0.468749,7.62467,-6.57365,0.404135,14.5796,22.203)"><stop offset="0" style="stop-color:#e76cbe;stop-opacity:0"/><stop offset="0.76" style="stop-color:#e76cbe;stop-opacity:0"/><stop offset="0.95" style="stop-color:#e76cbe;stop-opacity:1"/><stop offset="1" style="stop-color:#e76cbe;stop-opacity:1"/></radialGradient><radialGradient id="_Radial6" cx="0" cy="0" r="1" gradientUnits="userSpaceOnUse" gradientTransform="matrix(2.84375,-4.4375,1.94917,1.24912,13.4546,26.2343)"><stop offset="0" style="stop-color:#ff5898;stop-opacity:1"/><stop offset="1" style="stop-color:#ff5898;stop-opacity:0"/></radialGradient><linearGradient id="_Linear7" x1="0" y1="0" x2="1" y2="0" gradientUnits="userSpaceOnUse" gradientTransform="matrix(8.8125,8.875,-8.875,8.8125,13.4859,8.6717)"><stop offset="0" style="stop-color:#ccbbc0;stop-opacity:1"/><stop offset="1" style="stop-color:#ead2ec;stop-opacity:1"/></linearGradient><radialGradient id="_Radial8" cx="0" cy="0" r="1" gradientUnits="userSpaceOnUse" gradientTransform="matrix(-13.2213,-10.1645,19.1066,-24.8526,23.9694,21.5771)"><stop offset="0" style="stop-color:#e7e5e5;stop-opacity:0"/><stop offset="0.81" style="stop-color:#e7e5e5;stop-opacity:0"/><stop offset="1" style="stop-color:#e7e5e5;stop-opacity:1"/></radialGradient><radialGradient id="_Radial9" cx="0" cy="0" r="1" gradientUnits="userSpaceOnUse" gradientTransform="matrix(5.34968,-8.21557,3.86124,2.5143,9.18137,21.3096)"><stop offset="0" style="stop-color:#b5a3a5;stop-opacity:1"/><stop offset="0.28" style="stop-color:#b5a3a5;stop-opacity:1"/><stop offset="1" style="stop-color:#b5a3a5;stop-opacity:0"/></radialGradient><radialGradient id="_Radial10" cx="0" cy="0" r="1" gradientUnits="userSpaceOnUse" gradientTransform="matrix(2.45025,-8.33865,1.41296,0.415188,6.34463,20.091)"><stop offset="0" style="stop-color:#b28f96;stop-opacity:1"/><stop offset="0.21" style="stop-color:#b28f96;stop-opacity:1"/><stop offset="1" style="stop-color:#b28f96;stop-opacity:0"/></radialGradient><radialGradient id="_Radial11" cx="0" cy="0" r="1" gradientUnits="userSpaceOnUse" gradientTransform="matrix(-9.68,8.93746,-2.77498,-3.00553,27.1109,7.10921)"><stop offset="0" style="stop-color:#faecf1;stop-opacity:1"/><stop offset="1" style="stop-color:#faecf1;stop-opacity:0"/></radialGradient><linearGradient id="_Linear12" x1="0" y1="0" x2="1" y2="0" gradientUnits="userSpaceOnUse" gradientTransform="matrix(6.7187,0.5711,-0.5711,6.7187,17.7813,10.4913)"><stop offset="0" style="stop-color:#a796a0;stop-opacity:1"/><stop offset="1" style="stop-color:#a5959f;stop-opacity:1"/></linearGradient><radialGradient id="_Radial13" cx="0" cy="0" r="1" gradientUnits="userSpaceOnUse" gradientTransform="matrix(-1.28616e-15,3.35938,-3.35938,-1.28616e-15,21.1406,11.0624)"><stop offset="0" style="stop-color:#93859b;stop-opacity:1"/><stop offset="0.59" style="stop-color:#93859b;stop-opacity:1"/><stop offset="1" style="stop-color:#93859b;stop-opacity:0"/></radialGradient><radialGradient id="_Radial14" cx="0" cy="0" r="1" gradientUnits="userSpaceOnUse" gradientTransform="matrix(-1.85517e-15,-4.84559,4.45626,-1.70611e-15,21.1406,13.3881)"><stop offset="0" style="stop-color:#72cdff;stop-opacity:1"/><stop offset="0.74" style="stop-color:#66acff;stop-opacity:1"/><stop offset="1" style="stop-color:#3b57f4;stop-opacity:1"/></radialGradient><radialGradient id="_Radial15" cx="0" cy="0" r="1" gradientUnits="userSpaceOnUse" gradientTransform="matrix(-4.10578,4.10578,-3.22724,-3.22724,8.19114,24.2458)"><stop offset="0" style="stop-color:#d46213;stop-opacity:1"/><stop offset="1" style="stop-color:#ff9542;stop-opacity:1"/></radialGradient><radialGradient id="_Radial16" cx="0" cy="0" r="1" gradientUnits="userSpaceOnUse" gradientTransform="matrix(-4.72447,-5.39938,5.69005,-4.9788,8.30362,28.9703)"><stop offset="0" style="stop-color:#ffc484;stop-opacity:0"/><stop offset="0.87" style="stop-color:#ffc484;stop-opacity:0"/><stop offset="1" style="stop-color:#ffc484;stop-opacity:1"/></radialGradient><linearGradient id="_Linear17" x1="0" y1="0" x2="1" y2="0" gradientUnits="userSpaceOnUse" gradientTransform="matrix(5.5,5.4063,-5.4063,5.5,5.7984,21.953)"><stop offset="0" style="stop-color:#452860;stop-opacity:1"/><stop offset="1" style="stop-color:#51509f;stop-opacity:1"/></linearGradient><radialGradient id="_Radial18" cx="0" cy="0" r="1" gradientUnits="userSpaceOnUse" gradientTransform="matrix(0.343751,1.59375,-1.40812,0.303713,6.82965,21.453)"><stop offset="0" style="stop-color:#8e839a;stop-opacity:1"/><stop offset="1" style="stop-color:#8e839a;stop-opacity:0"/></radialGradient><radialGradient id="_Radial19" cx="0" cy="0" r="1" gradientUnits="userSpaceOnUse" gradientTransform="matrix(4.16202,4.61197,-2.41751,2.18165,7.20687,22.4179)"><stop offset="0" style="stop-color:#6175b9;stop-opacity:0"/><stop offset="0.86" style="stop-color:#6175b9;stop-opacity:0"/><stop offset="1" style="stop-color:#6175b9;stop-opacity:1"/></radialGradient><linearGradient id="_Linear20" x1="0" y1="0" x2="1" y2="0" gradientUnits="userSpaceOnUse" gradientTransform="matrix(-3.6761,3.67609,-3.67609,-3.6761,29.1767,2.87587)"><stop offset="0" style="stop-color:#ff3745;stop-opacity:1"/><stop offset="1" style="stop-color:#ed224b;stop-opacity:1"/></linearGradient><radialGradient id="_Radial21" cx="0" cy="0" r="1" gradientUnits="userSpaceOnUse" gradientTransform="matrix(-5.83135,5.83135,-1.39986,-1.39986,28.7385,4.34743)"><stop offset="0" style="stop-color:#ff5971;stop-opacity:1"/><stop offset="0.19" style="stop-color:#ff5971;stop-opacity:1"/><stop offset="1" style="stop-color:#ff5971;stop-opacity:0"/></radialGradient><linearGradient id="_Linear22" x1="0" y1="0" x2="1" y2="0" gradientUnits="userSpaceOnUse" gradientTransform="matrix(0.3672,-0.38281,0.38281,0.3672,25.8218,6.79677)"><stop offset="0" style="stop-color:#d2575e;stop-opacity:1"/><stop offset="1" style="stop-color:#f93251;stop-opacity:0"/></linearGradient><linearGradient id="_Linear23" x1="0" y1="0" x2="1" y2="0" gradientUnits="userSpaceOnUse" gradientTransform="matrix(-6.48607,6.4861,-6.4861,-6.48607,15.1603,17.0649)"><stop offset="0" style="stop-color:#ff2644;stop-opacity:1"/><stop offset="1" style="stop-color:#ff2982;stop-opacity:1"/></linearGradient><radialGradient id="_Radial24" cx="0" cy="0" r="1" gradientUnits="userSpaceOnUse" gradientTransform="matrix(6.96875,-2.65624,0.695381,1.82436,6.2359,19.4218)"><stop offset="0" style="stop-color:#ff95af;stop-opacity:1"/><stop offset="1" style="stop-color:#ff95af;stop-opacity:0"/></radialGradient><radialGradient id="_Radial25" cx="0" cy="0" r="1" gradientUnits="userSpaceOnUse" gradientTransform="matrix(3.27669,3.24305,-0.957971,0.967907,5.39755,20.3079)"><stop offset="0" style="stop-color:#e14678;stop-opacity:1"/><stop offset="0.38" style="stop-color:#e14678;stop-opacity:1"/><stop offset="1" style="stop-color:#e14678;stop-opacity:0"/></radialGradient><radialGradient id="_Radial26" cx="0" cy="0" r="1" gradientUnits="userSpaceOnUse" gradientTransform="matrix(0.687495,7.37501,-7.85914,0.732626,11.5796,19.1405)"><stop offset="0" style="stop-color:#e67bc7;stop-opacity:0"/><stop offset="0.83" style="stop-color:#e67bc7;stop-opacity:0"/><stop offset="1" style="stop-color:#e67bc7;stop-opacity:1"/></radialGradient><linearGradient id="_Linear27" x1="0" y1="0" x2="1" y2="0" gradientUnits="userSpaceOnUse" gradientTransform="matrix(-4.125,4.3125,-4.3125,-4.125,13.9859,18.1093)"><stop offset="0" style="stop-color:#ff5970;stop-opacity:1"/><stop offset="1" style="stop-color:#ff5794;stop-opacity:1"/></linearGradient></defs></svg>