<svg viewBox="0 0 141 120" xmlns="http://www.w3.org/2000/svg" fill-rule="evenodd" clip-rule="evenodd" stroke-linejoin="round" stroke-miterlimit="2"><g><path d="M104.403 57.954v8.353H38.097V13.843h8.251v44.212h49.804v-.101h8.251zm0-5.564h-8.251V8.252H46.348v.027h-8.251V0h66.306v52.39z" transform="matrix(.9882 0 0 .9882 -.01 0)"/><path d="M60.043 22.691H81.739V44.387H60.043z" fill="rgb(131,128,142)" transform="matrix(.9882 0 0 .9882 -.01 0)"/><g fill-rule="nonzero"><path d="M94.617 80.332c0 1.024-.368 1.84-1.104 2.432-.752.592-1.776.896-3.104.896-1.216 0-2.304-.24-3.232-.688v-2.256c.768.352 1.424.592 1.952.736.544.128 1.024.208 1.472.208.528 0 .928-.112 1.216-.304.288-.208.432-.512.432-.912a.971.971 0 00-.192-.592 2.11 2.11 0 00-.544-.512c-.24-.16-.736-.416-1.488-.768-.688-.336-1.216-.64-1.568-.944a3.524 3.524 0 01-.832-1.056c-.208-.4-.32-.864-.32-1.408 0-1.008.352-1.808 1.024-2.384.688-.576 1.632-.864 2.848-.864.592 0 1.152.064 1.696.208s1.104.336 1.696.592l-.784 1.888a10.876 10.876 0 00-1.504-.528c-.4-.096-.8-.144-1.184-.144-.464 0-.816.112-1.056.32-.24.208-.368.496-.368.832 0 .208.048.4.144.56.112.16.256.32.48.464.208.144.72.416 1.536.8 1.072.512 1.792 1.024 2.192 1.536.4.512.592 1.136.592 1.888z" fill="rgb(131,128,142)" transform="matrix(.9882 0 0 .9882 -.01 0) translate(-293.644 -160.368) scale(3.36842)"/><path d="M101.542 73.932c-.912 0-1.616.336-2.112 1.024-.512.688-.752 1.648-.752 2.864 0 2.544.96 3.824 2.864 3.824.8 0 1.776-.208 2.912-.608v2.032c-.928.4-1.984.592-3.136.592-1.664 0-2.928-.512-3.808-1.52-.88-1.008-1.328-2.448-1.328-4.336 0-1.184.224-2.224.656-3.12.432-.896 1.04-1.584 1.856-2.048.816-.48 1.76-.72 2.848-.72 1.104 0 2.224.272 3.344.8l-.784 1.968a12.67 12.67 0 00-1.28-.528 4.07 4.07 0 00-1.28-.224zM111.721 83.5l-2.752-8.96h-.064c.096 1.824.144 3.04.144 3.648V83.5h-2.16V72.076h3.296l2.704 8.736h.048l2.864-8.736h3.296V83.5h-2.256v-5.408c0-.256 0-.544.016-.88 0-.336.032-1.216.096-2.656h-.064l-2.944 8.944h-2.224zM126.375 83.5h-2.416v-9.408h-3.104v-2.016h8.624v2.016h-3.104V83.5z" transform="matrix(.9882 0 0 .9882 -.01 0) translate(-293.644 -160.368) scale(3.36842)"/></g></g></svg>