<?xml version="1.0" encoding="UTF-8" standalone="no"?>
<!DOCTYPE svg PUBLIC "-//W3C//DTD SVG 1.1//EN" "http://www.w3.org/Graphics/SVG/1.1/DTD/svg11.dtd">
<svg width="100%" height="100%" viewBox="0 0 141 120" version="1.1" xmlns="http://www.w3.org/2000/svg"
     xml:space="preserve"
     style="fill-rule:evenodd;clip-rule:evenodd;stroke-linejoin:round;stroke-miterlimit:2;">
    <g transform="matrix(0.988191,0,0,0.988191,-0.00930573,-7.10543e-15)">
        <g>
            <g>
                <path d="M104.403,57.954L104.403,66.307L38.097,66.307L38.097,13.843L46.348,13.843L46.348,58.055L96.152,58.055L96.152,57.954L104.403,57.954ZM104.403,52.39L96.152,52.39L96.152,8.252L46.348,8.252L46.348,8.279L38.097,8.279L38.097,0L104.403,0L104.403,52.39Z"/>
                <rect x="60.043" y="22.691" width="21.696" height="21.696" style="fill:rgb(131,128,142);"/>
            </g>
            <g transform="matrix(3.36842,0,0,3.36842,-293.644,-160.368)">
                <g transform="matrix(16,0,0,16,86.4413,83.5)">
                    <path d="M0.511,-0.198C0.511,-0.134 0.488,-0.083 0.442,-0.046C0.395,-0.009 0.331,0.01 0.248,0.01C0.172,0.01 0.104,-0.005 0.046,-0.033L0.046,-0.174C0.094,-0.152 0.135,-0.137 0.168,-0.128C0.202,-0.12 0.232,-0.115 0.26,-0.115C0.293,-0.115 0.318,-0.122 0.336,-0.134C0.354,-0.147 0.363,-0.166 0.363,-0.191C0.363,-0.205 0.359,-0.217 0.351,-0.228C0.343,-0.239 0.332,-0.25 0.317,-0.26C0.302,-0.27 0.271,-0.286 0.224,-0.308C0.181,-0.329 0.148,-0.348 0.126,-0.367C0.104,-0.386 0.087,-0.408 0.074,-0.433C0.061,-0.458 0.054,-0.487 0.054,-0.521C0.054,-0.584 0.076,-0.634 0.118,-0.67C0.161,-0.706 0.22,-0.724 0.296,-0.724C0.333,-0.724 0.368,-0.72 0.402,-0.711C0.436,-0.702 0.471,-0.69 0.508,-0.674L0.459,-0.556C0.421,-0.572 0.389,-0.583 0.365,-0.589C0.34,-0.595 0.315,-0.598 0.291,-0.598C0.262,-0.598 0.24,-0.591 0.225,-0.578C0.21,-0.565 0.202,-0.547 0.202,-0.526C0.202,-0.513 0.205,-0.501 0.211,-0.491C0.218,-0.481 0.227,-0.471 0.241,-0.462C0.254,-0.453 0.286,-0.436 0.337,-0.412C0.404,-0.38 0.449,-0.348 0.474,-0.316C0.499,-0.284 0.511,-0.245 0.511,-0.198Z" style="fill:rgb(131,128,142);fill-rule:nonzero;"/>
                </g>
                <g transform="matrix(16,0,0,16,95.2538,83.5)">
                    <path d="M0.393,-0.598C0.336,-0.598 0.292,-0.577 0.261,-0.534C0.229,-0.491 0.214,-0.431 0.214,-0.355C0.214,-0.196 0.274,-0.116 0.393,-0.116C0.443,-0.116 0.504,-0.129 0.575,-0.154L0.575,-0.027C0.517,-0.002 0.451,0.01 0.379,0.01C0.275,0.01 0.196,-0.022 0.141,-0.085C0.086,-0.148 0.058,-0.238 0.058,-0.356C0.058,-0.43 0.072,-0.495 0.099,-0.551C0.126,-0.607 0.164,-0.65 0.215,-0.679C0.266,-0.709 0.325,-0.724 0.393,-0.724C0.462,-0.724 0.532,-0.707 0.602,-0.674L0.553,-0.551C0.527,-0.563 0.5,-0.575 0.473,-0.584C0.446,-0.593 0.419,-0.598 0.393,-0.598Z" style="fill-rule:nonzero;"/>
                </g>
                <g transform="matrix(16,0,0,16,105.449,83.5)">
                    <path d="M0.392,-0L0.22,-0.56L0.216,-0.56C0.222,-0.446 0.225,-0.37 0.225,-0.332L0.225,-0L0.09,-0L0.09,-0.714L0.296,-0.714L0.465,-0.168L0.468,-0.168L0.647,-0.714L0.853,-0.714L0.853,0L0.712,0L0.712,-0.338C0.712,-0.354 0.712,-0.372 0.713,-0.393C0.713,-0.414 0.715,-0.469 0.719,-0.559L0.715,-0.559L0.531,0L0.392,0Z" style="fill-rule:nonzero;"/>
                </g>
                <g transform="matrix(16,0,0,16,120.535,83.5)">
                    <path d="M0.365,-0L0.214,-0L0.214,-0.588L0.02,-0.588L0.02,-0.714L0.559,-0.714L0.559,-0.588L0.365,-0.588L0.365,0Z" style="fill-rule:nonzero;"/>
                </g>
            </g>
        </g>
    </g>
</svg>
