<svg width="100%" height="100%" viewBox="0 0 76 90" version="1.1" xmlns="http://www.w3.org/2000/svg"
     xml:space="preserve"
     style="fill-rule:evenodd;clip-rule:evenodd;stroke-linejoin:round;stroke-miterlimit:2;">
    <g transform="matrix(1,0,0,1,-7.6,7.1)">
        <g transform="matrix(1.03926,0,0,1.03926,-15.8873,-22.585)">
            <path d="M84.4,93.8L84.4,70.6L92.1,70.6L92.1,101.5L22.6,101.5L22.6,70.6L30.3,70.6L30.3,93.8L84.4,93.8Z" style="fill:rgb(188,187,187);fill-rule:nonzero;"/>
        </g>
        <g transform="matrix(1.03926,0,0,1.03926,-15.8873,-22.585)">
            <path d="M38.8,68.4L76.6,76.3L78.2,68.7L40.4,60.8L38.8,68.4ZM43.8,50.4L78.8,66.7L82,59.7L47,43.3L43.8,50.4ZM53.5,33.2L83.2,57.9L88.1,52L58.4,27.3L53.5,33.2ZM72.7,14.9L66.5,19.5L89.5,50.5L95.7,45.9L72.7,14.9ZM38,86L76.6,86L76.6,78.3L38,78.3L38,86Z" style="fill:rgb(244,128,35);fill-rule:nonzero;"/>
        </g>
    </g>
</svg>
