<?xml version="1.0" encoding="UTF-8" standalone="no"?><!DOCTYPE svg PUBLIC "-//W3C//DTD SVG 1.1//EN" "http://www.w3.org/Graphics/SVG/1.1/DTD/svg11.dtd"><svg width="100%" height="100%" viewBox="0 0 32 32" version="1.1" xmlns="http://www.w3.org/2000/svg" xmlns:xlink="http://www.w3.org/1999/xlink" xml:space="preserve" xmlns:serif="http://www.serif.com/" style="fill-rule:evenodd;clip-rule:evenodd;stroke-linecap:round;stroke-linejoin:round;"><g><path d="M5.072,4.635c0,-0.883 0.717,-1.6 1.6,-1.6l18.656,0c0.883,0 1.6,0.717 1.6,1.6l-0,23.734c-0,0.883 -0.717,1.6 -1.6,1.6l-18.656,-0c-0.883,-0 -1.6,-0.717 -1.6,-1.6l0,-23.734Z" style="fill:url(#_Linear1);fill-rule:nonzero;"/><path d="M5.072,4.635c0,-0.883 0.717,-1.6 1.6,-1.6l18.656,0c0.883,0 1.6,0.717 1.6,1.6l-0,23.734c-0,0.883 -0.717,1.6 -1.6,1.6l-18.656,-0c-0.883,-0 -1.6,-0.717 -1.6,-1.6l0,-23.734Z" style="fill:url(#_Radial2);fill-rule:nonzero;"/></g><g><path d="M7.951,5.531c-0.69,0 -1.25,0.56 -1.25,1.25l0,20.192c0,0.69 0.56,1.25 1.25,1.25l10.691,-0c0.199,-0 0.39,-0.079 0.531,-0.22l5.152,-5.153c0.141,-0.14 0.22,-0.331 0.22,-0.53l-0,-15.539c-0,-0.69 -0.56,-1.25 -1.25,-1.25l-15.344,0Z" style="fill:#cd7d52;fill-rule:nonzero;"/></g><g><path d="M8.318,5.156c-0.69,0 -1.25,0.56 -1.25,1.25l0,20.192c0,0.69 0.56,1.25 1.25,1.25l10.692,-0c0.198,-0 0.389,-0.079 0.53,-0.22l5.152,-5.153c0.141,-0.14 0.22,-0.331 0.22,-0.53l0,-15.539c0,-0.69 -0.559,-1.25 -1.25,-1.25l-15.344,0Z" style="fill:url(#_Linear3);fill-rule:nonzero;"/></g><g><path d="M24.607,22.03l-0.003,0c-0,0.219 -0.123,0.271 -0.242,0.283l-4.306,0c-0.541,0 -0.979,0.439 -0.979,0.979l0,4.296c-0.029,0.147 -0.219,0.231 -0.317,0.256l-0.004,0.004l0.072,-0c0.195,-0 0.382,-0.078 0.519,-0.216l5.045,-5.045c0.138,-0.137 0.215,-0.324 0.215,-0.519l0,-0.038Z" style="fill:#d0c1e0;fill-rule:nonzero;"/></g><g><path d="M24.912,21.906l-0.004,0c0,0.224 -0.125,0.277 -0.246,0.289l-4.398,0c-0.553,0 -1,0.448 -1,1l-0,4.388c-0.03,0.15 -0.224,0.236 -0.325,0.261l-0.003,0.004l0.073,-0c0.199,-0 0.39,-0.079 0.531,-0.22l5.152,-5.153c0.141,-0.14 0.22,-0.331 0.22,-0.53l0,-0.039Z" style="fill:url(#_Linear4);fill-rule:nonzero;"/></g><g><path d="M10.779,5.656c0,-0.276 0.224,-0.5 0.5,-0.5l9.188,0l-0,2.657c-0,0.276 -0.224,0.5 -0.5,0.5l-8.688,-0c-0.276,-0 -0.5,-0.224 -0.5,-0.5l0,-2.157Z" style="fill:#cabfd5;fill-rule:nonzero;"/></g><g><path d="M15.99,1.984c1.079,0 1.957,0.862 1.984,1.935c0.001,0.027 0.023,0.05 0.051,0.05l0.942,-0c1.104,-0 2,0.895 2,2l-0,1.566c-0,0.278 -0.226,0.504 -0.504,0.504l-8.93,0c-0.278,0 -0.504,-0.226 -0.504,-0.504l0,-1.566c0,-1.105 0.896,-2 2,-2l0.927,-0c0.028,-0 0.05,-0.023 0.051,-0.05c0.026,-1.073 0.904,-1.935 1.983,-1.935Zm0,2.883c0.497,0 0.899,-0.402 0.899,-0.898c-0,-0.496 -0.402,-0.899 -0.899,-0.899c-0.496,0 -0.898,0.403 -0.898,0.899c-0,0.496 0.402,0.898 0.898,0.898Z" style="fill:url(#_Linear5);"/></g><g><g><path d="M17.661,18.402c-0.141,-0.142 -0.373,-0.142 -0.515,-0c-0.142,0.143 -0.142,0.373 -0,0.516l0.978,0.978c0.035,0.035 0.035,0.092 0,0.127l-0.977,0.978c-0.142,0.141 -0.142,0.374 0,0.515c0.142,0.142 0.374,0.142 0.516,0l0.977,-0.978c0.035,-0.035 0.092,-0.035 0.126,0l0.978,0.977c0.141,0.142 0.374,0.142 0.515,0c0.142,-0.142 0.142,-0.374 0,-0.515l-0.977,-0.978c-0.035,-0.035 -0.035,-0.091 0,-0.126l0.978,-0.979c0.142,-0.142 0.142,-0.374 0,-0.515c-0.142,-0.142 -0.375,-0.142 -0.516,-0l-0.978,0.978c-0.035,0.035 -0.091,0.035 -0.126,0l-0.979,-0.978Z" style="fill:url(#_Linear6);fill-rule:nonzero;"/></g><g><path d="M20.153,18.658c0.04,-0.04 0.04,-0.105 -0,-0.145c-0.041,-0.04 -0.106,-0.04 -0.146,-0l-2.745,2.745c-0.041,0.04 -0.041,0.106 -0,0.146c0.04,0.04 0.105,0.04 0.145,-0l2.746,-2.746Z" style="fill:url(#_Linear7);"/><path d="M20.153,18.658c0.04,-0.04 0.04,-0.105 -0,-0.145c-0.041,-0.04 -0.106,-0.04 -0.146,-0l-2.745,2.745c-0.041,0.04 -0.041,0.106 -0,0.146c0.04,0.04 0.105,0.04 0.145,-0l2.746,-2.746Z" style="fill:url(#_Radial8);"/></g><g><path d="M17.403,18.621c-0.04,-0.04 -0.04,-0.105 0,-0.145c0.04,-0.041 0.105,-0.041 0.146,-0l2.645,2.645c0.04,0.04 0.04,0.105 -0,0.145c-0.04,0.04 -0.106,0.04 -0.146,0l-2.645,-2.645Z" style="fill:url(#_Linear9);"/></g></g><g><g><path d="M14.771,12.51c-0.142,-0.142 -0.374,-0.142 -0.516,-0c-0.141,0.142 -0.141,0.373 0,0.516l0.979,0.978c0.035,0.035 0.035,0.092 -0,0.127l-0.977,0.978c-0.142,0.141 -0.142,0.374 -0,0.515c0.141,0.142 0.373,0.142 0.515,0l0.978,-0.978c0.035,-0.035 0.091,-0.035 0.126,0l0.977,0.977c0.142,0.142 0.374,0.142 0.516,0c0.142,-0.142 0.142,-0.374 -0,-0.515l-0.977,-0.978c-0.035,-0.035 -0.035,-0.091 -0,-0.126l0.978,-0.979c0.142,-0.142 0.142,-0.374 0,-0.515c-0.143,-0.142 -0.375,-0.142 -0.517,-0l-0.977,0.978c-0.035,0.035 -0.092,0.035 -0.127,0l-0.978,-0.978Z" style="fill:url(#_Linear10);fill-rule:nonzero;"/></g><g><path d="M17.262,12.766c0.04,-0.04 0.04,-0.105 0,-0.145c-0.04,-0.04 -0.105,-0.04 -0.145,-0l-2.746,2.745c-0.04,0.04 -0.04,0.106 0,0.146c0.04,0.04 0.106,0.04 0.146,-0l2.745,-2.746Z" style="fill:url(#_Linear11);"/><path d="M17.262,12.766c0.04,-0.04 0.04,-0.105 0,-0.145c-0.04,-0.04 -0.105,-0.04 -0.145,-0l-2.746,2.745c-0.04,0.04 -0.04,0.106 0,0.146c0.04,0.04 0.106,0.04 0.146,-0l2.745,-2.746Z" style="fill:url(#_Radial12);"/></g><g><path d="M14.513,12.729c-0.041,-0.04 -0.041,-0.105 -0,-0.145c0.04,-0.041 0.105,-0.041 0.145,-0l2.645,2.645c0.04,0.04 0.04,0.105 0,0.145c-0.04,0.04 -0.105,0.04 -0.145,0l-2.645,-2.645Z" style="fill:url(#_Linear13);"/></g></g><g><g><path d="M9.631,14.755c-0.142,-0.142 -0.374,-0.142 -0.516,-0c-0.141,0.142 -0.141,0.373 0,0.516l0.979,0.978c0.035,0.035 0.035,0.092 -0,0.126l-0.978,0.979c-0.141,0.141 -0.141,0.373 0,0.515c0.142,0.142 0.374,0.142 0.516,0l0.978,-0.978c0.034,-0.035 0.091,-0.035 0.126,0l0.977,0.977c0.142,0.142 0.374,0.142 0.516,-0c0.141,-0.142 0.141,-0.374 -0,-0.516l-0.978,-0.977c-0.034,-0.035 -0.034,-0.091 0,-0.126l0.979,-0.979c0.142,-0.142 0.142,-0.374 -0,-0.515c-0.143,-0.142 -0.375,-0.142 -0.517,-0l-0.977,0.978c-0.035,0.035 -0.092,0.035 -0.127,-0l-0.978,-0.978Z" style="fill:url(#_Linear14);fill-rule:nonzero;"/></g><g><path d="M12.122,15.011c0.04,-0.04 0.04,-0.105 -0,-0.145c-0.04,-0.04 -0.105,-0.04 -0.146,-0l-2.745,2.745c-0.04,0.04 -0.04,0.105 0,0.146c0.04,0.04 0.105,0.04 0.146,-0l2.745,-2.746Z" style="fill:url(#_Linear15);"/><path d="M12.122,15.011c0.04,-0.04 0.04,-0.105 -0,-0.145c-0.04,-0.04 -0.105,-0.04 -0.146,-0l-2.745,2.745c-0.04,0.04 -0.04,0.105 0,0.146c0.04,0.04 0.105,0.04 0.146,-0l2.745,-2.746Z" style="fill:url(#_Radial16);"/></g><g><path d="M9.372,14.974c-0.04,-0.04 -0.04,-0.105 0,-0.146c0.041,-0.04 0.106,-0.04 0.146,0l2.645,2.646c0.04,0.04 0.04,0.105 0,0.145c-0.04,0.04 -0.105,0.04 -0.145,0l-2.646,-2.645Z" style="fill:url(#_Linear17);"/></g></g><g><path d="M12.822,22.311c-0,0.828 -0.672,1.5 -1.5,1.5c-0.828,-0 -1.5,-0.672 -1.5,-1.5c-0,-0.829 0.672,-1.5 1.5,-1.5c0.828,-0 1.5,0.671 1.5,1.5Z" style="fill:url(#_Radial18);fill-rule:nonzero;"/><path d="M12.822,22.311c-0,0.828 -0.672,1.5 -1.5,1.5c-0.828,-0 -1.5,-0.672 -1.5,-1.5c-0,-0.829 0.672,-1.5 1.5,-1.5c0.828,-0 1.5,0.671 1.5,1.5Z" style="fill:url(#_Linear19);fill-rule:nonzero;"/><path d="M12.822,22.311c-0,0.828 -0.672,1.5 -1.5,1.5c-0.828,-0 -1.5,-0.672 -1.5,-1.5c-0,-0.829 0.672,-1.5 1.5,-1.5c0.828,-0 1.5,0.671 1.5,1.5Z" style="fill:url(#_Radial20);fill-rule:nonzero;"/><path d="M12.822,22.311c-0,0.828 -0.672,1.5 -1.5,1.5c-0.828,-0 -1.5,-0.672 -1.5,-1.5c-0,-0.829 0.672,-1.5 1.5,-1.5c0.828,-0 1.5,0.671 1.5,1.5Z" style="fill:url(#_Radial21);fill-rule:nonzero;"/><path d="M12.822,22.311c-0,0.828 -0.672,1.5 -1.5,1.5c-0.828,-0 -1.5,-0.672 -1.5,-1.5c-0,-0.829 0.672,-1.5 1.5,-1.5c0.828,-0 1.5,0.671 1.5,1.5Z" style="fill:url(#_Radial22);fill-rule:nonzero;"/></g><g><g><path d="M16.211,18.092c-0.021,-0.214 0.046,-0.359 0.115,-0.455c0.036,-0.051 0.073,-0.088 0.1,-0.111c0.009,-0.009 0.017,-0.015 0.022,-0.019c0.012,-0.007 0.023,-0.016 0.034,-0.024c0.012,-0.009 0.022,-0.018 0.033,-0.027c0.005,-0.004 0.013,-0.01 0.023,-0.017c0.029,-0.02 0.075,-0.047 0.133,-0.069c0.11,-0.043 0.268,-0.071 0.469,0.003c0.809,0.299 1.452,0.019 1.742,-0.206l0.015,-0.012c0.136,-0.104 0.327,-0.252 0.479,-0.489c0.161,-0.25 0.254,-0.559 0.291,-0.962c0.053,-0.582 0.254,-0.796 0.268,-0.811c0.192,-0.204 0.183,-0.525 -0.021,-0.717c-0.204,-0.192 -0.525,-0.182 -0.717,0.022c-0.162,0.171 -0.466,0.594 -0.541,1.413c-0.027,0.297 -0.087,0.434 -0.134,0.507c-0.05,0.078 -0.113,0.132 -0.261,0.246c-0.074,0.058 -0.355,0.21 -0.769,0.057c-0.477,-0.176 -0.893,-0.111 -1.186,0.002c-0.144,0.055 -0.258,0.122 -0.337,0.176c-0.041,0.027 -0.073,0.052 -0.097,0.071c-0.004,0.003 -0.008,0.006 -0.011,0.009c-0.004,0.003 -0.008,0.006 -0.012,0.009c-0.025,0.018 -0.057,0.044 -0.094,0.076c-0.072,0.063 -0.165,0.157 -0.255,0.282c-0.182,0.256 -0.349,0.642 -0.298,1.148c0.044,0.439 -0.174,0.672 -0.249,0.73c-0.147,0.114 -0.215,0.162 -0.304,0.191c-0.082,0.027 -0.229,0.051 -0.524,0.003c-0.811,-0.133 -1.297,0.055 -1.504,0.168c-0.245,0.135 -0.335,0.443 -0.2,0.689c0.134,0.246 0.443,0.336 0.689,0.201c0.017,-0.01 0.275,-0.151 0.851,-0.057c0.4,0.066 0.722,0.053 1.005,-0.04c0.267,-0.088 0.458,-0.236 0.593,-0.341l0.015,-0.011c0.291,-0.225 0.724,-0.777 0.637,-1.635Z" style="fill:#322f36;fill-rule:nonzero;"/></g><path d="M16.211,18.092c-0.021,-0.214 0.046,-0.359 0.115,-0.455c0.036,-0.051 0.073,-0.088 0.1,-0.111c0.009,-0.009 0.017,-0.015 0.022,-0.019c0.012,-0.007 0.023,-0.016 0.034,-0.024c0.012,-0.009 0.022,-0.018 0.033,-0.027c0.005,-0.004 0.013,-0.01 0.023,-0.017c0.029,-0.02 0.075,-0.047 0.133,-0.069c0.11,-0.043 0.268,-0.071 0.469,0.003c0.809,0.299 1.452,0.019 1.742,-0.206l0.015,-0.012c0.136,-0.104 0.327,-0.252 0.479,-0.489c0.161,-0.25 0.254,-0.559 0.291,-0.962c0.053,-0.582 0.254,-0.796 0.268,-0.811c0.192,-0.204 0.183,-0.525 -0.021,-0.717c-0.204,-0.192 -0.525,-0.182 -0.717,0.022c-0.162,0.171 -0.466,0.594 -0.541,1.413c-0.027,0.297 -0.087,0.434 -0.134,0.507c-0.05,0.078 -0.113,0.132 -0.261,0.246c-0.074,0.058 -0.355,0.21 -0.769,0.057c-0.477,-0.176 -0.893,-0.111 -1.186,0.002c-0.144,0.055 -0.258,0.122 -0.337,0.176c-0.041,0.027 -0.073,0.052 -0.097,0.071c-0.004,0.003 -0.008,0.006 -0.011,0.009c-0.004,0.003 -0.008,0.006 -0.012,0.009c-0.025,0.018 -0.057,0.044 -0.094,0.076c-0.072,0.063 -0.165,0.157 -0.255,0.282c-0.182,0.256 -0.349,0.642 -0.298,1.148c0.044,0.439 -0.174,0.672 -0.249,0.73c-0.147,0.114 -0.215,0.162 -0.304,0.191c-0.082,0.027 -0.229,0.051 -0.524,0.003c-0.811,-0.133 -1.297,0.055 -1.504,0.168c-0.245,0.135 -0.335,0.443 -0.2,0.689c0.134,0.246 0.443,0.336 0.689,0.201c0.017,-0.01 0.275,-0.151 0.851,-0.057c0.4,0.066 0.722,0.053 1.005,-0.04c0.267,-0.088 0.458,-0.236 0.593,-0.341l0.015,-0.011c0.291,-0.225 0.724,-0.777 0.637,-1.635Z" style="fill:url(#_Radial23);fill-rule:nonzero;"/><path d="M16.211,18.092c-0.021,-0.214 0.046,-0.359 0.115,-0.455c0.036,-0.051 0.073,-0.088 0.1,-0.111c0.009,-0.009 0.017,-0.015 0.022,-0.019c0.012,-0.007 0.023,-0.016 0.034,-0.024c0.012,-0.009 0.022,-0.018 0.033,-0.027c0.005,-0.004 0.013,-0.01 0.023,-0.017c0.029,-0.02 0.075,-0.047 0.133,-0.069c0.11,-0.043 0.268,-0.071 0.469,0.003c0.809,0.299 1.452,0.019 1.742,-0.206l0.015,-0.012c0.136,-0.104 0.327,-0.252 0.479,-0.489c0.161,-0.25 0.254,-0.559 0.291,-0.962c0.053,-0.582 0.254,-0.796 0.268,-0.811c0.192,-0.204 0.183,-0.525 -0.021,-0.717c-0.204,-0.192 -0.525,-0.182 -0.717,0.022c-0.162,0.171 -0.466,0.594 -0.541,1.413c-0.027,0.297 -0.087,0.434 -0.134,0.507c-0.05,0.078 -0.113,0.132 -0.261,0.246c-0.074,0.058 -0.355,0.21 -0.769,0.057c-0.477,-0.176 -0.893,-0.111 -1.186,0.002c-0.144,0.055 -0.258,0.122 -0.337,0.176c-0.041,0.027 -0.073,0.052 -0.097,0.071c-0.004,0.003 -0.008,0.006 -0.011,0.009c-0.004,0.003 -0.008,0.006 -0.012,0.009c-0.025,0.018 -0.057,0.044 -0.094,0.076c-0.072,0.063 -0.165,0.157 -0.255,0.282c-0.182,0.256 -0.349,0.642 -0.298,1.148c0.044,0.439 -0.174,0.672 -0.249,0.73c-0.147,0.114 -0.215,0.162 -0.304,0.191c-0.082,0.027 -0.229,0.051 -0.524,0.003c-0.811,-0.133 -1.297,0.055 -1.504,0.168c-0.245,0.135 -0.335,0.443 -0.2,0.689c0.134,0.246 0.443,0.336 0.689,0.201c0.017,-0.01 0.275,-0.151 0.851,-0.057c0.4,0.066 0.722,0.053 1.005,-0.04c0.267,-0.088 0.458,-0.236 0.593,-0.341l0.015,-0.011c0.291,-0.225 0.724,-0.777 0.637,-1.635Z" style="fill:url(#_Radial24);fill-rule:nonzero;"/><g><path d="M12.827,19.681c0.112,-0.062 0.483,-0.226 1.178,-0.113c0.694,0.114 0.937,-0.073 1.22,-0.293c0.183,-0.141 0.508,-0.534 0.443,-1.182c-0.072,-0.72 0.467,-1.063 0.467,-1.063" style="fill:none;fill-rule:nonzero;stroke:#63596d;stroke-width:0.34px;"/></g><g><path d="M19.527,14.495c-0.087,0.093 -0.34,0.412 -0.404,1.112c-0.064,0.701 -0.307,0.889 -0.59,1.108c-0.183,0.142 -0.644,0.358 -1.256,0.132c-0.678,-0.25 -1.146,0.186 -1.146,0.186" style="fill:none;fill-rule:nonzero;stroke:#63596d;stroke-width:0.34px;"/></g></g><g><path d="M22.733,12.056c0,0.829 -0.671,1.5 -1.5,1.5c-0.828,0 -1.5,-0.671 -1.5,-1.5c0,-0.828 0.672,-1.5 1.5,-1.5c0.829,0 1.5,0.672 1.5,1.5Z" style="fill:url(#_Radial25);fill-rule:nonzero;"/><path d="M22.733,12.056c0,0.829 -0.671,1.5 -1.5,1.5c-0.828,0 -1.5,-0.671 -1.5,-1.5c0,-0.828 0.672,-1.5 1.5,-1.5c0.829,0 1.5,0.672 1.5,1.5Z" style="fill:url(#_Linear26);fill-rule:nonzero;"/><path d="M22.733,12.056c0,0.829 -0.671,1.5 -1.5,1.5c-0.828,0 -1.5,-0.671 -1.5,-1.5c0,-0.828 0.672,-1.5 1.5,-1.5c0.829,0 1.5,0.672 1.5,1.5Z" style="fill:url(#_Radial27);fill-rule:nonzero;"/><path d="M22.733,12.056c0,0.829 -0.671,1.5 -1.5,1.5c-0.828,0 -1.5,-0.671 -1.5,-1.5c0,-0.828 0.672,-1.5 1.5,-1.5c0.829,0 1.5,0.672 1.5,1.5Z" style="fill:url(#_Radial28);fill-rule:nonzero;"/><path d="M22.733,12.056c0,0.829 -0.671,1.5 -1.5,1.5c-0.828,0 -1.5,-0.671 -1.5,-1.5c0,-0.828 0.672,-1.5 1.5,-1.5c0.829,0 1.5,0.672 1.5,1.5Z" style="fill:url(#_Radial29);fill-rule:nonzero;"/></g><defs><linearGradient id="_Linear1" x1="0" y1="0" x2="1" y2="0" gradientUnits="userSpaceOnUse" gradientTransform="matrix(1.64921e-15,26.9336,-26.9336,1.64921e-15,16,3.03516)"><stop offset="0" style="stop-color:#e8a874;stop-opacity:1"/><stop offset="1" style="stop-color:#db925d;stop-opacity:1"/></linearGradient><radialGradient id="_Radial2" cx="0" cy="0" r="1" gradientUnits="userSpaceOnUse" gradientTransform="matrix(-9.57142e-16,-2.5,2.02864,-7.76679e-16,15.6855,5.3125)"><stop offset="0" style="stop-color:#d79769;stop-opacity:1"/><stop offset="1" style="stop-color:#d79769;stop-opacity:0"/></radialGradient><linearGradient id="_Linear3" x1="0" y1="0" x2="1" y2="0" gradientUnits="userSpaceOnUse" gradientTransform="matrix(1.38945e-15,22.6914,-22.6914,1.38945e-15,15.9902,5.15625)"><stop offset="0" style="stop-color:#eae2f4;stop-opacity:1"/><stop offset="1" style="stop-color:#e4daef;stop-opacity:1"/></linearGradient><linearGradient id="_Linear4" x1="0" y1="0" x2="1" y2="0" gradientUnits="userSpaceOnUse" gradientTransform="matrix(2.2812,2.4687,-2.4687,2.2812,19.3418,22.6875)"><stop offset="0" style="stop-color:#d6cde1;stop-opacity:1"/><stop offset="1" style="stop-color:#c6bad2;stop-opacity:1"/></linearGradient><linearGradient id="_Linear5" x1="0" y1="0" x2="1" y2="0" gradientUnits="userSpaceOnUse" gradientTransform="matrix(-3.0625,4.4375,-4.4375,-3.0625,18.7168,3.78125)"><stop offset="0" style="stop-color:#948a94;stop-opacity:1"/><stop offset="1" style="stop-color:#8d8291;stop-opacity:1"/></linearGradient><linearGradient id="_Linear6" x1="0" y1="0" x2="1" y2="0" gradientUnits="userSpaceOnUse" gradientTransform="matrix(1.87727e-16,3.06581,-3.06581,1.87727e-16,18.7032,18.2954)"><stop offset="0" style="stop-color:#4f3c62;stop-opacity:1"/><stop offset="1" style="stop-color:#28252c;stop-opacity:1"/></linearGradient><linearGradient id="_Linear7" x1="0" y1="0" x2="1" y2="0" gradientUnits="userSpaceOnUse" gradientTransform="matrix(-2.89094,2.89094,-2.89094,-2.89094,20.1526,18.5128)"><stop offset="0" style="stop-color:#625174;stop-opacity:1"/><stop offset="1" style="stop-color:#494151;stop-opacity:1"/></linearGradient><radialGradient id="_Radial8" cx="0" cy="0" r="1" gradientUnits="userSpaceOnUse" gradientTransform="matrix(-0.316254,0.316254,-0.412991,-0.412991,20.1286,18.5261)"><stop offset="0" style="stop-color:#7e728c;stop-opacity:1"/><stop offset="1" style="stop-color:#7e728c;stop-opacity:0"/></radialGradient><linearGradient id="_Linear9" x1="0" y1="0" x2="1" y2="0" gradientUnits="userSpaceOnUse" gradientTransform="matrix(2.79068,2.79068,2.79068,-2.79068,17.4031,18.4756)"><stop offset="0" style="stop-color:#756983;stop-opacity:1"/><stop offset="0.23" style="stop-color:#756983;stop-opacity:1"/><stop offset="0.45" style="stop-color:#756983;stop-opacity:0"/><stop offset="0.83" style="stop-color:#67656a;stop-opacity:1"/><stop offset="1" style="stop-color:#67656a;stop-opacity:1"/></linearGradient><linearGradient id="_Linear10" x1="0" y1="0" x2="1" y2="0" gradientUnits="userSpaceOnUse" gradientTransform="matrix(1.87727e-16,3.06581,-3.06581,1.87727e-16,15.8127,12.4034)"><stop offset="0" style="stop-color:#4f3c62;stop-opacity:1"/><stop offset="1" style="stop-color:#28252c;stop-opacity:1"/></linearGradient><linearGradient id="_Linear11" x1="0" y1="0" x2="1" y2="0" gradientUnits="userSpaceOnUse" gradientTransform="matrix(-2.89094,2.89094,-2.89094,-2.89094,17.2621,12.6208)"><stop offset="0" style="stop-color:#625174;stop-opacity:1"/><stop offset="1" style="stop-color:#494151;stop-opacity:1"/></linearGradient><radialGradient id="_Radial12" cx="0" cy="0" r="1" gradientUnits="userSpaceOnUse" gradientTransform="matrix(-0.316254,0.316254,-0.412991,-0.412991,17.2382,12.634)"><stop offset="0" style="stop-color:#7e728c;stop-opacity:1"/><stop offset="1" style="stop-color:#7e728c;stop-opacity:0"/></radialGradient><linearGradient id="_Linear13" x1="0" y1="0" x2="1" y2="0" gradientUnits="userSpaceOnUse" gradientTransform="matrix(2.79068,2.79068,2.79068,-2.79068,14.5126,12.5836)"><stop offset="0" style="stop-color:#756983;stop-opacity:1"/><stop offset="0.23" style="stop-color:#756983;stop-opacity:1"/><stop offset="0.45" style="stop-color:#756983;stop-opacity:0"/><stop offset="0.83" style="stop-color:#67656a;stop-opacity:1"/><stop offset="1" style="stop-color:#67656a;stop-opacity:1"/></linearGradient><linearGradient id="_Linear14" x1="0" y1="0" x2="1" y2="0" gradientUnits="userSpaceOnUse" gradientTransform="matrix(1.87727e-16,3.06581,-3.06581,1.87727e-16,10.6726,14.6482)"><stop offset="0" style="stop-color:#4f3c62;stop-opacity:1"/><stop offset="1" style="stop-color:#28252c;stop-opacity:1"/></linearGradient><linearGradient id="_Linear15" x1="0" y1="0" x2="1" y2="0" gradientUnits="userSpaceOnUse" gradientTransform="matrix(-2.89094,2.89094,-2.89094,-2.89094,12.122,14.8657)"><stop offset="0" style="stop-color:#625174;stop-opacity:1"/><stop offset="1" style="stop-color:#494151;stop-opacity:1"/></linearGradient><radialGradient id="_Radial16" cx="0" cy="0" r="1" gradientUnits="userSpaceOnUse" gradientTransform="matrix(-0.316254,0.316254,-0.412991,-0.412991,12.098,14.8789)"><stop offset="0" style="stop-color:#7e728c;stop-opacity:1"/><stop offset="1" style="stop-color:#7e728c;stop-opacity:0"/></radialGradient><linearGradient id="_Linear17" x1="0" y1="0" x2="1" y2="0" gradientUnits="userSpaceOnUse" gradientTransform="matrix(2.79068,2.79068,2.79068,-2.79068,9.37248,14.8285)"><stop offset="0" style="stop-color:#756983;stop-opacity:1"/><stop offset="0.23" style="stop-color:#756983;stop-opacity:1"/><stop offset="0.45" style="stop-color:#756983;stop-opacity:0"/><stop offset="0.83" style="stop-color:#67656a;stop-opacity:1"/><stop offset="1" style="stop-color:#67656a;stop-opacity:1"/></linearGradient><radialGradient id="_Radial18" cx="0" cy="0" r="1" gradientUnits="userSpaceOnUse" gradientTransform="matrix(-1.92187,2.2768,-2.2768,-1.92187,12.1983,21.5341)"><stop offset="0" style="stop-color:#4da0da;stop-opacity:1"/><stop offset="0.12" style="stop-color:#4da0da;stop-opacity:1"/><stop offset="0.85" style="stop-color:#3557c3;stop-opacity:1"/><stop offset="1" style="stop-color:#3557c3;stop-opacity:1"/></radialGradient><linearGradient id="_Linear19" x1="0" y1="0" x2="1" y2="0" gradientUnits="userSpaceOnUse" gradientTransform="matrix(4.2644e-17,0.696429,-0.696429,4.2644e-17,11.322,20.8109)"><stop offset="0" style="stop-color:#5b9cce;stop-opacity:1"/><stop offset="1" style="stop-color:#5b9cce;stop-opacity:0"/></linearGradient><radialGradient id="_Radial20" cx="0" cy="0" r="1" gradientUnits="userSpaceOnUse" gradientTransform="matrix(-1.13839,1.08483,-1.16904,-1.22675,12.2519,21.7484)"><stop offset="0" style="stop-color:#62a5e9;stop-opacity:1"/><stop offset="0.18" style="stop-color:#62a5e9;stop-opacity:1"/><stop offset="1" style="stop-color:#4579d7;stop-opacity:0"/></radialGradient><radialGradient id="_Radial21" cx="0" cy="0" r="1" gradientUnits="userSpaceOnUse" gradientTransform="matrix(-2.0625,-1.57929e-15,1.64082e-15,-2.14286,11.8032,22.3109)"><stop offset="0" style="stop-color:#416aa9;stop-opacity:0"/><stop offset="0.62" style="stop-color:#416aa9;stop-opacity:0"/><stop offset="0.95" style="stop-color:#859bc6;stop-opacity:1"/><stop offset="1" style="stop-color:#859bc6;stop-opacity:1"/></radialGradient><radialGradient id="_Radial22" cx="0" cy="0" r="1" gradientUnits="userSpaceOnUse" gradientTransform="matrix(-8.61429e-16,2.25,-2.49866,-9.56629e-16,11.322,21.5609)"><stop offset="0" style="stop-color:#3e4dcb;stop-opacity:0"/><stop offset="0.86" style="stop-color:#3e4dcb;stop-opacity:0"/><stop offset="1" style="stop-color:#695fd4;stop-opacity:1"/></radialGradient><radialGradient id="_Radial23" cx="0" cy="0" r="1" gradientUnits="userSpaceOnUse" gradientTransform="matrix(-0.317468,0.539748,-0.358657,-0.210954,19.7089,14.195)"><stop offset="0" style="stop-color:#6a676d;stop-opacity:1"/><stop offset="1" style="stop-color:#6a676d;stop-opacity:0"/></radialGradient><radialGradient id="_Radial24" cx="0" cy="0" r="1" gradientUnits="userSpaceOnUse" gradientTransform="matrix(0.131304,0.96418,-2.71517,0.369756,16.8706,16.2445)"><stop offset="0" style="stop-color:#56535b;stop-opacity:1"/><stop offset="1" style="stop-color:#56535b;stop-opacity:0"/></radialGradient><radialGradient id="_Radial25" cx="0" cy="0" r="1" gradientUnits="userSpaceOnUse" gradientTransform="matrix(-1.92187,2.2768,-2.2768,-1.92187,22.1098,11.2795)"><stop offset="0" style="stop-color:#5ae68d;stop-opacity:1"/><stop offset="0.19" style="stop-color:#5ae68d;stop-opacity:1"/><stop offset="0.84" style="stop-color:#43a684;stop-opacity:1"/><stop offset="1" style="stop-color:#43a684;stop-opacity:1"/></radialGradient><linearGradient id="_Linear26" x1="0" y1="0" x2="1" y2="0" gradientUnits="userSpaceOnUse" gradientTransform="matrix(4.2644e-17,0.696429,-0.696429,4.2644e-17,21.2334,10.5563)"><stop offset="0" style="stop-color:#5ed284;stop-opacity:1"/><stop offset="1" style="stop-color:#5ed284;stop-opacity:0"/></linearGradient><radialGradient id="_Radial27" cx="0" cy="0" r="1" gradientUnits="userSpaceOnUse" gradientTransform="matrix(-1.13839,1.08483,-1.16904,-1.22675,22.1634,11.4938)"><stop offset="0" style="stop-color:#6ffca5;stop-opacity:1"/><stop offset="0.18" style="stop-color:#6ffca5;stop-opacity:1"/><stop offset="1" style="stop-color:#65e6a7;stop-opacity:0"/></radialGradient><radialGradient id="_Radial28" cx="0" cy="0" r="1" gradientUnits="userSpaceOnUse" gradientTransform="matrix(-2.0625,-1.57929e-15,1.64082e-15,-2.14286,21.7147,12.0563)"><stop offset="0" style="stop-color:#64cb85;stop-opacity:0"/><stop offset="0.62" style="stop-color:#64cb85;stop-opacity:0"/><stop offset="0.95" style="stop-color:#a4e4b7;stop-opacity:1"/><stop offset="1" style="stop-color:#a4e4b7;stop-opacity:1"/></radialGradient><radialGradient id="_Radial29" cx="0" cy="0" r="1" gradientUnits="userSpaceOnUse" gradientTransform="matrix(-9.1014e-16,2.37723,-2.46296,-9.42961e-16,21.2334,11.3063)"><stop offset="0" style="stop-color:#4a9795;stop-opacity:0"/><stop offset="0.73" style="stop-color:#4a9795;stop-opacity:0"/><stop offset="1" style="stop-color:#718cad;stop-opacity:1"/></radialGradient></defs></svg>