<?xml version="1.0" encoding="UTF-8" standalone="no"?><!DOCTYPE svg PUBLIC "-//W3C//DTD SVG 1.1//EN" "http://www.w3.org/Graphics/SVG/1.1/DTD/svg11.dtd"><svg width="100%" height="100%" viewBox="0 0 32 32" version="1.1" xmlns="http://www.w3.org/2000/svg" xmlns:xlink="http://www.w3.org/1999/xlink" xml:space="preserve" xmlns:serif="http://www.serif.com/" style="fill-rule:evenodd;clip-rule:evenodd;stroke-linecap:round;stroke-linejoin:round;stroke-miterlimit:1.5;"><g><path d="M5.072,4.635c0,-0.883 0.717,-1.6 1.6,-1.6l18.656,0c0.883,0 1.6,0.717 1.6,1.6l0,23.734c0,0.883 -0.717,1.6 -1.6,1.6l-18.656,0c-0.883,0 -1.6,-0.717 -1.6,-1.6l0,-23.734Z" style="fill:url(#_Linear1);fill-rule:nonzero;"/><path d="M5.072,4.635c0,-0.883 0.717,-1.6 1.6,-1.6l18.656,0c0.883,0 1.6,0.717 1.6,1.6l0,23.734c0,0.883 -0.717,1.6 -1.6,1.6l-18.656,0c-0.883,0 -1.6,-0.717 -1.6,-1.6l0,-23.734Z" style="fill:url(#_Radial2);fill-rule:nonzero;"/></g><path d="M24.574,6.849c0,-0.689 -0.56,-1.249 -1.249,-1.249l-15.576,0c-0.689,0 -1.249,0.56 -1.249,1.249l0,20.113c0,0.69 0.56,1.249 1.249,1.249l15.576,0c0.689,0 1.249,-0.559 1.249,-1.249l0,-20.113Z" style="fill:#cd7d52;"/><path d="M24.913,6.421c0,-0.689 -0.559,-1.249 -1.249,-1.249l-15.576,0c-0.689,0 -1.249,0.56 -1.249,1.249l0,20.114c0,0.689 0.56,1.248 1.249,1.248l15.576,0c0.69,0 1.249,-0.559 1.249,-1.248l0,-20.114Z" style="fill:url(#_Linear3);"/><g><path d="M10.779,5.656c0,-0.276 0.224,-0.5 0.5,-0.5l9.188,0l0,2.657c0,0.276 -0.224,0.5 -0.5,0.5l-8.688,0c-0.276,0 -0.5,-0.224 -0.5,-0.5l0,-2.157Z" style="fill:#cabfd5;fill-rule:nonzero;"/></g><g><path d="M15.99,1.984c1.079,0 1.957,0.862 1.984,1.935c0.001,0.027 0.023,0.05 0.051,0.05l0.942,0c1.104,0 2,0.895 2,2l0,1.566c0,0.278 -0.226,0.504 -0.504,0.504l-8.93,0c-0.278,0 -0.504,-0.226 -0.504,-0.504l0,-1.566c0,-1.105 0.896,-2 2,-2l0.927,0c0.028,0 0.05,-0.023 0.051,-0.05c0.026,-1.073 0.904,-1.935 1.983,-1.935Zm0,2.883c0.497,-0 0.899,-0.402 0.899,-0.898c0,-0.496 -0.402,-0.899 -0.899,-0.899c-0.496,-0 -0.898,0.403 -0.898,0.899c0,0.496 0.402,0.898 0.898,0.898Z" style="fill:url(#_Linear4);"/></g><g><path d="M12.961,17.835c-0,0 0.353,-1.434 1.819,-1.904" style="fill:none;stroke:url(#_Linear5);stroke-width:1px;"/><path d="M14.05,14.593c0,-0 1.092,-0.21 1.637,0.189c0.544,0.399 0.315,1.45 0.144,1.996" style="fill:none;stroke:url(#_Linear6);stroke-width:1px;"/></g><g><g id="Layer1"><path d="M12.318,27.184c2.835,0 4.25,-1.903 4.25,-4.25c0,-2.348 -1.415,-4.251 -4.25,-4.251c-2.834,0 -4.249,1.903 -4.249,4.251c-0,2.347 1.415,4.25 4.249,4.25Z" style="fill:url(#_Radial7);fill-rule:nonzero;"/><path d="M12.318,27.184c2.835,0 4.25,-1.903 4.25,-4.25c0,-2.348 -1.415,-4.251 -4.25,-4.251c-2.834,0 -4.249,1.903 -4.249,4.251c-0,2.347 1.415,4.25 4.249,4.25Z" style="fill:url(#_Radial8);fill-rule:nonzero;"/><path d="M12.318,27.184c2.835,0 4.25,-1.903 4.25,-4.25c0,-2.348 -1.415,-4.251 -4.25,-4.251c-2.834,0 -4.249,1.903 -4.249,4.251c-0,2.347 1.415,4.25 4.249,4.25Z" style="fill:url(#_Radial9);fill-rule:nonzero;"/><path d="M12.318,27.184c2.835,0 4.25,-1.903 4.25,-4.25c0,-2.348 -1.415,-4.251 -4.25,-4.251c-2.834,0 -4.249,1.903 -4.249,4.251c-0,2.347 1.415,4.25 4.249,4.25Z" style="fill:url(#_Radial10);fill-rule:nonzero;"/><path d="M12.318,27.184c2.835,0 4.25,-1.903 4.25,-4.25c0,-2.348 -1.415,-4.251 -4.25,-4.251c-2.834,0 -4.249,1.903 -4.249,4.251c-0,2.347 1.415,4.25 4.249,4.25Z" style="fill:url(#_Radial11);fill-rule:nonzero;"/><path d="M12.318,27.184c2.835,0 4.25,-1.903 4.25,-4.25c0,-2.348 -1.415,-4.251 -4.25,-4.251c-2.834,0 -4.249,1.903 -4.249,4.251c-0,2.347 1.415,4.25 4.249,4.25Z" style="fill:url(#_Radial12);fill-rule:nonzero;"/><path d="M12.318,27.184c2.835,0 4.25,-1.903 4.25,-4.25c0,-2.348 -1.415,-4.251 -4.25,-4.251c-2.834,0 -4.249,1.903 -4.249,4.251c-0,2.347 1.415,4.25 4.249,4.25Z" style="fill:url(#_Radial13);fill-rule:nonzero;"/><path d="M12.318,27.184c2.835,0 4.25,-1.903 4.25,-4.25c0,-2.348 -1.415,-4.251 -4.25,-4.251c-2.834,0 -4.249,1.903 -4.249,4.251c-0,2.347 1.415,4.25 4.249,4.25Z" style="fill:url(#_Radial14);fill-rule:nonzero;"/><path d="M13.087,25.426c0,0 -0.906,-0.478 -1.842,0.011" style="fill:none;fill-rule:nonzero;stroke:url(#_Radial15);stroke-width:0.64px;stroke-miterlimit:4;"/><path d="M10.345,23.541c0.755,0 1.367,-0.611 1.367,-1.366c-0,-0.755 -0.612,-1.366 -1.367,-1.366c-0.755,-0 -1.366,0.611 -1.366,1.366c-0,0.755 0.611,1.366 1.366,1.366Z" style="fill:#fff;fill-rule:nonzero;"/><path d="M14.291,23.541c0.755,0 1.367,-0.611 1.367,-1.366c-0,-0.755 -0.612,-1.366 -1.367,-1.366c-0.753,-0 -1.366,0.611 -1.366,1.366c0,0.755 0.613,1.366 1.366,1.366Z" style="fill:#fff;fill-rule:nonzero;"/><path d="M10.648,21.416c-0.419,-0 -0.759,0.34 -0.759,0.759c0,0.419 0.34,0.759 0.759,0.759c0.419,-0 0.759,-0.34 0.759,-0.759c0,-0.419 -0.34,-0.759 -0.759,-0.759Zm3.34,-0c-0.419,-0 -0.759,0.34 -0.759,0.759c0,0.419 0.34,0.759 0.759,0.759c0.419,-0 0.759,-0.34 0.759,-0.759c0,-0.419 -0.34,-0.759 -0.759,-0.759Z" style="fill:#402a32;"/><path d="M7.764,22.023c0,-0.168 0.137,-0.304 0.305,-0.304l0.758,-0l0,0.607l-0.758,0c-0.168,0 -0.305,-0.135 -0.305,-0.303Zm8.778,0.303l-0.731,0l-0,-0.607l0.731,-0c0.182,-0 0.33,0.136 0.33,0.304c0,0.167 -0.148,0.303 -0.33,0.303Zm-4.83,-0.607l1.213,-0l0,0.607l-1.213,0l-0,-0.607Z" style="fill:url(#_Linear16);"/><path d="M10.345,20.809c-0.755,-0 -1.366,0.611 -1.366,1.366c-0,0.755 0.611,1.366 1.366,1.366c0.755,0 1.367,-0.611 1.367,-1.366c-0,-0.755 -0.612,-1.366 -1.367,-1.366Zm-1.67,1.366c-0,-0.923 0.748,-1.67 1.67,-1.67c0.922,0 1.67,0.747 1.67,1.67c-0,0.923 -0.748,1.669 -1.67,1.669c-0.922,0 -1.67,-0.746 -1.67,-1.669Z" style="fill:url(#_Radial17);"/><path d="M14.291,20.811c-0.753,0 -1.363,0.61 -1.363,1.364c-0,0.753 0.61,1.363 1.363,1.363c0.754,0 1.365,-0.61 1.365,-1.363c0,-0.754 -0.611,-1.364 -1.365,-1.364Zm-1.669,1.364c-0,-0.923 0.748,-1.67 1.669,-1.67c0.923,0 1.671,0.747 1.671,1.67c0,0.923 -0.748,1.669 -1.671,1.669c-0.921,0 -1.669,-0.746 -1.669,-1.669Z" style="fill:url(#_Radial18);"/><path d="M10.345,20.809c-0.755,-0 -1.366,0.611 -1.366,1.366c-0,0.755 0.611,1.366 1.366,1.366c0.755,0 1.367,-0.611 1.367,-1.366c-0,-0.755 -0.612,-1.366 -1.367,-1.366Zm-1.67,1.366c-0,-0.923 0.748,-1.67 1.67,-1.67c0.922,0 1.67,0.747 1.67,1.67c-0,0.923 -0.748,1.669 -1.67,1.669c-0.922,0 -1.67,-0.746 -1.67,-1.669Z" style="fill:url(#_Radial19);"/><path d="M14.291,20.809c-0.753,-0 -1.366,0.611 -1.366,1.366c0,0.755 0.613,1.366 1.366,1.366c0.755,0 1.367,-0.611 1.367,-1.366c-0,-0.755 -0.612,-1.366 -1.367,-1.366Zm-1.669,1.366c-0,-0.923 0.748,-1.67 1.669,-1.67c0.923,0 1.671,0.747 1.671,1.67c0,0.923 -0.748,1.669 -1.671,1.669c-0.921,0 -1.669,-0.746 -1.669,-1.669Z" style="fill:url(#_Radial20);"/></g></g><g><g><path d="M20.117,15.96c2.992,0 4.486,-2.007 4.486,-4.485c0,-2.477 -1.494,-4.485 -4.486,-4.485c-2.991,-0 -4.486,2.008 -4.486,4.485c0,2.478 1.495,4.485 4.486,4.485Z" style="fill:url(#_Radial21);fill-rule:nonzero;"/><path d="M20.117,15.96c2.992,0 4.486,-2.007 4.486,-4.485c0,-2.477 -1.494,-4.485 -4.486,-4.485c-2.991,-0 -4.486,2.008 -4.486,4.485c0,2.478 1.495,4.485 4.486,4.485Z" style="fill:url(#_Radial22);fill-rule:nonzero;"/><path d="M20.117,15.96c2.992,0 4.486,-2.007 4.486,-4.485c0,-2.477 -1.494,-4.485 -4.486,-4.485c-2.991,-0 -4.486,2.008 -4.486,4.485c0,2.478 1.495,4.485 4.486,4.485Z" style="fill:url(#_Radial23);fill-rule:nonzero;"/><path d="M20.117,15.96c2.992,0 4.486,-2.007 4.486,-4.485c0,-2.477 -1.494,-4.485 -4.486,-4.485c-2.991,-0 -4.486,2.008 -4.486,4.485c0,2.478 1.495,4.485 4.486,4.485Z" style="fill:url(#_Radial24);fill-rule:nonzero;"/><path d="M20.117,15.96c2.992,0 4.486,-2.007 4.486,-4.485c0,-2.477 -1.494,-4.485 -4.486,-4.485c-2.991,-0 -4.486,2.008 -4.486,4.485c0,2.478 1.495,4.485 4.486,4.485Z" style="fill:url(#_Radial25);fill-rule:nonzero;"/><path d="M20.117,15.96c2.992,0 4.486,-2.007 4.486,-4.485c0,-2.477 -1.494,-4.485 -4.486,-4.485c-2.991,-0 -4.486,2.008 -4.486,4.485c0,2.478 1.495,4.485 4.486,4.485Z" style="fill:url(#_Radial26);fill-rule:nonzero;"/><path d="M20.117,15.96c2.992,0 4.486,-2.007 4.486,-4.485c0,-2.477 -1.494,-4.485 -4.486,-4.485c-2.991,-0 -4.486,2.008 -4.486,4.485c0,2.478 1.495,4.485 4.486,4.485Z" style="fill:url(#_Radial27);fill-rule:nonzero;"/><path d="M20.117,15.96c2.992,0 4.486,-2.007 4.486,-4.485c0,-2.477 -1.494,-4.485 -4.486,-4.485c-2.991,-0 -4.486,2.008 -4.486,4.485c0,2.478 1.495,4.485 4.486,4.485Z" style="fill:url(#_Radial28);fill-rule:nonzero;"/><path d="M18.243,12.94c-0,-0 0.7,0.736 1.736,0.577" style="fill:none;fill-rule:nonzero;stroke:url(#_Radial29);stroke-width:0.64px;stroke-miterlimit:4;"/><g><path d="M16.128,11.026c0.071,0.289 0.271,0.842 0.914,1c0.096,0.025 0.191,0.042 0.286,0.054c0.004,0.002 0.008,0.002 0.013,0.002c1.38,0.13 2.291,-1.036 2.336,-2.305c0.004,-0.105 0.085,-0.195 0.189,-0.196c0.057,0 0.115,0 0.175,0.001c0.104,0.002 0.185,0.09 0.188,0.195c0.046,1.269 0.957,2.435 2.337,2.305c0.004,-0 0.009,-0 0.013,-0.002c0.095,-0.012 0.188,-0.029 0.285,-0.054c0.851,-0.21 1.38,-0.77 1.65,-1.371c-0.042,-0.253 -0.102,-0.5 -0.179,-0.737c-0.081,0.707 -0.459,0.796 -1.471,1.047c-0.083,0.02 -0.369,0.219 -0.454,0.231c-0.961,0.09 -1.231,-0.541 -1.776,-1.547l-0,-0.025c0.035,0.006 0.072,0.01 0.107,0.015l0.088,-0.568c0.1,-0.13 0.235,-0.233 0.392,-0.295c0.037,-0.015 0.122,-0.052 0.388,-0.101c0.274,-0.051 1.005,-0.051 1.451,-0.05l0.1,0c0.236,0 0.45,0.068 0.588,0.13c-0.113,-0.155 -0.237,-0.302 -0.373,-0.438c-0.07,-0.009 -0.143,-0.013 -0.215,-0.013l-0.1,0c-0.224,0 -0.52,0 -0.798,0.006c-0.268,0.007 -0.664,0.023 -0.831,0.054c-0.276,0.051 -0.387,0.093 -0.452,0.12c-0.176,0.071 -0.329,0.181 -0.449,0.317c-0.079,0.091 -0.19,0.151 -0.31,0.145c-0.193,-0.008 -0.374,-0.007 -0.535,-0.001c-0.119,0.005 -0.23,-0.054 -0.309,-0.145c-0.12,-0.137 -0.272,-0.245 -0.449,-0.316c-0.064,-0.027 -0.176,-0.069 -0.451,-0.12c-0.168,-0.031 -0.565,-0.047 -0.833,-0.054c-0.276,-0.006 -0.574,-0.006 -0.796,-0.006l-0.004,0c-0.106,0.106 -0.206,0.218 -0.298,0.336c0.065,-0.009 0.131,-0.015 0.202,-0.015l0.099,0c0.446,-0.001 1.178,-0.001 1.451,0.05c0.265,0.049 0.352,0.086 0.389,0.101c0.15,0.059 0.281,0.157 0.381,0.281l0.11,0.581c0.026,-0.005 0.058,-0.01 0.095,-0.015l-0,0.026c0.058,1.348 -0.97,2.162 -1.931,2.073c-0.085,-0.013 -0.168,-0.028 -0.252,-0.049c-0.736,-0.182 -0.682,-0.723 -0.89,-1.239c-0.038,0.19 -0.055,0.394 -0.071,0.592Z" style="fill:url(#_Linear30);fill-rule:nonzero;"/></g><path d="M19.092,8.164c0.176,0.07 0.327,0.18 0.448,0.316c0.078,0.09 0.189,0.149 0.309,0.145c0.162,-0.006 0.342,-0.008 0.534,0c0.121,0.006 0.233,-0.054 0.312,-0.145c0.12,-0.136 0.272,-0.246 0.449,-0.316c0.064,-0.027 0.176,-0.068 0.451,-0.12c0.168,-0.031 0.565,-0.048 0.833,-0.054c0.276,-0.006 0.574,-0.006 0.796,-0.006l0.1,-0c0.382,-0 0.758,0.12 0.907,0.211c0.334,0.169 0.646,0.495 0.667,1.054c0.002,0.009 0.002,0.018 0.003,0.026c0.026,0.861 -0.509,2.093 -1.872,2.432c-0.096,0.023 -0.191,0.04 -0.286,0.054c-0.004,-0 -0.008,-0 -0.013,0.001c-1.38,0.129 -2.291,-1.037 -2.336,-2.305c-0.004,-0.105 -0.084,-0.194 -0.189,-0.195c-0.06,-0.002 -0.118,-0.002 -0.174,-0c-0.105,0.001 -0.187,0.089 -0.189,0.195c-0.045,1.268 -0.957,2.434 -2.337,2.305c-0.004,-0.001 -0.009,-0.001 -0.013,-0.001c-0.095,-0.014 -0.189,-0.031 -0.285,-0.054c-1.364,-0.339 -1.899,-1.571 -1.872,-2.432c-0,-0.008 0.001,-0.017 0.001,-0.026c0.023,-0.559 0.333,-0.885 0.669,-1.054c0.149,-0.091 0.525,-0.211 0.906,-0.211l0.101,-0c0.222,-0 0.519,-0 0.796,0.006c0.268,0.006 0.665,0.023 0.832,0.054c0.276,0.052 0.387,0.093 0.452,0.12Zm-3.304,0.801c0.08,-0.195 0.229,-0.355 0.43,-0.475c0.112,-0.068 0.384,-0.186 0.693,-0.186l0.1,0c0.445,0 1.176,-0.001 1.451,0.051c0.266,0.048 0.351,0.085 0.387,0.101c0.151,0.058 0.282,0.157 0.382,0.28l0.11,0.581c0.026,-0.004 0.058,-0.009 0.096,-0.015l-0,0.026c0.057,1.35 -0.971,2.163 -1.932,2.073c-0.085,-0.013 -0.168,-0.027 -0.25,-0.048c-1.013,-0.25 -1.438,-1.049 -1.519,-1.754c-0.013,-0.11 -0.018,-0.216 -0.014,-0.318l0,-0.006c0.005,-0.112 0.027,-0.215 0.066,-0.31Zm5.011,0.34l-0,0.023c-0.058,1.35 0.969,2.163 1.931,2.073c0.085,-0.013 0.167,-0.027 0.251,-0.048c1.013,-0.25 1.438,-1.049 1.519,-1.754c0.013,-0.11 0.017,-0.216 0.014,-0.318l-0,-0.003l-0.001,-0l-0,-0.003c-0.005,-0.112 -0.028,-0.215 -0.067,-0.31c-0.08,-0.195 -0.229,-0.355 -0.429,-0.475c-0.112,-0.068 -0.383,-0.186 -0.693,-0.186l-0.099,0c-0.447,0 -1.178,-0.001 -1.451,0.051c-0.266,0.048 -0.352,0.085 -0.389,0.101c-0.156,0.061 -0.291,0.164 -0.392,0.294l-0.088,0.57c-0.036,-0.006 -0.071,-0.011 -0.106,-0.015Z" style="fill:url(#_Radial31);"/><path d="M19.092,8.164c0.176,0.07 0.327,0.18 0.448,0.316c0.078,0.09 0.189,0.149 0.309,0.145c0.162,-0.006 0.342,-0.008 0.534,0c0.121,0.006 0.233,-0.054 0.312,-0.145c0.12,-0.136 0.272,-0.246 0.449,-0.316c0.064,-0.027 0.176,-0.068 0.451,-0.12c0.168,-0.031 0.565,-0.048 0.833,-0.054c0.276,-0.006 0.574,-0.006 0.796,-0.006l0.1,-0c0.382,-0 0.758,0.12 0.907,0.211c0.334,0.169 0.646,0.495 0.667,1.054c0.002,0.009 0.002,0.018 0.003,0.026c0.026,0.861 -0.509,2.093 -1.872,2.432c-0.096,0.023 -0.191,0.04 -0.286,0.054c-0.004,-0 -0.008,-0 -0.013,0.001c-1.38,0.129 -2.291,-1.037 -2.336,-2.305c-0.004,-0.105 -0.084,-0.194 -0.189,-0.195c-0.06,-0.002 -0.118,-0.002 -0.174,-0c-0.105,0.001 -0.187,0.089 -0.189,0.195c-0.045,1.268 -0.957,2.434 -2.337,2.305c-0.004,-0.001 -0.009,-0.001 -0.013,-0.001c-0.095,-0.014 -0.189,-0.031 -0.285,-0.054c-1.364,-0.339 -1.899,-1.571 -1.872,-2.432c-0,-0.008 0.001,-0.017 0.001,-0.026c0.023,-0.559 0.333,-0.885 0.669,-1.054c0.149,-0.091 0.525,-0.211 0.906,-0.211l0.101,-0c0.222,-0 0.519,-0 0.796,0.006c0.268,0.006 0.665,0.023 0.832,0.054c0.276,0.052 0.387,0.093 0.452,0.12Zm-3.304,0.801c0.08,-0.195 0.229,-0.355 0.43,-0.475c0.112,-0.068 0.384,-0.186 0.693,-0.186l0.1,0c0.445,0 1.176,-0.001 1.451,0.051c0.266,0.048 0.351,0.085 0.387,0.101c0.151,0.058 0.282,0.157 0.382,0.28l0.11,0.581c0.026,-0.004 0.058,-0.009 0.096,-0.015l-0,0.026c0.057,1.35 -0.971,2.163 -1.932,2.073c-0.085,-0.013 -0.168,-0.027 -0.25,-0.048c-1.013,-0.25 -1.438,-1.049 -1.519,-1.754c-0.013,-0.11 -0.018,-0.216 -0.014,-0.318l0,-0.006c0.005,-0.112 0.027,-0.215 0.066,-0.31Zm5.011,0.34l-0,0.023c-0.058,1.35 0.969,2.163 1.931,2.073c0.085,-0.013 0.167,-0.027 0.251,-0.048c1.013,-0.25 1.438,-1.049 1.519,-1.754c0.013,-0.11 0.017,-0.216 0.014,-0.318l-0,-0.003l-0.001,-0l-0,-0.003c-0.005,-0.112 -0.028,-0.215 -0.067,-0.31c-0.08,-0.195 -0.229,-0.355 -0.429,-0.475c-0.112,-0.068 -0.383,-0.186 -0.693,-0.186l-0.099,0c-0.447,0 -1.178,-0.001 -1.451,0.051c-0.266,0.048 -0.352,0.085 -0.389,0.101c-0.156,0.061 -0.291,0.164 -0.392,0.294l-0.088,0.57c-0.036,-0.006 -0.071,-0.011 -0.106,-0.015Z" style="fill:url(#_Radial32);"/><path d="M19.092,8.164c0.176,0.07 0.327,0.18 0.448,0.316c0.078,0.09 0.189,0.149 0.309,0.145c0.162,-0.006 0.342,-0.008 0.534,0c0.121,0.006 0.233,-0.054 0.312,-0.145c0.12,-0.136 0.272,-0.246 0.449,-0.316c0.064,-0.027 0.176,-0.068 0.451,-0.12c0.168,-0.031 0.565,-0.048 0.833,-0.054c0.276,-0.006 0.574,-0.006 0.796,-0.006l0.1,-0c0.382,-0 0.758,0.12 0.907,0.211c0.334,0.169 0.646,0.495 0.667,1.054c0.002,0.009 0.002,0.018 0.003,0.026c0.026,0.861 -0.509,2.093 -1.872,2.432c-0.096,0.023 -0.191,0.04 -0.286,0.054c-0.004,-0 -0.008,-0 -0.013,0.001c-1.38,0.129 -2.291,-1.037 -2.336,-2.305c-0.004,-0.105 -0.084,-0.194 -0.189,-0.195c-0.06,-0.002 -0.118,-0.002 -0.174,-0c-0.105,0.001 -0.187,0.089 -0.189,0.195c-0.045,1.268 -0.957,2.434 -2.337,2.305c-0.004,-0.001 -0.009,-0.001 -0.013,-0.001c-0.095,-0.014 -0.189,-0.031 -0.285,-0.054c-1.364,-0.339 -1.899,-1.571 -1.872,-2.432c-0,-0.008 0.001,-0.017 0.001,-0.026c0.023,-0.559 0.333,-0.885 0.669,-1.054c0.149,-0.091 0.525,-0.211 0.906,-0.211l0.101,-0c0.222,-0 0.519,-0 0.796,0.006c0.268,0.006 0.665,0.023 0.832,0.054c0.276,0.052 0.387,0.093 0.452,0.12Zm-3.304,0.801c0.08,-0.195 0.229,-0.355 0.43,-0.475c0.112,-0.068 0.384,-0.186 0.693,-0.186l0.1,0c0.445,0 1.176,-0.001 1.451,0.051c0.266,0.048 0.351,0.085 0.387,0.101c0.151,0.058 0.282,0.157 0.382,0.28l0.11,0.581c0.026,-0.004 0.058,-0.009 0.096,-0.015l-0,0.026c0.057,1.35 -0.971,2.163 -1.932,2.073c-0.085,-0.013 -0.168,-0.027 -0.25,-0.048c-1.013,-0.25 -1.438,-1.049 -1.519,-1.754c-0.013,-0.11 -0.018,-0.216 -0.014,-0.318l0,-0.006c0.005,-0.112 0.027,-0.215 0.066,-0.31Zm5.011,0.34l-0,0.023c-0.058,1.35 0.969,2.163 1.931,2.073c0.085,-0.013 0.167,-0.027 0.251,-0.048c1.013,-0.25 1.438,-1.049 1.519,-1.754c0.013,-0.11 0.017,-0.216 0.014,-0.318l-0,-0.003l-0.001,-0l-0,-0.003c-0.005,-0.112 -0.028,-0.215 -0.067,-0.31c-0.08,-0.195 -0.229,-0.355 -0.429,-0.475c-0.112,-0.068 -0.383,-0.186 -0.693,-0.186l-0.099,0c-0.447,0 -1.178,-0.001 -1.451,0.051c-0.266,0.048 -0.352,0.085 -0.389,0.101c-0.156,0.061 -0.291,0.164 -0.392,0.294l-0.088,0.57c-0.036,-0.006 -0.071,-0.011 -0.106,-0.015Z" style="fill:url(#_Radial33);"/><path d="M16.218,8.49c0.112,-0.068 0.384,-0.186 0.693,-0.186l0.1,0c0.445,0 1.176,-0.001 1.451,0.051c0.266,0.048 0.351,0.085 0.387,0.101c0.344,0.135 0.588,0.47 0.588,0.862l-0,0.01c0.057,1.35 -0.971,2.163 -1.932,2.073c-0.085,-0.013 -0.168,-0.027 -0.25,-0.048c-1.171,-0.289 -1.557,-1.31 -1.533,-2.075c0.014,-0.341 0.196,-0.608 0.496,-0.788Z" style="fill:url(#_Radial34);fill-rule:nonzero;"/><path d="M16.218,8.49c0.112,-0.068 0.384,-0.186 0.693,-0.186l0.1,0c0.445,0 1.176,-0.001 1.451,0.051c0.266,0.048 0.351,0.085 0.387,0.101c0.344,0.135 0.588,0.47 0.588,0.862l-0,0.01c0.057,1.35 -0.971,2.163 -1.932,2.073c-0.085,-0.013 -0.168,-0.027 -0.25,-0.048c-1.171,-0.289 -1.557,-1.31 -1.533,-2.075c0.014,-0.341 0.196,-0.608 0.496,-0.788Z" style="fill:url(#_Radial35);fill-rule:nonzero;"/><path d="M16.218,8.49c0.112,-0.068 0.384,-0.186 0.693,-0.186l0.1,0c0.445,0 1.176,-0.001 1.451,0.051c0.266,0.048 0.351,0.085 0.387,0.101c0.344,0.135 0.588,0.47 0.588,0.862l-0,0.01c0.057,1.35 -0.971,2.163 -1.932,2.073c-0.085,-0.013 -0.168,-0.027 -0.25,-0.048c-1.171,-0.289 -1.557,-1.31 -1.533,-2.075c0.014,-0.341 0.196,-0.608 0.496,-0.788Z" style="fill:url(#_Radial36);fill-rule:nonzero;"/><path d="M16.218,8.49c0.112,-0.068 0.384,-0.186 0.693,-0.186l0.1,0c0.445,0 1.176,-0.001 1.451,0.051c0.266,0.048 0.351,0.085 0.387,0.101c0.344,0.135 0.588,0.47 0.588,0.862l-0,0.01c0.057,1.35 -0.971,2.163 -1.932,2.073c-0.085,-0.013 -0.168,-0.027 -0.25,-0.048c-1.171,-0.289 -1.557,-1.31 -1.533,-2.075c0.014,-0.341 0.196,-0.608 0.496,-0.788Z" style="fill:url(#_Radial37);fill-rule:nonzero;"/><path d="M18.297,8.736c0.238,-0.115 0.548,0.034 0.693,0.333c0.146,0.3 0.071,0.635 -0.168,0.75c-0.237,0.117 -0.548,-0.033 -0.693,-0.331c-0.145,-0.3 -0.07,-0.637 0.168,-0.752Z" style="fill:url(#_Linear38);"/><path d="M24.017,8.49c-0.112,-0.068 -0.383,-0.186 -0.693,-0.186l-0.099,0c-0.447,0 -1.178,-0.001 -1.451,0.051c-0.266,0.048 -0.352,0.085 -0.389,0.101c-0.344,0.135 -0.586,0.47 -0.586,0.862l-0,0.01c-0.058,1.35 0.969,2.163 1.931,2.073c0.085,-0.013 0.167,-0.027 0.251,-0.048c1.17,-0.289 1.556,-1.31 1.533,-2.075l-0.001,-0c-0.013,-0.341 -0.197,-0.608 -0.496,-0.788Z" style="fill:url(#_Radial39);fill-rule:nonzero;"/><path d="M24.017,8.49c-0.112,-0.068 -0.383,-0.186 -0.693,-0.186l-0.099,0c-0.447,0 -1.178,-0.001 -1.451,0.051c-0.266,0.048 -0.352,0.085 -0.389,0.101c-0.344,0.135 -0.586,0.47 -0.586,0.862l-0,0.01c-0.058,1.35 0.969,2.163 1.931,2.073c0.085,-0.013 0.167,-0.027 0.251,-0.048c1.17,-0.289 1.556,-1.31 1.533,-2.075l-0.001,-0c-0.013,-0.341 -0.197,-0.608 -0.496,-0.788Z" style="fill:url(#_Radial40);fill-rule:nonzero;"/><path d="M24.017,8.49c-0.112,-0.068 -0.383,-0.186 -0.693,-0.186l-0.099,0c-0.447,0 -1.178,-0.001 -1.451,0.051c-0.266,0.048 -0.352,0.085 -0.389,0.101c-0.344,0.135 -0.586,0.47 -0.586,0.862l-0,0.01c-0.058,1.35 0.969,2.163 1.931,2.073c0.085,-0.013 0.167,-0.027 0.251,-0.048c1.17,-0.289 1.556,-1.31 1.533,-2.075l-0.001,-0c-0.013,-0.341 -0.197,-0.608 -0.496,-0.788Z" style="fill:url(#_Radial41);fill-rule:nonzero;"/><path d="M24.017,8.49c-0.112,-0.068 -0.383,-0.186 -0.693,-0.186l-0.099,0c-0.447,0 -1.178,-0.001 -1.451,0.051c-0.266,0.048 -0.352,0.085 -0.389,0.101c-0.344,0.135 -0.586,0.47 -0.586,0.862l-0,0.01c-0.058,1.35 0.969,2.163 1.931,2.073c0.085,-0.013 0.167,-0.027 0.251,-0.048c1.17,-0.289 1.556,-1.31 1.533,-2.075l-0.001,-0c-0.013,-0.341 -0.197,-0.608 -0.496,-0.788Z" style="fill:url(#_Radial42);fill-rule:nonzero;"/><path d="M23.435,8.736c0.238,-0.115 0.548,0.034 0.693,0.333c0.146,0.3 0.07,0.635 -0.168,0.75c-0.237,0.117 -0.548,-0.033 -0.693,-0.331c-0.145,-0.3 -0.069,-0.637 0.168,-0.752Z" style="fill:url(#_Linear43);"/></g></g><defs><linearGradient id="_Linear1" x1="0" y1="0" x2="1" y2="0" gradientUnits="userSpaceOnUse" gradientTransform="matrix(1.64921e-15,26.9336,-26.9336,1.64921e-15,16,3.03516)"><stop offset="0" style="stop-color:#e8a874;stop-opacity:1"/><stop offset="1" style="stop-color:#db925d;stop-opacity:1"/></linearGradient><radialGradient id="_Radial2" cx="0" cy="0" r="1" gradientUnits="userSpaceOnUse" gradientTransform="matrix(-9.57142e-16,-2.5,2.02864,-7.76679e-16,15.6855,5.3125)"><stop offset="0" style="stop-color:#d79769;stop-opacity:1"/><stop offset="1" style="stop-color:#d79769;stop-opacity:0"/></radialGradient><linearGradient id="_Linear3" x1="0" y1="0" x2="1" y2="0" gradientUnits="userSpaceOnUse" gradientTransform="matrix(1.38275e-15,22.582,-22.582,1.38275e-15,15.8762,5.17205)"><stop offset="0" style="stop-color:#eae2f4;stop-opacity:1"/><stop offset="1" style="stop-color:#e4daef;stop-opacity:1"/></linearGradient><linearGradient id="_Linear4" x1="0" y1="0" x2="1" y2="0" gradientUnits="userSpaceOnUse" gradientTransform="matrix(-3.0625,4.4375,-4.4375,-3.0625,18.7168,3.78125)"><stop offset="0" style="stop-color:#948a94;stop-opacity:1"/><stop offset="1" style="stop-color:#8d8291;stop-opacity:1"/></linearGradient><linearGradient id="_Linear5" x1="0" y1="0" x2="1" y2="0" gradientUnits="userSpaceOnUse" gradientTransform="matrix(1.58878,0,0,1.52886,13.0527,16.6062)"><stop offset="0" style="stop-color:#4b4b4b;stop-opacity:1"/><stop offset="0.09" style="stop-color:#2b2b2b;stop-opacity:1"/><stop offset="0.19" style="stop-color:#0d0d0d;stop-opacity:1"/><stop offset="0.47" style="stop-color:#000;stop-opacity:1"/><stop offset="0.79" style="stop-color:#0b0b0b;stop-opacity:1"/><stop offset="0.9" style="stop-color:#242424;stop-opacity:1"/><stop offset="1" style="stop-color:#3d3d3d;stop-opacity:1"/></linearGradient><linearGradient id="_Linear6" x1="0" y1="0" x2="1" y2="0" gradientUnits="userSpaceOnUse" gradientTransform="matrix(3.08716,0.72798,-0.0918192,0.389379,12.5994,14.0543)"><stop offset="0" style="stop-color:#4b4b4b;stop-opacity:1"/><stop offset="0.09" style="stop-color:#2b2b2b;stop-opacity:1"/><stop offset="0.19" style="stop-color:#0d0d0d;stop-opacity:1"/><stop offset="0.47" style="stop-color:#000;stop-opacity:1"/><stop offset="0.79" style="stop-color:#0b0b0b;stop-opacity:1"/><stop offset="0.9" style="stop-color:#242424;stop-opacity:1"/><stop offset="1" style="stop-color:#3d3d3d;stop-opacity:1"/></linearGradient><radialGradient id="_Radial7" cx="0" cy="0" r="1" gradientUnits="userSpaceOnUse" gradientTransform="matrix(-7.74185,8.34904,-8.34904,-7.74185,15.2027,20.8087)"><stop offset="0" style="stop-color:#fff478;stop-opacity:1"/><stop offset="0.47" style="stop-color:#ffb02e;stop-opacity:1"/><stop offset="1" style="stop-color:#f70a8d;stop-opacity:1"/></radialGradient><radialGradient id="_Radial8" cx="0" cy="0" r="1" gradientUnits="userSpaceOnUse" gradientTransform="matrix(-7.89367,8.80445,-8.80445,-7.89367,15.2027,20.8087)"><stop offset="0" style="stop-color:#fff478;stop-opacity:1"/><stop offset="0.47" style="stop-color:#ffb02e;stop-opacity:1"/><stop offset="1" style="stop-color:#f70a8d;stop-opacity:1"/></radialGradient><radialGradient id="_Radial9" cx="0" cy="0" r="1" gradientUnits="userSpaceOnUse" gradientTransform="matrix(-1.06262,5.31304,-6.805,-1.36101,12.3184,21.8713)"><stop offset="0" style="stop-color:#f59639;stop-opacity:0"/><stop offset="0.79" style="stop-color:#f59639;stop-opacity:0"/><stop offset="0.97" style="stop-color:#ff7dce;stop-opacity:1"/><stop offset="1" style="stop-color:#ff7dce;stop-opacity:1"/></radialGradient><radialGradient id="_Radial10" cx="0" cy="0" r="1" gradientUnits="userSpaceOnUse" gradientTransform="matrix(-8.80446,8.80446,-8.80446,-8.80446,12.9255,22.3266)"><stop offset="0" style="stop-color:#000;stop-opacity:0"/><stop offset="0.31" style="stop-color:#000;stop-opacity:0"/><stop offset="1" style="stop-color:#000;stop-opacity:0.6"/></radialGradient><radialGradient id="_Radial11" cx="0" cy="0" r="1" gradientUnits="userSpaceOnUse" gradientTransform="matrix(1.82161,8.34905,-8.34905,1.82161,12.3184,23.2374)"><stop offset="0" style="stop-color:#7d6133;stop-opacity:0"/><stop offset="0.51" style="stop-color:#7d6133;stop-opacity:0"/><stop offset="1" style="stop-color:#715b32;stop-opacity:1"/></radialGradient><radialGradient id="_Radial12" cx="0" cy="0" r="1" gradientUnits="userSpaceOnUse" gradientTransform="matrix(2.27701,3.33961,-2.42073,1.6505,12.4702,23.0857)"><stop offset="0" style="stop-color:#ffb849;stop-opacity:1"/><stop offset="1" style="stop-color:#ffb847;stop-opacity:0"/></radialGradient><radialGradient id="_Radial13" cx="0" cy="0" r="1" gradientUnits="userSpaceOnUse" gradientTransform="matrix(3.49142,0.607204,-0.607204,3.49142,13.6846,23.541)"><stop offset="0" style="stop-color:#ffa64b;stop-opacity:1"/><stop offset="0.9" style="stop-color:#ffae46;stop-opacity:0"/><stop offset="1" style="stop-color:#ffae46;stop-opacity:0"/></radialGradient><radialGradient id="_Radial14" cx="0" cy="0" r="1" gradientUnits="userSpaceOnUse" gradientTransform="matrix(12.9031,12.4477,-12.4477,12.9031,12.7738,22.6303)"><stop offset="0" style="stop-color:#000;stop-opacity:0"/><stop offset="0.19" style="stop-color:#000;stop-opacity:0"/><stop offset="1" style="stop-color:#000;stop-opacity:0.4"/></radialGradient><radialGradient id="_Radial15" cx="0" cy="0" r="1" gradientUnits="userSpaceOnUse" gradientTransform="matrix(-1.63363,-3.13315,4.8321,-2.51947,11.9268,26.4636)"><stop offset="0" style="stop-color:#2e1529;stop-opacity:1"/><stop offset="0.15" style="stop-color:#2e1529;stop-opacity:1"/><stop offset="0.28" style="stop-color:#503a4a;stop-opacity:1"/><stop offset="0.34" style="stop-color:#4b2744;stop-opacity:1"/><stop offset="1" style="stop-color:#4b2744;stop-opacity:1"/></radialGradient><linearGradient id="_Linear16" x1="0" y1="0" x2="1" y2="0" gradientUnits="userSpaceOnUse" gradientTransform="matrix(3.71805e-17,0.607204,-0.607204,3.71805e-17,12.3184,21.7195)"><stop offset="0" style="stop-color:#5f5253;stop-opacity:1"/><stop offset="1" style="stop-color:#4d2c4f;stop-opacity:1"/></linearGradient><radialGradient id="_Radial17" cx="0" cy="0" r="1" gradientUnits="userSpaceOnUse" gradientTransform="matrix(-2.12521,2.42881,-2.42881,-2.12521,11.4076,21.4158)"><stop offset="0" style="stop-color:#54424a;stop-opacity:1"/><stop offset="1" style="stop-color:#52394d;stop-opacity:1"/></radialGradient><radialGradient id="_Radial18" cx="0" cy="0" r="1" gradientUnits="userSpaceOnUse" gradientTransform="matrix(-2.12521,2.42881,-2.42881,-2.12521,15.3545,21.4158)"><stop offset="0" style="stop-color:#54424a;stop-opacity:1"/><stop offset="1" style="stop-color:#52394d;stop-opacity:1"/></radialGradient><radialGradient id="_Radial19" cx="0" cy="0" r="1" gradientUnits="userSpaceOnUse" gradientTransform="matrix(-1.82161,0.303592,-0.303592,-1.82161,10.4968,22.1748)"><stop offset="0" style="stop-color:#3b2131;stop-opacity:0"/><stop offset="0.9" style="stop-color:#3b2131;stop-opacity:0"/><stop offset="1" style="stop-color:#422833;stop-opacity:1"/></radialGradient><radialGradient id="_Radial20" cx="0" cy="0" r="1" gradientUnits="userSpaceOnUse" gradientTransform="matrix(-1.82161,0.303592,-0.303592,-1.82161,14.4436,22.1748)"><stop offset="0" style="stop-color:#3b2131;stop-opacity:0"/><stop offset="0.9" style="stop-color:#3b2131;stop-opacity:0"/><stop offset="1" style="stop-color:#422833;stop-opacity:1"/></radialGradient><radialGradient id="_Radial21" cx="0" cy="0" r="1" gradientUnits="userSpaceOnUse" gradientTransform="matrix(-8.171,8.81183,-8.81183,-8.171,23.1617,9.23235)"><stop offset="0" style="stop-color:#fff478;stop-opacity:1"/><stop offset="0.47" style="stop-color:#ffb02e;stop-opacity:1"/><stop offset="1" style="stop-color:#f70a8d;stop-opacity:1"/></radialGradient><radialGradient id="_Radial22" cx="0" cy="0" r="1" gradientUnits="userSpaceOnUse" gradientTransform="matrix(-8.33122,9.29248,-9.29248,-8.33122,23.1617,9.23235)"><stop offset="0" style="stop-color:#fff478;stop-opacity:1"/><stop offset="0.47" style="stop-color:#ffb02e;stop-opacity:1"/><stop offset="1" style="stop-color:#f70a8d;stop-opacity:1"/></radialGradient><radialGradient id="_Radial23" cx="0" cy="0" r="1" gradientUnits="userSpaceOnUse" gradientTransform="matrix(-1.12152,5.60755,-7.1822,-1.43644,20.1176,10.3539)"><stop offset="0" style="stop-color:#f59639;stop-opacity:0"/><stop offset="0.79" style="stop-color:#f59639;stop-opacity:0"/><stop offset="0.97" style="stop-color:#ff7dce;stop-opacity:1"/><stop offset="1" style="stop-color:#ff7dce;stop-opacity:1"/></radialGradient><radialGradient id="_Radial24" cx="0" cy="0" r="1" gradientUnits="userSpaceOnUse" gradientTransform="matrix(-9.2925,9.2925,-9.2925,-9.2925,20.7585,10.8345)"><stop offset="0" style="stop-color:#000;stop-opacity:0"/><stop offset="0.31" style="stop-color:#000;stop-opacity:0"/><stop offset="1" style="stop-color:#000;stop-opacity:0.6"/></radialGradient><radialGradient id="_Radial25" cx="0" cy="0" r="1" gradientUnits="userSpaceOnUse" gradientTransform="matrix(1.92258,8.81184,-8.81184,1.92258,20.1176,11.7957)"><stop offset="0" style="stop-color:#7d6133;stop-opacity:0"/><stop offset="0.51" style="stop-color:#7d6133;stop-opacity:0"/><stop offset="1" style="stop-color:#715b32;stop-opacity:1"/></radialGradient><radialGradient id="_Radial26" cx="0" cy="0" r="1" gradientUnits="userSpaceOnUse" gradientTransform="matrix(2.40322,3.52474,-2.55491,1.74199,20.2779,11.6356)"><stop offset="0" style="stop-color:#ffb849;stop-opacity:1"/><stop offset="1" style="stop-color:#ffb847;stop-opacity:0"/></radialGradient><radialGradient id="_Radial27" cx="0" cy="0" r="1" gradientUnits="userSpaceOnUse" gradientTransform="matrix(3.68495,0.640862,-0.640862,3.68495,21.5595,12.1162)"><stop offset="0" style="stop-color:#ffa64b;stop-opacity:1"/><stop offset="0.9" style="stop-color:#ffae46;stop-opacity:0"/><stop offset="1" style="stop-color:#ffae46;stop-opacity:0"/></radialGradient><radialGradient id="_Radial28" cx="0" cy="0" r="1" gradientUnits="userSpaceOnUse" gradientTransform="matrix(13.6183,13.1376,-13.1376,13.6183,20.5982,11.1549)"><stop offset="0" style="stop-color:#000;stop-opacity:0"/><stop offset="0.19" style="stop-color:#000;stop-opacity:0"/><stop offset="1" style="stop-color:#000;stop-opacity:0.4"/></radialGradient><radialGradient id="_Radial29" cx="0" cy="0" r="1" gradientUnits="userSpaceOnUse" gradientTransform="matrix(0.536786,3.46337,-5.34138,0.82786,19.6637,12.335)"><stop offset="0" style="stop-color:#2e1529;stop-opacity:1"/><stop offset="0.15" style="stop-color:#2e1529;stop-opacity:1"/><stop offset="0.28" style="stop-color:#503a4a;stop-opacity:1"/><stop offset="0.34" style="stop-color:#4b2744;stop-opacity:1"/><stop offset="1" style="stop-color:#4b2744;stop-opacity:1"/></radialGradient><linearGradient id="_Linear30" x1="0" y1="0" x2="1" y2="0" gradientUnits="userSpaceOnUse" gradientTransform="matrix(-4.50607,1.7185,-1.7185,-4.50607,22.2604,10.1982)"><stop offset="0" style="stop-color:#e78f00;stop-opacity:1"/><stop offset="1" style="stop-color:#d07000;stop-opacity:1"/></linearGradient><radialGradient id="_Radial31" cx="0" cy="0" r="1" gradientUnits="userSpaceOnUse" gradientTransform="matrix(0.761027,3.8652,-8.00959,1.57703,21.7598,8.19164)"><stop offset="0" style="stop-color:#5f5b9b;stop-opacity:1"/><stop offset="1" style="stop-color:#5c3085;stop-opacity:1"/></radialGradient><radialGradient id="_Radial32" cx="0" cy="0" r="1" gradientUnits="userSpaceOnUse" gradientTransform="matrix(0.365452,1.72875,-1.94208,0.410549,22.646,9.87746)"><stop offset="0" style="stop-color:#77579c;stop-opacity:1"/><stop offset="0.78" style="stop-color:#77579c;stop-opacity:1"/><stop offset="0.94" style="stop-color:#77579c;stop-opacity:0"/><stop offset="1" style="stop-color:#77579c;stop-opacity:0"/></radialGradient><radialGradient id="_Radial33" cx="0" cy="0" r="1" gradientUnits="userSpaceOnUse" gradientTransform="matrix(-0.811086,-1.2617,0.926157,-0.595382,22.0001,9.55348)"><stop offset="0" style="stop-color:#4e3d92;stop-opacity:1"/><stop offset="0.77" style="stop-color:#4e3d92;stop-opacity:1"/><stop offset="1" style="stop-color:#534687;stop-opacity:0"/></radialGradient><radialGradient id="_Radial34" cx="0" cy="0" r="1" gradientUnits="userSpaceOnUse" gradientTransform="matrix(-1.00134,1.61217,-1.83145,-1.13755,18.4154,9.25307)"><stop offset="0" style="stop-color:#4c3d70;stop-opacity:1"/><stop offset="1" style="stop-color:#361c5d;stop-opacity:1"/></radialGradient><radialGradient id="_Radial35" cx="0" cy="0" r="1" gradientUnits="userSpaceOnUse" gradientTransform="matrix(0.120161,2.40324,-3.56864,0.178431,18.0248,9.30316)"><stop offset="0" style="stop-color:#5b2b84;stop-opacity:0"/><stop offset="0.65" style="stop-color:#5b2b84;stop-opacity:0"/><stop offset="1" style="stop-color:#5b2b84;stop-opacity:1"/></radialGradient><radialGradient id="_Radial36" cx="0" cy="0" r="1" gradientUnits="userSpaceOnUse" gradientTransform="matrix(-0.610822,-3.64489,3.6095,-0.604891,17.4841,11.7264)"><stop offset="0" style="stop-color:#2e1d57;stop-opacity:0"/><stop offset="0.86" style="stop-color:#2e1d57;stop-opacity:0"/><stop offset="1" style="stop-color:#20143d;stop-opacity:1"/></radialGradient><radialGradient id="_Radial37" cx="0" cy="0" r="1" gradientUnits="userSpaceOnUse" gradientTransform="matrix(-0.520696,2.40324,-2.25548,-0.488683,17.7945,9.06285)"><stop offset="0" style="stop-color:#2e1d57;stop-opacity:0"/><stop offset="0.87" style="stop-color:#2e1d57;stop-opacity:0"/><stop offset="1" style="stop-color:#20143d;stop-opacity:0.6"/></radialGradient><linearGradient id="_Linear38" x1="0" y1="0" x2="1" y2="0" gradientUnits="userSpaceOnUse" gradientTransform="matrix(0.0405663,1.10647,-1.10647,0.0405663,18.56,8.79817)"><stop offset="0" style="stop-color:#fff;stop-opacity:1"/><stop offset="0.97" style="stop-color:#fff;stop-opacity:0"/><stop offset="1" style="stop-color:#fff;stop-opacity:0"/></linearGradient><radialGradient id="_Radial39" cx="0" cy="0" r="1" gradientUnits="userSpaceOnUse" gradientTransform="matrix(-1.1015,1.81243,-2.72242,-1.65453,22.8913,9.12283)"><stop offset="0" style="stop-color:#4c3d70;stop-opacity:1"/><stop offset="1" style="stop-color:#361c5d;stop-opacity:1"/></radialGradient><radialGradient id="_Radial40" cx="0" cy="0" r="1" gradientUnits="userSpaceOnUse" gradientTransform="matrix(-0.120161,2.40324,-3.56864,-0.178431,22.2103,9.30316)"><stop offset="0" style="stop-color:#5b2b84;stop-opacity:0"/><stop offset="0.65" style="stop-color:#5b2b84;stop-opacity:0"/><stop offset="1" style="stop-color:#5b2b84;stop-opacity:1"/></radialGradient><radialGradient id="_Radial41" cx="0" cy="0" r="1" gradientUnits="userSpaceOnUse" gradientTransform="matrix(0.706583,-3.21434,3.18311,0.699717,22.6553,11.2959)"><stop offset="0" style="stop-color:#2e1d57;stop-opacity:0"/><stop offset="0.86" style="stop-color:#2e1d57;stop-opacity:0"/><stop offset="1" style="stop-color:#20143d;stop-opacity:1"/></radialGradient><radialGradient id="_Radial42" cx="0" cy="0" r="1" gradientUnits="userSpaceOnUse" gradientTransform="matrix(0.5207,2.40324,-2.25548,0.488685,22.4406,9.06285)"><stop offset="0" style="stop-color:#2e1d57;stop-opacity:0"/><stop offset="0.87" style="stop-color:#2e1d57;stop-opacity:0"/><stop offset="1" style="stop-color:#20143d;stop-opacity:0.6"/></radialGradient><linearGradient id="_Linear43" x1="0" y1="0" x2="1" y2="0" gradientUnits="userSpaceOnUse" gradientTransform="matrix(0.0405663,1.10647,-1.10647,0.0405663,23.6979,8.79817)"><stop offset="0" style="stop-color:#fff;stop-opacity:1"/><stop offset="0.97" style="stop-color:#fff;stop-opacity:0"/><stop offset="1" style="stop-color:#fff;stop-opacity:0"/></linearGradient></defs></svg>