<svg width="60" height="22" viewBox="0 0 60 22" fill="none" xmlns="http://www.w3.org/2000/svg">
<g clip-path="url(#clip0_58_156)">
<path fill-rule="evenodd" clip-rule="evenodd" d="M59.9988 9.62162L58.3307 12.1919C55.1052 10.0989 50.0093 9.59406 46.524 12.1439C43.762 14.1636 39.9121 18.636 36.7146 20.5247C34.8 21.6556 33.0197 21.9021 31.6232 21.1425C30.8069 20.6981 30.0525 19.8886 29.5092 18.5198C28.8981 16.9836 28.5113 14.5842 28.5113 11.0439C28.5113 8.10762 28.2678 6.07667 27.791 4.74959C27.5282 4.01994 27.2949 3.55676 26.8447 3.48323C26.4181 3.41339 25.9501 3.61687 25.4319 3.88948C24.2392 4.51576 22.9371 5.6253 21.6248 6.83293C19.5492 8.74111 17.4649 10.8937 15.7599 12.1441C10.8559 15.7411 3.98868 15.1437 -2.67029e-05 12.1321L1.84667 9.68701C4.90832 11.9994 10.1828 12.4355 13.9471 9.67367C16.7061 7.65008 20.4675 3.24129 23.572 1.41911C25.4645 0.308522 27.2167 0.102382 28.5911 0.910998C29.3735 1.37184 30.0998 2.19418 30.6209 3.5666C31.2069 5.11352 31.5759 7.51521 31.5759 11.0438C31.5759 13.5821 31.7694 15.443 32.1443 16.7571C32.3938 17.6353 32.6492 18.2121 33.0876 18.4511C33.3873 18.6141 33.7356 18.5221 34.1179 18.3881C34.8324 18.1381 35.5986 17.6464 36.4002 17.0407C39.2404 14.8946 42.3699 11.3858 44.7141 9.67101C49.2269 6.37038 55.8226 6.91236 59.9988 9.62162Z" fill="#F8F8F8"/>
</g>
<defs>
<clipPath id="clip0_58_156">
<rect width="59.9988" height="21.162" fill="white" transform="translate(0 0.418945)"/>
</clipPath>
</defs>
</svg>
