<svg viewBox="0 0 32 32" xmlns="http://www.w3.org/2000/svg" fill-rule="evenodd" clip-rule="evenodd"
     stroke-linejoin="round" stroke-miterlimit="2">
    <path d="M13.051 3.331c1.531-1.724 3.613-1.449 4.945 0l.812.94c.282.307.689.465 1.103.43l1.444-.43c1.969-.422 3.758 1.047 3.758 3.328v.86c.042.469.452.787.875.994l1.305.545c1.887.922 2.359 3.109.984 4.945l-.39.516c-.351.473-.279 1.095.07 1.57l.39.547c1.422 1.75.621 4.151-1.388 4.99l-1.123.469c-.423.177-.589.48-.668.932l-.078 1.468c-.274 2.016-2.064 2.926-3.5 2.723l-1.711-.457c-.411-.058-.922.078-1.196.508l-.617.844c-1.531 1.726-3.598 1.439-4.64.429l-1.139-1.379c-.298-.288-.674-.535-1.124-.365l-1.722.471c-1.421.201-3.096-.892-3.363-2.302l-.199-2.042a1.346 1.346 0 00-.753-.968l-1.208-.415c-1.817-.846-2.425-2.896-1.382-4.607l.681-.941a1.346 1.346 0 00-.034-1.452l-.507-.718c-1.438-2.047-.444-4.335 1.686-5.021l.47-.151c.518-.167 1.019-.598 1.062-1.141l.105-1.318c.17-2.14 2.122-3.368 4.176-2.743l.665.202c.64.25 1.142.037 1.492-.344l.719-.917z"
          fill="url(#a)" fill-rule="nonzero"/>
    <path d="M13.051 3.331c1.531-1.724 3.613-1.449 4.945 0l.812.94c.282.307.689.465 1.103.43l1.444-.43c1.969-.422 3.758 1.047 3.758 3.328v.86c.042.469.452.787.875.994l1.305.545c1.887.922 2.359 3.109.984 4.945l-.39.516c-.351.473-.279 1.095.07 1.57l.39.547c1.422 1.75.621 4.151-1.388 4.99l-1.123.469c-.423.177-.589.48-.668.932l-.078 1.468c-.274 2.016-2.064 2.926-3.5 2.723l-1.711-.457c-.411-.058-.922.078-1.196.508l-.617.844c-1.531 1.726-3.598 1.439-4.64.429l-1.139-1.379c-.298-.288-.674-.535-1.124-.365l-1.722.471c-1.421.201-3.096-.892-3.363-2.302l-.199-2.042a1.346 1.346 0 00-.753-.968l-1.208-.415c-1.817-.846-2.425-2.896-1.382-4.607l.681-.941a1.346 1.346 0 00-.034-1.452l-.507-.718c-1.438-2.047-.444-4.335 1.686-5.021l.47-.151c.518-.167 1.019-.598 1.062-1.141l.105-1.318c.17-2.14 2.122-3.368 4.176-2.743l.665.202c.64.25 1.142.037 1.492-.344l.719-.917z"
          fill="url(#b)" fill-rule="nonzero"/>
    <path d="M13.051 3.331c1.531-1.724 3.613-1.449 4.945 0l.812.94c.282.307.689.465 1.103.43l1.444-.43c1.969-.422 3.758 1.047 3.758 3.328v.86c.042.469.452.787.875.994l1.305.545c1.887.922 2.359 3.109.984 4.945l-.39.516c-.351.473-.279 1.095.07 1.57l.39.547c1.422 1.75.621 4.151-1.388 4.99l-1.123.469c-.423.177-.589.48-.668.932l-.078 1.468c-.274 2.016-2.064 2.926-3.5 2.723l-1.711-.457c-.411-.058-.922.078-1.196.508l-.617.844c-1.531 1.726-3.598 1.439-4.64.429l-1.139-1.379c-.298-.288-.674-.535-1.124-.365l-1.722.471c-1.421.201-3.096-.892-3.363-2.302l-.199-2.042a1.346 1.346 0 00-.753-.968l-1.208-.415c-1.817-.846-2.425-2.896-1.382-4.607l.681-.941a1.346 1.346 0 00-.034-1.452l-.507-.718c-1.438-2.047-.444-4.335 1.686-5.021l.47-.151c.518-.167 1.019-.598 1.062-1.141l.105-1.318c.17-2.14 2.122-3.368 4.176-2.743l.665.202c.64.25 1.142.037 1.492-.344l.719-.917z"
          fill="url(#c)" fill-rule="nonzero"/>
    <path d="M13.051 3.331c1.531-1.724 3.613-1.449 4.945 0l.812.94c.282.307.689.465 1.103.43l1.444-.43c1.969-.422 3.758 1.047 3.758 3.328v.86c.042.469.452.787.875.994l1.305.545c1.887.922 2.359 3.109.984 4.945l-.39.516c-.351.473-.279 1.095.07 1.57l.39.547c1.422 1.75.621 4.151-1.388 4.99l-1.123.469c-.423.177-.589.48-.668.932l-.078 1.468c-.274 2.016-2.064 2.926-3.5 2.723l-1.711-.457c-.411-.058-.922.078-1.196.508l-.617.844c-1.531 1.726-3.598 1.439-4.64.429l-1.139-1.379c-.298-.288-.674-.535-1.124-.365l-1.722.471c-1.421.201-3.096-.892-3.363-2.302l-.199-2.042a1.346 1.346 0 00-.753-.968l-1.208-.415c-1.817-.846-2.425-2.896-1.382-4.607l.681-.941a1.346 1.346 0 00-.034-1.452l-.507-.718c-1.438-2.047-.444-4.335 1.686-5.021l.47-.151c.518-.167 1.019-.598 1.062-1.141l.105-1.318c.17-2.14 2.122-3.368 4.176-2.743l.665.202c.64.25 1.142.037 1.492-.344l.719-.917z"
          fill="url(#d)" fill-rule="nonzero"/>
    <path d="M13.051 3.331c1.531-1.724 3.613-1.449 4.945 0l.812.94c.282.307.689.465 1.103.43l1.444-.43c1.969-.422 3.758 1.047 3.758 3.328v.86c.042.469.452.787.875.994l1.305.545c1.887.922 2.359 3.109.984 4.945l-.39.516c-.351.473-.279 1.095.07 1.57l.39.547c1.422 1.75.621 4.151-1.388 4.99l-1.123.469c-.423.177-.589.48-.668.932l-.078 1.468c-.274 2.016-2.064 2.926-3.5 2.723l-1.711-.457c-.411-.058-.922.078-1.196.508l-.617.844c-1.531 1.726-3.598 1.439-4.64.429l-1.139-1.379c-.298-.288-.674-.535-1.124-.365l-1.722.471c-1.421.201-3.096-.892-3.363-2.302l-.199-2.042a1.346 1.346 0 00-.753-.968l-1.208-.415c-1.817-.846-2.425-2.896-1.382-4.607l.681-.941a1.346 1.346 0 00-.034-1.452l-.507-.718c-1.438-2.047-.444-4.335 1.686-5.021l.47-.151c.518-.167 1.019-.598 1.062-1.141l.105-1.318c.17-2.14 2.122-3.368 4.176-2.743l.665.202c.64.25 1.142.037 1.492-.344l.719-.917z"
          fill="url(#e)" fill-rule="nonzero"/>
    <path d="M13.051 3.331c1.531-1.724 3.613-1.449 4.945 0l.812.94c.282.307.689.465 1.103.43l1.444-.43c1.969-.422 3.758 1.047 3.758 3.328v.86c.042.469.452.787.875.994l1.305.545c1.887.922 2.359 3.109.984 4.945l-.39.516c-.351.473-.279 1.095.07 1.57l.39.547c1.422 1.75.621 4.151-1.388 4.99l-1.123.469c-.423.177-.589.48-.668.932l-.078 1.468c-.274 2.016-2.064 2.926-3.5 2.723l-1.711-.457c-.411-.058-.922.078-1.196.508l-.617.844c-1.531 1.726-3.598 1.439-4.64.429l-1.139-1.379c-.298-.288-.674-.535-1.124-.365l-1.722.471c-1.421.201-3.096-.892-3.363-2.302l-.199-2.042a1.346 1.346 0 00-.753-.968l-1.208-.415c-1.817-.846-2.425-2.896-1.382-4.607l.681-.941a1.346 1.346 0 00-.034-1.452l-.507-.718c-1.438-2.047-.444-4.335 1.686-5.021l.47-.151c.518-.167 1.019-.598 1.062-1.141l.105-1.318c.17-2.14 2.122-3.368 4.176-2.743l.665.202c.64.25 1.142.037 1.492-.344l.719-.917z"
          fill="url(#f)" fill-rule="nonzero"/>
    <path d="M13.051 3.331c1.531-1.724 3.613-1.449 4.945 0l.812.94c.282.307.689.465 1.103.43l1.444-.43c1.969-.422 3.758 1.047 3.758 3.328v.86c.042.469.452.787.875.994l1.305.545c1.887.922 2.359 3.109.984 4.945l-.39.516c-.351.473-.279 1.095.07 1.57l.39.547c1.422 1.75.621 4.151-1.388 4.99l-1.123.469c-.423.177-.589.48-.668.932l-.078 1.468c-.274 2.016-2.064 2.926-3.5 2.723l-1.711-.457c-.411-.058-.922.078-1.196.508l-.617.844c-1.531 1.726-3.598 1.439-4.64.429l-1.139-1.379c-.298-.288-.674-.535-1.124-.365l-1.722.471c-1.421.201-3.096-.892-3.363-2.302l-.199-2.042a1.346 1.346 0 00-.753-.968l-1.208-.415c-1.817-.846-2.425-2.896-1.382-4.607l.681-.941a1.346 1.346 0 00-.034-1.452l-.507-.718c-1.438-2.047-.444-4.335 1.686-5.021l.47-.151c.518-.167 1.019-.598 1.062-1.141l.105-1.318c.17-2.14 2.122-3.368 4.176-2.743l.665.202c.64.25 1.142.037 1.492-.344l.719-.917z"
          fill="url(#g)" fill-rule="nonzero"/>
    <path d="M13.051 3.331c1.531-1.724 3.613-1.449 4.945 0l.812.94c.282.307.689.465 1.103.43l1.444-.43c1.969-.422 3.758 1.047 3.758 3.328v.86c.042.469.452.787.875.994l1.305.545c1.887.922 2.359 3.109.984 4.945l-.39.516c-.351.473-.279 1.095.07 1.57l.39.547c1.422 1.75.621 4.151-1.388 4.99l-1.123.469c-.423.177-.589.48-.668.932l-.078 1.468c-.274 2.016-2.064 2.926-3.5 2.723l-1.711-.457c-.411-.058-.922.078-1.196.508l-.617.844c-1.531 1.726-3.598 1.439-4.64.429l-1.139-1.379c-.298-.288-.674-.535-1.124-.365l-1.722.471c-1.421.201-3.096-.892-3.363-2.302l-.199-2.042a1.346 1.346 0 00-.753-.968l-1.208-.415c-1.817-.846-2.425-2.896-1.382-4.607l.681-.941a1.346 1.346 0 00-.034-1.452l-.507-.718c-1.438-2.047-.444-4.335 1.686-5.021l.47-.151c.518-.167 1.019-.598 1.062-1.141l.105-1.318c.17-2.14 2.122-3.368 4.176-2.743l.665.202c.64.25 1.142.037 1.492-.344l.719-.917z"
          fill="url(#h)" fill-rule="nonzero"/>
    <path d="M13.051 3.331c1.531-1.724 3.613-1.449 4.945 0l.812.94c.282.307.689.465 1.103.43l1.444-.43c1.969-.422 3.758 1.047 3.758 3.328v.86c.042.469.452.787.875.994l1.305.545c1.887.922 2.359 3.109.984 4.945l-.39.516c-.351.473-.279 1.095.07 1.57l.39.547c1.422 1.75.621 4.151-1.388 4.99l-1.123.469c-.423.177-.589.48-.668.932l-.078 1.468c-.274 2.016-2.064 2.926-3.5 2.723l-1.711-.457c-.411-.058-.922.078-1.196.508l-.617.844c-1.531 1.726-3.598 1.439-4.64.429l-1.139-1.379c-.298-.288-.674-.535-1.124-.365l-1.722.471c-1.421.201-3.096-.892-3.363-2.302l-.199-2.042a1.346 1.346 0 00-.753-.968l-1.208-.415c-1.817-.846-2.425-2.896-1.382-4.607l.681-.941a1.346 1.346 0 00-.034-1.452l-.507-.718c-1.438-2.047-.444-4.335 1.686-5.021l.47-.151c.518-.167 1.019-.598 1.062-1.141l.105-1.318c.17-2.14 2.122-3.368 4.176-2.743l.665.202c.64.25 1.142.037 1.492-.344l.719-.917z"
          fill="url(#i)" fill-rule="nonzero"/>
    <path d="M13.051 3.331c1.531-1.724 3.613-1.449 4.945 0l.812.94c.282.307.689.465 1.103.43l1.444-.43c1.969-.422 3.758 1.047 3.758 3.328v.86c.042.469.452.787.875.994l1.305.545c1.887.922 2.359 3.109.984 4.945l-.39.516c-.351.473-.279 1.095.07 1.57l.39.547c1.422 1.75.621 4.151-1.388 4.99l-1.123.469c-.423.177-.589.48-.668.932l-.078 1.468c-.274 2.016-2.064 2.926-3.5 2.723l-1.711-.457c-.411-.058-.922.078-1.196.508l-.617.844c-1.531 1.726-3.598 1.439-4.64.429l-1.139-1.379c-.298-.288-.674-.535-1.124-.365l-1.722.471c-1.421.201-3.096-.892-3.363-2.302l-.199-2.042a1.346 1.346 0 00-.753-.968l-1.208-.415c-1.817-.846-2.425-2.896-1.382-4.607l.681-.941a1.346 1.346 0 00-.034-1.452l-.507-.718c-1.438-2.047-.444-4.335 1.686-5.021l.47-.151c.518-.167 1.019-.598 1.062-1.141l.105-1.318c.17-2.14 2.122-3.368 4.176-2.743l.665.202c.64.25 1.142.037 1.492-.344l.719-.917z"
          fill="url(#j)" fill-rule="nonzero"/>
    <g transform="rotate(15 16 16)">
    <path d="M9.102 12.609c0-.335.272-.607.607-.607h1.91a1.947 1.947 0 01.455 3.839c-.083.02-.117.128-.055.186l1.445 1.356a.607.607 0 01-.831.885l-2.147-2.017a.101.101 0 00-.17.074v1.59a.607.607 0 01-1.214 0v-5.306zm1.213 1.971c0 .056.045.101.101.101h1.204a.733.733 0 100-1.466h-1.204a.101.101 0 00-.1.101v1.264zM4.725 12.07a.606.606 0 00-.607.607v5.2a.606.606 0 101.213 0v-1.802c0-.055.045-.1.101-.1h2.191a.606.606 0 100-1.214h-2.19a.101.101 0 01-.102-.1v-1.276c0-.056.045-.101.101-.101h2.23a.607.607 0 000-1.213H4.726zM14.995 12.07a.606.606 0 00-.606.607v5.2c0 .335.27.606.606.606h2.937a.606.606 0 100-1.213h-2.23a.101.101 0 01-.1-.101v-1.094c0-.055.045-.1.1-.1h2.19a.606.606 0 100-1.214h-2.19a.101.101 0 01-.1-.1v-1.276c0-.056.045-.101.1-.101h2.23a.606.606 0 100-1.213h-2.937zM19.386 12.677c0-.335.271-.606.606-.606h2.938a.606.606 0 110 1.213H20.7a.101.101 0 00-.101.1v1.276c0 .056.045.101.1.101h2.192a.607.607 0 010 1.213H20.7a.101.101 0 00-.101.101v1.094c0 .056.045.101.1.101h2.231a.607.607 0 010 1.213h-2.938a.606.606 0 01-.606-.606v-5.2z"
              fill="white" fill-rule="nonzero" transform="matrix(.92695 0 0 .92695 2.683 1.615)"/>
    </g>
    <defs>
        <radialGradient id="b" cx="0" cy="0" r="1" gradientUnits="userSpaceOnUse"
                        gradientTransform="matrix(-2.81491 2.5208 -2.22412 -2.48362 18.119 3.437)">
            <stop offset="0" stop-color="rgb(255,161,58)"/>
            <stop offset=".3" stop-color="rgb(255,161,58)"/>
            <stop offset="1" stop-color="rgb(255,161,58)" stop-opacity="0"/>
        </radialGradient>
        <radialGradient id="c" cx="0" cy="0" r="1" gradientUnits="userSpaceOnUse"
                        gradientTransform="matrix(2.26873 5.56226 -4.90764 2.00172 8.288 2.244)">
            <stop offset="0" stop-color="rgb(255,148,42)"/>
            <stop offset=".3" stop-color="rgb(255,148,42)"/>
            <stop offset="1" stop-color="rgb(255,148,42)" stop-opacity="0"/>
        </radialGradient>
        <radialGradient id="d" cx="0" cy="0" r="1" gradientUnits="userSpaceOnUse"
                        gradientTransform="matrix(-2.31074 -.6302 .87259 -3.19952 24.42 7.849)">
            <stop offset="0" stop-color="rgb(255,161,61)"/>
            <stop offset=".3" stop-color="rgb(255,161,61)"/>
            <stop offset="1" stop-color="rgb(255,161,61)" stop-opacity="0"/>
        </radialGradient>
        <radialGradient id="e" cx="0" cy="0" r="1" gradientUnits="userSpaceOnUse"
                        gradientTransform="matrix(-3.8232 1.84862 -1.36534 -2.82372 29.252 11.336)">
            <stop offset="0" stop-color="rgb(255,161,61)"/>
            <stop offset=".3" stop-color="rgb(255,161,61)"/>
            <stop offset="1" stop-color="rgb(255,161,61)" stop-opacity="0"/>
        </radialGradient>
        <radialGradient id="f" cx="0" cy="0" r="1" gradientUnits="userSpaceOnUse"
                        gradientTransform="matrix(-4.7055 -.5462 .3078 -2.65172 30.177 18.52)">
            <stop offset="0" stop-color="rgb(255,161,61)"/>
            <stop offset=".3" stop-color="rgb(255,161,61)"/>
            <stop offset="1" stop-color="rgb(255,161,61)" stop-opacity="0"/>
        </radialGradient>
        <radialGradient id="g" cx="0" cy="0" r="1" gradientUnits="userSpaceOnUse"
                        gradientTransform="matrix(3.09283 -2.98295 2.87372 2.97958 25.933 24.024)">
            <stop offset="0" stop-color="rgb(224,118,42)"/>
            <stop offset="1" stop-color="rgb(224,118,42)" stop-opacity="0"/>
        </radialGradient>
        <radialGradient id="h" cx="0" cy="0" r="1" gradientUnits="userSpaceOnUse"
                        gradientTransform="matrix(-2.01665 -2.60483 2.50944 -1.94281 6.019 23.015)">
            <stop offset="0" stop-color="rgb(224,118,42)"/>
            <stop offset="1" stop-color="rgb(224,118,42)" stop-opacity="0"/>
        </radialGradient>
        <radialGradient id="i" cx="0" cy="0" r="1" gradientUnits="userSpaceOnUse"
                        gradientTransform="matrix(3.02497 1.42845 -1.72649 3.6561 1.523 11.882)">
            <stop offset="0" stop-color="rgb(240,133,29)"/>
            <stop offset="1" stop-color="rgb(240,133,29)" stop-opacity="0"/>
        </radialGradient>
        <radialGradient id="j" cx="0" cy="0" r="1" gradientUnits="userSpaceOnUse"
                        gradientTransform="matrix(-3.09374 -2.37502 2.24062 -2.91867 21.492 28.795)">
            <stop offset="0" stop-color="rgb(227,116,91)"/>
            <stop offset=".34" stop-color="rgb(227,116,91)"/>
            <stop offset="1" stop-color="rgb(227,116,91)" stop-opacity="0"/>
        </radialGradient>
        <linearGradient id="a" x1="0" y1="0" x2="1" y2="0" gradientUnits="userSpaceOnUse"
                        gradientTransform="scale(-24.8832) rotate(-51.911 -.763 .848)">
            <stop offset="0" stop-color="rgb(252,139,35)"/>
            <stop offset="1" stop-color="rgb(230,118,57)"/>
        </linearGradient>
    </defs>
</svg>
