<svg xmlns="http://www.w3.org/2000/svg" viewBox="0 0 200 200"><path fill="#060606" d="M95 201H1V1h200v200H95m.612-118.297c11.6-2.788 27.742 3.431 34.468 13.198 2.518 3.658 2.58 7.258-.455 10.444-2.27 2.382-4.89 4.51-7.614 6.368-12.16 8.294-24.414 16.45-36.986 24.892 6.51 4.359 12.653 8.318 18.611 12.54 2.35 1.665 4.033 1.875 6.533.1 7.727-5.49 15.711-10.616 23.539-15.966 8.097-5.534 16.582-10.62 24.081-16.88 11.122-9.283 11.061-20.764.27-30.316-12.63-11.179-27.425-16.102-44.281-13.295-5.458.909-10.76 2.747-16.134 4.16l-.28-.527 21.992-14.919c-6.964-4.64-13.577-9.05-20.34-13.556L25.799 98.142l21.955 14.646c11.048-7.415 22.014-14.934 33.16-22.176 4.428-2.876 9.254-5.138 14.699-7.909z"/><path fill="#EDE3D0" d="M95.212 82.817c-5.045 2.657-9.871 4.919-14.298 7.795-11.147 7.242-22.113 14.761-33.161 22.176L25.798 98.142l73.219-49.196 20.339 13.556-21.992 14.92.28.526c5.374-1.413 10.676-3.251 16.134-4.16 16.856-2.807 31.652 2.116 44.28 13.295 10.792 9.552 10.853 21.033-.269 30.316-7.5 6.26-15.984 11.346-24.081 16.88-7.828 5.35-15.812 10.476-23.539 15.965-2.5 1.776-4.183 1.566-6.533-.1-5.958-4.221-12.102-8.18-18.61-12.54 12.571-8.442 24.825-16.597 36.985-24.89 2.724-1.86 5.344-3.987 7.614-6.37 3.036-3.185 2.973-6.785.455-10.443-6.726-9.767-22.869-15.986-34.868-13.084z"/></svg>