<svg viewBox="0 0 522 202" xmlns="http://www.w3.org/2000/svg" fill-rule="evenodd" clip-rule="evenodd" stroke-linejoin="round" stroke-miterlimit="2"><g fill-rule="nonzero"><path d="M271.3 170.29c0-25.24 16.13-39.77 34.49-39.77 10.28 0 16.98 4.56 22.1 9.31l-4.09 4.84c-4.87-4.53-10.5-8.02-17.86-8.02-15.44 0-27.35 13.77-27.35 33.64s10.85 33.35 27.26 33.35c8.08 0 15.03-3.9 20.21-8.71l3.58 4.87c-6.44 5.78-14.52 9.97-24.11 9.97-19.48.01-34.23-14.52-34.23-39.48zM362.91 180.82v-48.41h6.95v47.5c0 16 5.06 23.61 17.2 23.61 8.99 0 15.5-4.72 24.33-15.4v-55.71h6.95v75.48h-5.88l-.75-12.64h-.35c-7.42 8.68-15.22 14.52-25.62 14.52-15.6.01-22.83-9.46-22.83-28.95zM470.05 200.25h-.35l-.79 7.64h-5.78V94.81h6.95v32.82l-.35 14.71c7.62-6.44 16.8-11.82 25.98-11.82 20.25 0 30.23 15.15 30.23 38.49 0 25.64-15.47 40.76-33.26 40.76-7.2.01-15.53-3.73-22.63-9.52zm48.6-31.18c0-18.55-6.6-32.38-24.02-32.38-7.48 0-15.72 4.4-24.55 12.45v44.77c8.24 7.07 16.5 9.71 22.23 9.71 15.33 0 26.34-14.09 26.34-34.55zM557.85 170.29c0-24.61 16-39.77 32.91-39.77 17.89 0 28.89 12.73 28.89 34.93 0 1.89-.06 3.77-.39 5.66h-54.27c.25 19.05 11.41 32.66 28.42 32.66 8.17 0 14.62-2.7 20.28-6.7l2.86 5.28c-5.94 3.71-12.73 7.42-23.8 7.42-19.28.01-34.9-14.8-34.9-39.48zm55.26-4.9c0-19.27-8.74-28.86-22.29-28.86-12.76 0-24.3 10.81-25.87 28.86h48.16zM274.15 114.17l1.38-1.74c2.19 1.84 4.56 3.29 8.25 3.29 4.09 0 6.21-2.39 6.21-5.13 0-3.25-3.36-4.68-6.36-5.76-3.91-1.39-8.27-2.98-8.27-7.42 0-3.74 2.96-6.91 8.37-6.91 2.78 0 5.53 1.15 7.42 2.69l-1.29 1.72c-1.75-1.31-3.6-2.37-6.2-2.37-4.05 0-5.88 2.33-5.88 4.73 0 2.96 3.06 4.09 6.15 5.25 4.02 1.53 8.48 2.85 8.48 7.91 0 3.91-3.12 7.32-8.75 7.32-3.84.01-7.19-1.6-9.51-3.58zM304.69 91.15h2.02l.26 4.03h.12c2.36-2.64 5.31-4.68 8.21-4.68 4.16 0 6.24 2.1 7.17 5.3 2.95-3.24 5.82-5.3 8.81-5.3 5.17 0 7.76 3.25 7.76 9.96v16.65h-2.39v-16.34c0-5.5-1.84-8.12-5.82-8.12-2.44 0-4.91 1.62-7.77 4.88v19.58h-2.39v-16.34c0-5.5-1.84-8.12-5.82-8.12-2.35 0-4.91 1.62-7.77 4.88v19.58h-2.39V91.15zM352.14 110.65c0-5.77 5.2-8.51 16.75-9.79.08-3.99-1.02-8.26-6.12-8.26-3.5 0-6.53 1.73-8.27 3.05l-1.1-1.77c1.84-1.3 5.44-3.37 9.66-3.37 6.15 0 8.23 4.47 8.23 10.02v16.59h-2.02l-.26-3.37h-.12c-2.65 2.14-5.81 4.02-9.21 4.02-4.13-.01-7.54-2.25-7.54-7.12zm16.74.86v-8.83c-10.66 1.23-14.3 3.71-14.3 7.85 0 3.72 2.52 5.16 5.5 5.16 2.98-.01 5.59-1.45 8.8-4.18zM385.94 91.15h2.03l.26 4.84h.12c1.76-3.19 4.3-5.49 7.38-5.49.95 0 1.72.12 2.57.54l-.54 2.16c-.88-.31-1.35-.43-2.35-.43-2.34 0-5.1 1.77-7.08 6.68v17.66h-2.39V91.15zM409.1 109.94V93.23h-4.05v-1.86l4.11-.23.3-7.51h2.03v7.51h7.53v2.09h-7.53v16.88c0 3.31.83 5.55 4.41 5.55.96 0 2.31-.41 3.25-.82l.63 1.94c-1.5.53-3.16.97-4.24.97-4.98.01-6.44-3.16-6.44-7.81z" fill="white" transform="translate(-98.54 -83.63)"/><path d="M238.03 193.92l-4.47.03.14 13.92-64.75 38.06-65.34-37.04-.58-75.11 64.75-38.06 65.34 37.05.14 15.46 4.47-.03-.16-18.05-69.83-39.59-69.2 40.68.62 80.26 69.83 39.59 69.2-40.67-.16-16.5z" fill="rgb(149,193,31)" transform="translate(-98.54 -83.63)"/><path d="M213.12 148.93v-6.06l-44.75-25.83-22.12 12.76-.02-.01-.02.03-22.46 12.98v4.85l84.5 48.78-17.17 9.92.07-.13-67.4-39.04v6.06l62.98 35.62-18.36 10.6-44.62-26.65v6.05l44.62 25.76 44.75-25.84v-4.7l-84.63-48.86 17.72-10.23 66.91 40.9v-6.07l-62.48-37.39 17.73-10.23 44.75 26.73z" fill="rgb(149,193,31)" transform="translate(-98.54 -83.63)"/><path d="M274.42 276.5l2.4-2.85c3.55 3.86 8.34 7.6 16.48 7.6 8.07 0 13.94-5.22 13.94-13.14 0-8.16-5.94-13.79-20.77-13.79v-3.63c13.74 0 18.57-5.8 18.57-12.92 0-6.73-4.74-11.11-12.02-11.11-5.42 0-10.23 2.85-13.63 6.52l-2.48-2.81c4.1-4.01 9.25-7.31 16.18-7.31 9.19 0 16.24 5.29 16.24 14.42 0 7.78-4.85 12.49-11.35 14.7v.37c7.38 1.55 13.55 7.05 13.55 15.51 0 10.35-7.94 16.83-18.23 16.83-9.51 0-15.08-4.35-18.88-8.39zM330.57 256.76c0-24.96 10.4-33.7 21.9-33.7 5.54 0 9.51 2.37 12.58 5.78l-2.52 2.8c-2.62-3.23-6.26-4.94-10.12-4.94-9.52 0-17.71 7.68-17.71 30.07 0 14.56 4.82 24.59 15.42 24.59 6.88 0 12.04-6.57 12.04-15.08 0-8.62-3.84-14.97-12.9-14.97-4.31 0-9.96 2.67-14.88 9.62l-.07-4.36c4.14-5.29 9.72-8.72 15.43-8.72 10.4 0 16.55 6.43 16.55 18.44 0 10.83-7.47 18.62-16.31 18.62-11.87-.02-19.41-10.07-19.41-28.15zM384.16 253.78c0-19.8 6.43-30.72 17.8-30.72 11.37 0 17.8 10.92 17.8 30.72 0 19.81-6.43 31.11-17.8 31.11-11.37 0-17.8-11.31-17.8-31.11zm31.41 0c0-18.17-5.35-27.14-13.61-27.14s-13.61 8.97-13.61 27.14 5.35 27.53 13.61 27.53 13.61-9.36 13.61-27.53z" fill="white" transform="translate(-98.54 -83.63)"/></g></svg>