<svg viewBox="0 0 512 512" xmlns="http://www.w3.org/2000/svg" fill-rule="evenodd" clip-rule="evenodd" stroke-linejoin="round" stroke-miterlimit="2"><path d="M437.022 74.978A256.117 256.117 0 00256.02.025C115.57.025-.004 115.598-.004 256.049a256.045 256.045 0 0038.061 134.314l5.684 9.2L0 512l112.44-43.74 9.2 5.683a256.039 256.039 0 00134.333 38.073c140.449 0 256.02-115.571 256.02-256.02a256.111 256.111 0 00-74.971-181.018zm-39.171 103.831a6.283 6.283 0 012.779 5.207v143.97c0 3.438-2.829 6.267-6.267 6.267a6.262 6.262 0 01-2.379-.469L320 304.347l-.333 22.607c-.178 12.088-9.313 23.18-21.86 23.18H133.249c-12.7 0-21.879-11.346-21.879-23.573V185.433c0-12.227 9.178-23.567 21.879-23.567h164.557c12.547 0 21.682 11.1 21.86 23.185l.334 22.611 71.987-29.453a6.268 6.268 0 015.864.6z" fill="#fff"/></svg>
