<svg width="838" height="974" viewBox="0 0 838 974" fill="none" xmlns="http://www.w3.org/2000/svg">
<g filter="url(#filter0_ii_40_118)">
<path fill-rule="evenodd" clip-rule="evenodd" d="M508.26 794.226H329.63C315.802 794.226 304.581 805.081 304.581 818.453C304.581 831.838 315.802 842.69 329.63 842.69H508.26C522.089 842.69 533.321 831.838 533.321 818.455C533.324 805.081 522.093 794.226 508.26 794.226ZM372.948 935.456C376.345 957.205 395.556 973.954 419.007 973.954C442.434 973.954 461.689 957.213 465.072 935.456C495.737 933.705 520.107 909.329 520.107 879.232H317.788C317.788 909.348 342.228 933.74 372.948 935.456ZM419.006 139.793C437.485 139.793 452.423 125.323 452.423 107.481V32.3121C452.423 14.462 437.488 0 419.006 0C400.544 0 385.607 14.462 385.607 32.3109V107.481C385.61 125.323 400.545 139.793 419.006 139.793ZM199.795 186.869C206.356 195.581 216.536 200.205 226.883 200.205C233.924 200.203 240.786 198.042 246.478 194.032C261.392 183.555 264.719 163.35 253.887 148.914L208.215 88.0831C197.354 73.6601 176.507 70.4095 161.542 80.9185C146.633 91.3909 143.305 111.6 154.137 126.036L199.795 186.869ZM638.166 660.518C627.332 646.095 606.457 642.896 591.506 653.377C576.607 663.864 573.281 684.072 584.144 698.505L629.847 759.339C636.367 768.032 646.536 772.661 656.895 772.661C663.931 772.663 670.803 770.502 676.492 766.49C691.395 755.998 694.717 735.787 683.868 721.351L638.166 660.518ZM118.452 295.254L44.5241 271.998C26.8111 266.477 8.13153 275.768 2.41727 292.744C-3.29825 309.703 6.30019 327.94 23.8457 333.462L97.7737 356.718C101.226 357.789 104.681 358.313 108.105 358.313C122.196 358.313 135.276 349.635 139.882 335.971C145.595 319.012 135.999 300.773 118.452 295.254ZM814.15 513.914L740.23 490.692C722.672 485.214 703.855 494.476 698.154 511.436C692.439 528.411 702.055 546.641 719.601 552.16L793.534 575.381C796.857 576.433 800.343 576.97 803.842 576.973C817.926 576.973 831.004 568.28 835.61 554.636C841.312 537.653 831.696 519.436 814.15 513.915V513.914ZM97.8001 490.692L23.8457 513.883C6.30019 519.386 -3.32468 537.605 2.39084 554.586C6.9547 568.251 20.0597 576.943 34.1503 576.943C37.5524 576.943 41.0452 576.416 44.4712 575.344L118.412 552.155C135.972 546.647 145.595 528.426 139.883 511.452C134.21 494.488 115.509 485.211 97.8001 490.692ZM729.922 358.313C733.358 358.313 736.807 357.789 740.23 356.718L814.15 333.495C831.696 327.974 841.312 309.748 835.61 292.779C829.896 275.815 810.979 266.543 793.534 272.031L719.601 295.252C702.055 300.771 692.439 318.998 698.154 335.969C702.748 349.62 715.838 358.313 729.922 358.313ZM199.84 660.506L154.097 721.304C143.236 735.739 146.537 755.947 161.478 766.441C167.16 770.469 174.026 772.639 181.072 772.631C191.42 772.631 201.6 768.023 208.122 759.328L253.862 698.527C264.723 684.096 261.422 663.886 246.483 653.39C231.609 642.839 210.628 646.072 199.84 660.506ZM629.809 88.0807L584.141 148.913C573.31 163.348 576.635 183.555 591.551 194.031C597.243 198.04 604.104 200.201 611.145 200.202C621.492 200.202 631.672 195.581 638.217 186.866L683.893 126.031C694.717 111.597 691.395 91.3873 676.48 80.9148C661.477 70.3791 640.671 73.626 629.809 88.0807ZM660.268 424.888C660.268 295.976 552.24 191.474 418.981 191.474C285.696 191.474 177.661 295.976 177.661 424.888C177.661 479.268 196.997 529.203 229.3 568.844C257.607 603.585 284.415 641.509 307.648 679.674V757.205H528.942V681.731C551.962 644.611 581.721 601.875 608.607 568.881C640.935 529.228 660.268 479.302 660.268 424.888Z" fill="#C0C0D0" fill-opacity="0.01"/>
</g>
<defs>
<filter id="filter0_ii_40_118" x="-5.25781" y="-6" width="848.511" height="985.954" filterUnits="userSpaceOnUse" color-interpolation-filters="sRGB">
<feFlood flood-opacity="0" result="BackgroundImageFix"/>
<feBlend mode="normal" in="SourceGraphic" in2="BackgroundImageFix" result="shape"/>
<feColorMatrix in="SourceAlpha" type="matrix" values="0 0 0 0 0 0 0 0 0 0 0 0 0 0 0 0 0 0 127 0" result="hardAlpha"/>
<feOffset dx="6" dy="6"/>
<feGaussianBlur stdDeviation="6"/>
<feComposite in2="hardAlpha" operator="arithmetic" k2="-1" k3="1"/>
<feColorMatrix type="matrix" values="0 0 0 0 0.557813 0 0 0 0 0.557813 0 0 0 0 0.6375 0 0 0 1 0"/>
<feBlend mode="normal" in2="shape" result="effect1_innerShadow_40_118"/>
<feColorMatrix in="SourceAlpha" type="matrix" values="0 0 0 0 0 0 0 0 0 0 0 0 0 0 0 0 0 0 127 0" result="hardAlpha"/>
<feOffset dx="-6" dy="-6"/>
<feGaussianBlur stdDeviation="6"/>
<feComposite in2="hardAlpha" operator="arithmetic" k2="-1" k3="1"/>
<feColorMatrix type="matrix" values="0 0 0 0 0.886719 0 0 0 0 0.886719 0 0 0 0 0.9375 0 0 0 1 0"/>
<feBlend mode="normal" in2="effect1_innerShadow_40_118" result="effect2_innerShadow_40_118"/>
</filter>
</defs>
</svg>
