<svg width="838" height="974" fill="none" xmlns="http://www.w3.org/2000/svg"><g filter="url(#a)"><path fill-rule="evenodd" clip-rule="evenodd" d="M508.26 794.226H329.63c-13.828 0-25.049 10.855-25.049 24.227 0 13.385 11.221 24.237 25.049 24.237h178.63c13.829 0 25.061-10.852 25.061-24.235.003-13.374-11.228-24.229-25.061-24.229zm-135.312 141.23c3.397 21.749 22.608 38.498 46.059 38.498 23.427 0 42.682-16.741 46.065-38.498 30.665-1.751 55.035-26.127 55.035-56.224H317.788c0 30.116 24.44 54.508 55.16 56.224zm46.058-795.663c18.479 0 33.417-14.47 33.417-32.312V32.312C452.423 14.462 437.488 0 419.006 0c-18.462 0-33.399 14.462-33.399 32.31v75.171c.003 17.842 14.938 32.312 33.399 32.312zm-219.211 47.076c6.561 8.712 16.741 13.336 27.088 13.336 7.041-.002 13.903-2.163 19.595-6.173 14.914-10.477 18.241-30.682 7.409-45.118l-45.672-60.83c-10.861-14.424-31.708-17.675-46.673-7.166-14.909 10.473-18.237 30.682-7.405 45.118l45.658 60.833zm438.371 473.649c-10.834-14.423-31.709-17.622-46.66-7.141-14.899 10.487-18.225 30.695-7.362 45.128l45.703 60.834c6.52 8.693 16.689 13.322 27.048 13.322 7.036.002 13.908-2.159 19.597-6.171 14.903-10.492 18.225-30.703 7.376-45.139l-45.702-60.833zM118.452 295.254l-73.928-23.256c-17.713-5.521-36.392 3.77-42.107 20.746-5.715 16.959 3.883 35.196 21.429 40.718l73.928 23.256c3.452 1.071 6.907 1.595 10.331 1.595 14.091 0 27.171-8.678 31.777-22.342 5.713-16.959-3.883-35.198-21.43-40.717zm695.698 218.66l-73.92-23.222c-17.558-5.478-36.375 3.784-42.076 20.744-5.715 16.975 3.901 35.205 21.447 40.724l73.933 23.221a34.295 34.295 0 0010.308 1.592c14.084 0 27.162-8.693 31.768-22.337 5.702-16.983-3.914-35.2-21.46-40.721v-.001zM97.8 490.692l-73.954 23.191C6.3 519.386-3.324 537.605 2.39 554.586c4.564 13.665 17.669 22.357 31.76 22.357 3.401 0 6.894-.527 10.32-1.599l73.941-23.189c17.56-5.508 27.183-23.729 21.471-40.703-5.673-16.964-24.374-26.241-42.083-20.76zm632.122-132.379c3.436 0 6.885-.524 10.308-1.595l73.92-23.223c17.546-5.521 27.162-23.747 21.46-40.716-5.714-16.964-24.631-26.236-42.076-20.748l-73.933 23.221c-17.546 5.519-27.162 23.746-21.447 40.717 4.594 13.651 17.684 22.344 31.768 22.344zM199.84 660.506l-45.743 60.798c-10.861 14.435-7.56 34.643 7.381 45.137 5.682 4.028 12.548 6.198 19.594 6.19 10.348 0 20.528-4.608 27.05-13.303l45.74-60.801c10.861-14.431 7.56-34.641-7.379-45.137-14.874-10.551-35.855-7.318-46.643 7.116zM629.809 88.081l-45.668 60.832c-10.831 14.435-7.506 34.642 7.41 45.118 5.692 4.009 12.553 6.17 19.594 6.171 10.347 0 20.527-4.621 27.072-13.336l45.676-60.835c10.824-14.434 7.502-34.644-7.413-45.116-15.003-10.536-35.809-7.289-46.671 7.166zm30.459 336.807c0-128.912-108.028-233.414-241.287-233.414-133.285 0-241.32 104.502-241.32 233.414 0 54.38 19.336 104.315 51.639 143.956 28.307 34.741 55.115 72.665 78.348 110.83v77.531h221.294v-75.474c23.02-37.12 52.779-79.856 79.665-112.85 32.328-39.653 51.661-89.579 51.661-143.993z" fill="#C0C0D0" fill-opacity=".01"/></g><defs><filter id="a" x="-5.258" y="-6" width="848.511" height="985.954" filterUnits="userSpaceOnUse" color-interpolation-filters="sRGB"><feFlood flood-opacity="0" result="BackgroundImageFix"/><feBlend in="SourceGraphic" in2="BackgroundImageFix" result="shape"/><feColorMatrix in="SourceAlpha" values="0 0 0 0 0 0 0 0 0 0 0 0 0 0 0 0 0 0 127 0" result="hardAlpha"/><feOffset dx="6" dy="6"/><feGaussianBlur stdDeviation="6"/><feComposite in2="hardAlpha" operator="arithmetic" k2="-1" k3="1"/><feColorMatrix values="0 0 0 0 0.557813 0 0 0 0 0.557813 0 0 0 0 0.6375 0 0 0 1 0"/><feBlend in2="shape" result="effect1_innerShadow_40_118"/><feColorMatrix in="SourceAlpha" values="0 0 0 0 0 0 0 0 0 0 0 0 0 0 0 0 0 0 127 0" result="hardAlpha"/><feOffset dx="-6" dy="-6"/><feGaussianBlur stdDeviation="6"/><feComposite in2="hardAlpha" operator="arithmetic" k2="-1" k3="1"/><feColorMatrix values="0 0 0 0 0.886719 0 0 0 0 0.886719 0 0 0 0 0.9375 0 0 0 1 0"/><feBlend in2="effect1_innerShadow_40_118" result="effect2_innerShadow_40_118"/></filter></defs></svg>