<svg xmlns="http://www.w3.org/2000/svg" height="24px" viewBox="0 0 24 24" width="24px" fill="#3D3D3D">
    <path d="M20.527,2c0.814,0.003 1.473,0.643 1.473,1.433l0,17.135c0,0.791 -0.662,1.432 -1.478,1.432l-17.044,0c-0.816,0 -1.478,-0.641 -1.478,-1.432l0,-17.135c0,-0.791 0.662,-1.433 1.478,-1.433l17.044,0l0.005,0Zm-7.8,9.008l0,-1.274l-2.992,-0c0.039,0.844 -0.001,9.004 -0.001,9.004l0,-0.001l2.993,0l-0,-5.027c-0,-0.269 0.019,-0.539 0.099,-0.731c0.216,-0.537 0.708,-1.094 1.535,-1.094c1.083,-0 1.516,0.825 1.516,2.036l0,4.816l2.993,0l-0,-5.162c-0,-2.766 -1.477,-4.053 -3.446,-4.053c-1.587,0 -2.299,0.873 -2.697,1.486l0,0.031l-0.02,-0c0.007,-0.01 0.013,-0.02 0.02,-0.031Zm-7.642,-1.275l0,9.004l2.993,0l-0,-9.004l-2.993,0Zm1.497,-1.229c1.043,0 1.693,-0.691 1.693,-1.555c-0.019,-0.884 -0.65,-1.556 -1.673,-1.556c-1.024,-0 -1.693,0.672 -1.693,1.556c-0,0.864 0.649,1.555 1.653,1.555l0.02,0l0,0Z"/>
</svg>
