<svg viewBox="0 0 100 51" xmlns="http://www.w3.org/2000/svg" fill-rule="evenodd" clip-rule="evenodd" stroke-linejoin="round" stroke-miterlimit="2"><g><path d="M.03 203.119c0-7.7 4.54-11.271 10.45-11.271 3.8 0 6.78 1.6 8.52 4.58 1.739-2.98 4.72-4.58 8.52-4.58 5.91 0 10.45 3.571 10.45 11.271v19.289l-5.87.001v-19.29c0-4.12-2.2-5.82-5.09-5.82-2.89 0-5.09 1.74-5.09 5.82v19.29h-5.87v-19.29c0-4.08-2.2-5.82-5.09-5.82-2.89 0-5.09 1.7-5.09 5.82v19.29H0v-19.29h.03zM50.28 204.869c0-8.02 4.58-13.01 13.049-13.01 8.48 0 13.15 4.99 13.15 13.01v17.55h-5.86v-8.98H56.01v8.98h-5.73v-17.55zm20.339 3.25v-3.25c0-4.81-2.38-7.56-7.329-7.56-4.9 0-7.28 2.75-7.28 7.56v3.25h14.609zM89.419 192.019H95.369V222.419H89.419zM108.619 192.019h14.55c5.76 0 8.78 3.3 8.78 7.9 0 3.07-1.44 5.439-3.95 6.69v.09c3.35 1.07 5.35 3.86 5.35 7.48 0 4.74-3.07 8.23-8.97 8.23h-15.76v-30.39zm13.8 12.31c2.46 0 3.63-1.49 3.63-3.39 0-1.95-.93-3.39-3.67-3.39h-7.81v6.789h7.85v-.009zm.93 12.6c2.79 0 3.9-1.63 3.9-3.62 0-2.05-1.39-3.67-3.86-3.67l-8.83-.001v7.3h8.79v-.009zM143.109 207.179c0-8.93 6.56-15.49 15.86-15.49s15.859 6.56 15.859 15.49c0 8.929-6.559 15.489-15.859 15.489s-15.86-6.55-15.86-15.489zm25.79 0c0-5.83-4.01-10.07-9.93-10.07-5.921 0-9.93 4.24-9.93 10.07 0 5.829 4.009 10.12 9.93 10.12 5.92 0 9.93-4.28 9.93-10.12zM187.139 192.019h12.739c7.72 0 11.11 4.23 11.11 10.04 0 4.79-2.28 8.09-6.37 9.44l7.48 10.919h-7.07l-6.46-10.269h-5.489v10.269h-5.95v-30.4h.01v.001zm12.82 14.59c3.76 0 5.019-1.95 5.019-4.55 0-2.6-1.26-4.51-5.019-4.51h-6.88v9.06h6.88zM222.508 204.359c0-7.7 4.601-12.51 12.92-12.51 8.32 0 12.92 4.81 12.92 12.51v18.05h-5.95v-18.05c0-4.44-2.32-7.06-6.97-7.06s-6.97 2.61-6.97 7.06v18.05h-5.95v-18.05zM260.818 211.329v-19.31h5.87v19.31c0 4.13 2.2 5.83 5.09 5.83 2.89 0 5.09-1.74 5.09-5.83v-19.31h5.87v19.31c0 4.08 2.2 5.83 5.09 5.83 2.89 0 5.09-1.7 5.09-5.83v-19.31h5.87v19.31c0 7.71-4.54 11.28-10.46 11.28-3.81 0-6.79-1.61-8.53-4.59-1.74 2.98-4.73 4.59-8.53 4.59-5.91 0-10.45-3.57-10.45-11.28zM309.628 207.179c0-8.95 6.58-15.53 15.899-15.53 9.32 0 15.9 6.58 15.9 15.53 0 8.949-6.58 15.529-15.9 15.529-9.319 0-15.899-6.58-15.899-15.529zm25.849 0c0-5.85-4.02-10.1-9.959-10.1-5.94 0-9.96 4.249-9.96 10.1 0 5.849 4.02 10.139 9.96 10.139 5.939 0 9.959-4.3 9.959-10.139zM353.648 192.019h5.949v24.91h15.9v5.49h-21.849v-30.4zM386.797 192.019h22.03v5.529l-16.08.001v6.69h13.39v5.39h-13.39v12.78h-5.95v-30.39zM420.257 192.019h22.03v5.529l-16.08.001v6.69h13.39v5.39h-13.39v12.78h-5.95v-30.39z" fill="rgb(10,10,10)" transform="matrix(.2261 0 0 .2261 0 0)"/><path d="M199.749 49.33h.009c.09-16.8 8.54-31.61 21.4-40.52-8-5.54-17.7-8.809-28.17-8.809-27.299 0-49.429 22.059-49.569 49.329h-.01v87.469l42.82.001V49.58a6.76 6.76 0 0113.52-.02v-.23z" fill="url(#a)" transform="matrix(.2261 0 0 .2261 0 0)"/><path d="M298.888 49.33C298.748 22.07 276.618 0 249.318 0s-49.43 22.06-49.57 49.33h-.009v87.469h42.819V49.56c0-2.62 1.44-5.12 3.85-6.14 4.93-2.08 9.67 1.48 9.67 6.15v87.219h42.819V49.32h-.009v.01z" fill="url(#b)" transform="matrix(.2261 0 0 .2261 0 0)"/></g><defs><linearGradient id="a" x1="0" y1="0" x2="1" y2="0" gradientUnits="userSpaceOnUse" gradientTransform="matrix(53.9998 13 -13 53.9998 143.849 61.19)"><stop offset="0" stop-color="rgb(255,44,164)"/><stop offset=".25" stop-color="rgb(255,33,157)"/><stop offset=".68" stop-color="rgb(255,2,140)"/><stop offset="1" stop-color="rgb(255,0,139)"/></linearGradient><linearGradient id="b" x1="0" y1="0" x2="1" y2="0" gradientUnits="userSpaceOnUse" gradientTransform="translate(202.848 68.19) scale(96.9992)"><stop offset="0" stop-color="rgb(55,212,255)"/><stop offset=".15" stop-color="rgb(49,217,236)"/><stop offset=".43" stop-color="rgb(34,228,188)"/><stop offset=".84" stop-color="rgb(10,247,112)"/><stop offset="1" stop-color="rgb(0,255,79)"/></linearGradient></defs></svg>