<?xml version="1.0" encoding="UTF-8" standalone="no"?><!DOCTYPE svg PUBLIC "-//W3C//DTD SVG 1.1//EN" "http://www.w3.org/Graphics/SVG/1.1/DTD/svg11.dtd">
<svg width="100%" height="100%" viewBox="0 0 143 122" version="1.1" xmlns="http://www.w3.org/2000/svg"
     xml:space="preserve"
     style="fill-rule:evenodd;clip-rule:evenodd;stroke-linejoin:round;stroke-miterlimit:2;"><g><g><path d="M104.403,57.954l0,8.353l-66.306,-0l-0,-52.464l8.251,0l0,44.212c0,-0 49.804,-0 49.804,-0l-0,-0.101l8.251,0Zm0,-5.564l-8.251,-0l-0,-44.138l-49.804,-0l0,0.027l-8.251,-0l-0,-8.279l66.306,-0l0,52.39Z"/><rect x="60.043" y="22.691" width="21.696" height="21.696" style="fill:#83808e;"/></g><g transform="matrix(3.36842,0,0,3.36842,-293.644,-160.368)"><g transform="matrix(16,0,0,16,86.4413,83.5)"><path d="M0.511,-0.198c0,0.064 -0.023,0.115 -0.069,0.152c-0.047,0.037 -0.111,0.056 -0.194,0.056c-0.076,-0 -0.144,-0.015 -0.202,-0.043l-0,-0.141c0.048,0.022 0.089,0.037 0.122,0.046c0.034,0.008 0.064,0.013 0.092,0.013c0.033,-0 0.058,-0.007 0.076,-0.019c0.018,-0.013 0.027,-0.032 0.027,-0.057c-0,-0.014 -0.004,-0.026 -0.012,-0.037c-0.008,-0.011 -0.019,-0.022 -0.034,-0.032c-0.015,-0.01 -0.046,-0.026 -0.093,-0.048c-0.043,-0.021 -0.076,-0.04 -0.098,-0.059c-0.022,-0.019 -0.039,-0.041 -0.052,-0.066c-0.013,-0.025 -0.02,-0.054 -0.02,-0.088c0,-0.063 0.022,-0.113 0.064,-0.149c0.043,-0.036 0.102,-0.054 0.178,-0.054c0.037,-0 0.072,0.004 0.106,0.013c0.034,0.009 0.069,0.021 0.106,0.037l-0.049,0.118c-0.038,-0.016 -0.07,-0.027 -0.094,-0.033c-0.025,-0.006 -0.05,-0.009 -0.074,-0.009c-0.029,-0 -0.051,0.007 -0.066,0.02c-0.015,0.013 -0.023,0.031 -0.023,0.052c0,0.013 0.003,0.025 0.009,0.035c0.007,0.01 0.016,0.02 0.03,0.029c0.013,0.009 0.045,0.026 0.096,0.05c0.067,0.032 0.112,0.064 0.137,0.096c0.025,0.032 0.037,0.071 0.037,0.118Z" style="fill:#83808e;fill-rule:nonzero;"/></g><g transform="matrix(16,0,0,16,95.2538,83.5)"><path d="M0.393,-0.598c-0.057,-0 -0.101,0.021 -0.132,0.064c-0.032,0.043 -0.047,0.103 -0.047,0.179c-0,0.159 0.06,0.239 0.179,0.239c0.05,-0 0.111,-0.013 0.182,-0.038l0,0.127c-0.058,0.025 -0.124,0.037 -0.196,0.037c-0.104,-0 -0.183,-0.032 -0.238,-0.095c-0.055,-0.063 -0.083,-0.153 -0.083,-0.271c0,-0.074 0.014,-0.139 0.041,-0.195c0.027,-0.056 0.065,-0.099 0.116,-0.128c0.051,-0.03 0.11,-0.045 0.178,-0.045c0.069,-0 0.139,0.017 0.209,0.05l-0.049,0.123c-0.026,-0.012 -0.053,-0.024 -0.08,-0.033c-0.027,-0.009 -0.054,-0.014 -0.08,-0.014Z" style="fill-rule:nonzero;"/></g><g transform="matrix(16,0,0,16,105.449,83.5)"><path d="M0.392,-0l-0.172,-0.56l-0.004,-0c0.006,0.114 0.009,0.19 0.009,0.228l0,0.332l-0.135,0l-0,-0.714l0.206,0l0.169,0.546l0.003,0l0.179,-0.546l0.206,0l0,0.714l-0.141,-0l-0,-0.338c-0,-0.016 0,-0.034 0.001,-0.055c0,-0.021 0.002,-0.076 0.006,-0.166l-0.004,-0l-0.184,0.559l-0.139,-0Z" style="fill-rule:nonzero;"/></g><g transform="matrix(16,0,0,16,120.535,83.5)"><path d="M0.365,-0l-0.151,-0l-0,-0.588l-0.194,0l0,-0.126l0.539,0l0,0.126l-0.194,0l0,0.588Z" style="fill-rule:nonzero;"/></g></g></g></svg>
