<svg viewBox="0 0 550 100" xmlns="http://www.w3.org/2000/svg" fill-rule="evenodd" clip-rule="evenodd" stroke-linejoin="round" stroke-miterlimit="2"><path d="M370.326 90.363c1.397-.893 2.988-1.536 4.192-2.676.713-.675.803-1.807 1.38-2.601.998-1.372 2.45-2.403 3.318-3.861 1.104-1.857 1.847-3.916 2.528-5.965.459-1.383.714-2.835.88-4.282 1.448-12.716 2.038-25.537 3.956-38.19.282-1.855 1.843-3.276 2.593-4.996.142-.325.074-.71.05-1.066-.046-.683-.018-1.398-.258-2.04-.464-1.236-.927-2.55-1.828-3.515-.728-.78-1.806-1.202-2.835-1.482-.681-.185-1.43-.043-2.111.137-7.557 2.005-14.998 4.433-22.562 6.406-.662.173-1.396.213-2.051.017-1.075-.32-1.9-1.311-3.002-1.523-.789-.151-1.75-.029-2.361.494-.34.291.018.934.243 1.321.438.75.942 1.54 1.688 1.983.471.279 1.095.029 1.64-.01 2.014-.146 4.071-.072 6.036-.543 5.602-1.343 11.016-3.39 16.582-4.879.671-.179 1.389-.177 2.08-.11.161.016.369.188.338.347-.918 4.755-2.386 9.402-3.145 14.185-1.891 11.907-2.991 23.927-4.797 35.846-.318 2.095-.902 4.148-1.57 6.158-.504 1.515-1.126 3.006-1.934 4.383-.501.855-1.213 1.58-1.95 2.239-.765.682-1.575 1.365-2.523 1.753-.65.266-1.459.426-2.103.144-4.614-2.02-9.092-4.37-13.423-6.942-1.326-.787-3.035-1.596-3.454-3.08-.25-.891 1.503-1.121 2.063-1.856.17-.223.256-.75-.009-.842a2.863 2.863 0 00-2.075.118c-.879.411-1.731 1.046-2.219 1.884-.278.48-.193 1.228.16 1.654 1.333 1.611 2.952 2.999 4.673 4.186 1.475 1.018 3.308 1.418 4.829 2.365 1.042.65 1.734 1.784 2.801 2.392 2.181 1.243 4.385 2.688 6.858 3.114m38.82-3.665c1.375-.089 2.819.173 4.124-.266 1.953-.657 3.724-1.798 5.431-2.95 1.386-.934 2.602-2.107 3.799-3.274.953-.929 1.917-1.878 2.634-2.999.965-1.511 1.484-3.268 2.368-4.828.164-.29.441-.803.744-.667 1.873.836 3.243 2.65 5.182 3.314 1.277.438 2.733.159 4.046-.152 2.017-.476 3.954-1.278 5.819-2.18 1.933-.934 3.77-2.071 5.526-3.304 2.952-2.074 5.768-4.338 8.575-6.604.258-.209.508-.48.598-.8.095-.339.187-.822-.078-1.052-.361-.311-.998-.473-1.409-.231-2.799 1.644-5.164 3.947-7.897 5.699-2.362 1.515-4.74 3.083-7.363 4.081-1.271.484-2.769.657-4.071.267-1.057-.315-2.333-1.121-2.454-2.217-.164-1.493 1.275-2.728 1.751-4.153.524-1.565.656-3.25 1.241-4.793.416-1.099 1.068-2.102 1.739-3.066.564-.811 1.199-1.587 1.947-2.233 1.798-1.554 3.634-3.093 5.659-4.338 1.409-.868 2.995-1.431 4.565-1.956.652-.218 1.358-.279 2.044-.256.521.018 1.102.063 1.516.379 1.174.899 1.888 2.33 3.109 3.162.282.192.763-.111.939-.403.181-.301.12-.751-.063-1.052a10.878 10.878 0 00-2.089-2.468c-.734-.648-1.534-1.333-2.484-1.564-1.009-.244-2.108-.072-3.108.207a21.154 21.154 0 00-4.763 1.989c-2.905 1.657-5.843 3.335-8.386 5.507-2.185 1.866-3.875 4.25-5.666 6.496-.773.97-1.021 2.387-2.013 3.133-.364.275-.462-.845-.425-1.3.057-.711.703-1.314.691-2.028-.077-4.663-.212-9.354-.952-13.958-.267-1.656-1.148-3.178-2.034-4.603-.433-.697-1.077-1.339-1.843-1.635-.633-.246-1.399-.109-2.033.134-2.241.863-4.442 1.88-6.485 3.144a34.56 34.56 0 00-5.725 4.407c-2.075 1.987-3.921 4.214-5.665 6.496-.622.813-1.35 1.714-1.394 2.737-.074 1.708 1.42 3.349 1.057 5.02-.322 1.481-2.107 2.208-2.907 3.495-.739 1.19-1.213 2.533-1.66 3.859-.549 1.63-1.16 3.277-1.324 4.989-.163 1.697-.131 3.468.354 5.103.385 1.3 1.235 2.462 2.177 3.437 1.133 1.171 2.57 2.011 3.94 2.892m56.436-5.163c1.199-.648 2.613-1.003 3.6-1.944 2.931-2.797 5.21-6.213 8.016-9.137.728-.76 1.798-1.126 2.54-1.87 1.771-1.777 3.19-3.884 4.964-5.659.654-.655 1.623-.935 2.277-1.589a53.832 53.832 0 004.736-5.43c.637-.837.847-1.952 1.507-2.771 2.905-3.61 5.759-7.306 9.148-10.464 1.843-1.718 3.968-3.358 6.397-4.029.947-.261 1.516 1.473 2.493 1.573.818.082 1.62-.523 2.21-1.094.71-.688 1.565-1.549 1.535-2.537-.027-.91-.775-2.313-1.674-2.161-2.913.496-5.435 2.352-8.006 3.81-1.789 1.014-3.571 2.126-5.025 3.58-3.606 3.609-6.858 7.562-10.071 11.526-.696.859-.89 2.064-1.618 2.897-.684.783-1.783 1.108-2.517 1.845-1.773 1.777-3.162 3.913-4.964 5.659-2.194 2.125-4.761 3.835-6.993 5.92-1.449 1.352-2.39 3.256-4.027 4.37-.386.263-.628-.9-.443-1.328 1.949-4.505 4.257-8.855 6.691-13.116 1.793-3.14 4.074-5.976 5.97-9.053 1.115-1.811 1.924-3.8 3.055-5.601 1.284-2.046 2.94-3.845 4.177-5.919 1.467-2.462 2.389-5.23 3.913-7.658.902-1.437 2.332-2.48 3.319-3.861.593-.832 1.169-1.737 1.387-2.736.113-.513-.172-1.067-.456-1.507a2.048 2.048 0 00-1.033-.794c-.331-.113-.908-.238-1.049.084-.181.413.426.824.456 1.275.036.524.075 1.15-.26 1.555-1 1.204-2.537 1.873-3.563 3.053-.69.793-.87 1.935-1.506 2.771-1.521 1.996-3.413 3.69-4.932 5.687-.637.836-.879 1.928-1.507 2.771-1.218 1.634-2.788 2.985-4.002 4.622-.552.743-.712 1.729-1.265 2.472-1.295 1.737-2.97 3.168-4.245 4.92-1.961 2.695-3.721 5.535-5.441 8.39-2.471 4.103-4.909 8.232-7.128 12.477a14.582 14.582 0 00-1.365 3.771c-.143.69-.141 1.465.147 2.108.472 1.052 1.098 2.137 2.049 2.789m-43.452 1.325c-1.343.141-2.679.481-4.028.422-.652-.028-1.452-.151-1.839-.677-1.667-2.26-3.201-4.701-4.092-7.364-.646-1.932-.923-4.126-.412-6.098.744-2.874 2.538-5.375 4.046-7.931a8.13 8.13 0 011.952-2.236c1.174-.922 2.505-1.636 3.836-2.312 2.253-1.148 4.743-1.831 6.9-3.15.261-.159-.128-.771-.43-.807-1.35-.167-2.806-.237-4.075.253-2.712 1.045-5.009 2.963-7.614 4.25-.323.16-.75.193-1.079.047-.195-.087-.281-.417-.193-.611.87-1.926 1.605-3.996 2.994-5.589 1.909-2.189 4.362-3.85 6.717-5.552a13.88 13.88 0 013.55-1.865c.807-.279 1.954-.859 2.548-.246 1.345 1.387 2.028 3.392 2.353 5.296.73 4.29 1.028 8.688.77 13.032-.158 2.678-1.16 5.246-2.005 7.791-.706 2.125-1.466 4.27-2.633 6.181-1.007 1.65-2.433 3.014-3.809 4.371m104.359-7.868c.538-1.285.967-2.62 1.614-3.854.239-.457.622-.835 1.018-1.167 3.117-2.618 6.245-5.228 9.503-7.667 1.187-.888 2.454-1.694 3.807-2.3 3.484-1.563 7.316-2.351 10.664-4.191.462-.255-.717-.897-1.237-.993-1.012-.187-2.134-.208-3.08.196-6.16 2.628-12.219 5.526-18.052 8.818-1.072.606-1.55 1.924-2.458 2.757-.682.626-1.617.939-2.277 1.589-1.246 1.228-2.539 2.475-3.397 4-.331.588-.104 1.359.007 2.026.077.468.124 1.097.546 1.313.602.307 1.36.107 2.029.002m-14.686.714c2.69-1.656 5.489-3.148 8.07-4.97 1.916-1.353 3.805-2.797 5.382-4.533.23-.254-.079-.838-.404-.947-.658-.219-1.471-.217-2.076.121-2.677 1.494-4.823 3.854-7.552 5.251-.914.468-2.095.495-3.076.191-.453-.141-.48-.843-.547-1.313-.143-.998-.228-2.027-.074-3.024.087-.564.319-1.184.777-1.525 2.155-1.61 4.687-2.659 6.893-4.2 1.034-.723 1.958-1.61 2.787-2.562.508-.584.82-1.313 1.184-1.997.442-.832.987-1.633 1.229-2.543.176-.663.045-1.374-.004-2.058-.048-.675.03-1.411-.285-2.011a2.64 2.64 0 00-1.408-1.223c-.423-.151-.927.038-1.324.249-1.468.779-2.915 1.635-4.202 2.687-.948.777-1.555 1.904-2.445 2.747-.949.898-2.194 1.473-3.053 2.458-.692.792-.903 1.909-1.506 2.77-.701 1.002-1.77 1.731-2.386 2.789-1.585 2.724-2.217 6.014-4.175 8.485-.992 1.252-2.707 1.851-4.273 2.172-3.165.65-6.501 1.326-9.669.691-1.411-.283-2.788-1.772-2.891-3.208-.096-1.322 1.885-1.938 2.432-3.146.192-.424.015-1.137-.405-1.338-.465-.221-1.111.079-1.483.436-1.676 1.6-3.925 3.049-4.511 5.292-.423 1.617 1.15 3.148 1.915 4.634.145.284.445.574.765.576 3.338.008 6.71.013 10.002-.548 2.724-.464 5.141-2.531 7.906-2.502 1.355.013 1.796 2.289 3.11 2.617m-232.762 6.713c.966-.79 2.237-1.312 2.898-2.37.362-.58.061-1.391-.138-2.045-.114-.374-.602-.537-.757-.896-.143-.334-.162-.728-.095-1.086.384-2.04 1.326-3.985 1.44-6.057.164-2.992-.19-6.003-.614-8.97-.092-.645-.415-1.31-.915-1.728-.794-.664-1.793-1.652-2.789-1.368-2.426.692-4.528 2.336-6.427 3.997-2.342 2.048-3.983 4.79-6.162 7.009-1.045 1.064-2.166 2.108-3.481 2.81-.604.322-1.395.346-2.048.14-.595-.188-1.191-.648-1.412-1.232-.364-.959-.508-2.086-.221-3.072.703-2.41 1.794-4.723 3.114-6.858 1.026-1.659 2.113-3.52 3.851-4.406 3.682-1.873 7.998-2.13 11.862-3.591.266-.1-.209-.586-.46-.719-.305-.162-.689-.097-1.034-.073-3.01.198-6.197-.323-9.021.738-2.516.945-4.339 3.191-6.309 5.019a26.898 26.898 0 00-3.806 4.364c-1.362 1.959-2.494 4.077-3.547 6.218-.588 1.199-1.021 2.478-1.359 3.77-.095.359-.087.78.08 1.113.459.914 1.067 1.757 1.747 2.521.536.601 1.089 1.326 1.867 1.537.993.27 2.097.109 3.079-.195 1.277-.397 2.442-1.118 3.551-1.866 1.978-1.334 4.017-2.645 5.678-4.359 2.202-2.271 3.365-5.501 5.818-7.499.617-.504.584 1.537.524 2.332-.205 2.712-1.162 5.337-1.31 8.052-.109 2.004.133 4.033.544 5.997.127.605.57 1.132 1.034 1.54.733.648 1.536 1.321 2.484 1.563m244.092-22.757c-.151-.426-.417-.829-.454-1.281-.016-.19.184-.338.31-.482 2.154-2.445 4.048-5.164 6.526-7.28.355-.303.548.874.443 1.328-.232.997-.819 1.888-1.388 2.736a12.549 12.549 0 01-1.947 2.233M295.944 70.211c.413-.477.911-.893 1.238-1.432.396-.656.728-1.366.909-2.111.781-3.237 1.553-6.49 1.964-9.794.064-.513-.275-1.017-.567-1.443-.378-.55-1.18-.798-1.402-1.426-.13-.366.478-.654.529-1.04.024-.185-.177-.346-.332-.452-1.343-.923-2.565-2.167-4.133-2.612-1.317-.373-2.814-.195-4.098.28-1.656.612-3.047 1.803-4.444 2.883-1.77 1.368-3.085 3.338-5.03 4.443-.408.231-.53-.872-.447-1.333.234-1.314.632-2.647 1.357-3.767.74-1.143 2.173-1.716 2.926-2.85.19-.287-.072-.858-.404-.948-.856-.229-1.96-.423-2.656.125-1.643 1.295-2.642 3.252-3.821 4.98-.522.765-.722 1.723-1.265 2.472-.994 1.373-2.374 2.446-3.315 3.855-1.236 1.849-2.584 3.723-3.179 5.865-.199.715.535 1.41.995 1.992a4.24 4.24 0 001.56 1.239c.321.143.752.112 1.052-.072a11.054 11.054 0 002.47-2.089c2.484-2.805 4.579-5.942 7.099-8.715 1.12-1.233 2.507-2.197 3.786-3.266 1.144-.956 2.126-2.187 3.481-2.81.922-.425 2.035-.332 3.042-.193.219.03.243.422.188.637-1.111 4.332-2.684 8.544-3.661 12.909-.223.995-.061 2.048.089 3.056.077.515.279 1.025.582 1.448.255.354.605.725 1.034.802.993.179 2.025.069 3.024-.072m-72.462 3.474c.653-.896 1.437-1.708 1.959-2.686.539-1.01.995-2.093 1.191-3.221.744-4.257.788-8.623 1.617-12.867.257-1.312 1.389-2.355 1.615-3.673a8.69 8.69 0 00-.289-4.07c-.191-.595-.798-1.119-1.412-1.232-.83-.151-1.858-.053-2.479.519-1.332 1.228-2.125 2.946-3.002 4.532a23.866 23.866 0 00-1.763 4.086c-1.634 4.964-3.208 9.954-4.525 15.012-.115.443.024.958.266 1.347.657 1.059 1.262 2.317 2.366 2.895.892.467 2.024.071 3.022-.072m-38.773.336c.854-.611 1.777-1.137 2.562-1.834.624-.553 1.29-1.134 1.635-1.893.698-1.534.809-3.28 1.432-4.844.944-2.373 2.069-4.673 3.257-6.933.23-.438.504-.962.973-1.119 8.07-2.715 16.336-4.816 24.44-7.43.406-.131 1.087-.36 1.015-.78-.095-.558-.777-1.186-1.328-1.058-6.957 1.61-13.658 4.178-20.531 6.118a6.435 6.435 0 01-2.045.254c-.472-.021-1.406.058-1.358-.412.161-1.571 1.341-2.865 1.847-4.36 1.446-4.27 3.133-8.496 4.003-12.921 1.02-5.193.868-10.555 1.64-15.791.526-3.577 1.624-7.05 2.248-10.611.119-.676.089-1.383-.025-2.06-.079-.465-.135-1.07-.544-1.305-.387-.222-.919.04-1.319.238-.817.406-1.66.856-2.264 1.539-.526.594-.738 1.411-1.003 2.159-1.232 3.492-2.528 6.972-3.483 10.549-1.27 4.754-1.843 9.679-3.184 14.414-2.049 7.229-3.59 14.728-6.974 21.437-1.061 2.103-4.031 2.47-5.843 3.977-.984.818-2.02 1.74-2.473 2.937-.363.96-.191 2.124.2 3.074.487 1.186 1.636 1.983 2.323 3.067.672 1.06 1.052 2.29 1.739 3.341.171.264.472.547.785.521.387-.032.57-.618.955-.664M18.166 86.405c3.319-.97 6.671-1.831 9.956-2.91 1.136-.372 2.217-.902 3.287-1.434 2.844-1.414 5.701-2.814 8.453-4.401 1.315-.759 2.689-1.515 3.723-2.627.234-.25-.103-.77-.396-.949-.31-.188-.757-.103-1.087.046-5.518 2.499-10.618 6.004-16.382 7.863-3.2 1.033-6.71.896-10.065.671-.77-.052-1.455-.77-1.792-1.464-1.005-2.072-1.66-4.319-2.109-6.578-.458-2.308-.536-4.682-.595-7.035a2.885 2.885 0 01.381-1.514c.423-.725 1.364-1.124 1.631-1.92.971-2.906 1.24-6.002 2.008-8.969.962-3.722 1.922-7.454 3.177-11.088 1.152-3.334 2.588-6.566 4.03-9.785 1.145-2.554 2.145-5.214 3.724-7.524 1.891-2.763 4.033-5.426 6.604-7.572 2.156-1.799 4.718-3.149 7.364-4.089 1.729-.613 4.001-1.553 5.483-.472 1.964 1.435 1.663 4.618 2.989 6.657.269.414.411-.925.416-1.417a32.445 32.445 0 00-.339-4.982 3.34 3.34 0 00-.582-1.448c-.254-.353-.598-.789-1.034-.802-2.693-.079-5.477-.21-8.067.537-2.605.752-4.848 2.445-7.162 3.858-1.745 1.067-3.542 2.124-4.991 3.568-3.371 3.36-6.5 6.973-9.384 10.759-1.457 1.913-2.537 4.098-3.584 6.263-2.45 5.072-4.892 10.163-6.895 15.428-.892 2.345-1.021 4.921-1.759 7.319-.809 2.629-2.14 5.085-2.875 7.736-.185.67-.038 1.412.156 2.08.109.374.706.537.716.927.017.716-.642 1.335-.646 2.052-.01 2.351-.001 4.754.603 7.026.349 1.311 1.266 2.433 2.179 3.438.63.694 1.636.939 2.348 1.55.592.507.838 1.403 1.526 1.769.275.147.438-.568.75-.558.716.022 1.334.646 2.049.645m109.546-9.633c1.022-.066 2.072.045 3.068-.196.33-.081.582-.414.719-.726 1.083-2.476 1.781-5.113 2.908-7.57.613-1.336 1.818-2.378 2.293-3.77.953-2.79 1.123-5.797 1.943-8.629.149-.515.737-.812.934-1.312.052-.132-.16-.343-.297-.305-.904.243-2.024.338-2.591 1.083-3.448 4.529-6.198 9.55-9.19 14.393-.539.872-1.032 1.782-1.396 2.74-.126.332-.075.711-.05 1.066.049.673-.038 1.406.271 2.006m41.714-2.852c.583-.707 1.42-1.265 1.75-2.121.247-.638.09-1.403-.139-2.047-.145-.406-.596-.626-.917-.914-.971-.869-1.757-2.052-2.958-2.555-4.048-1.697-8.63-1.998-12.56-3.951-1.153-.572-2.25-2.027-2.017-3.293.318-1.727 2.078-2.861 3.369-4.053 1.325-1.223 2.786-2.346 4.41-3.128 2.198-1.061 4.561-1.786 6.937-2.343.504-.117 1.045.135 1.507.366.598.3.942 1.242 1.609 1.196.462-.032.371-.87.388-1.334.024-.675.042-1.409-.269-2.008-.287-.552-.799-1.344-1.409-1.223-3.057.607-5.953 1.908-8.771 3.241-2.614 1.237-5.069 2.805-7.457 4.437-1.04.709-1.96 1.602-2.782 2.557-1.251 1.456-2.41 3.003-3.409 4.643-.179.294-.118.695-.048 1.032.106.507.268 1.024.567 1.446.386.546 1.267.75 1.443 1.395.186.685-.776 1.415-.502 2.067.598 1.425 1.592 2.786 2.891 3.622 2.73 1.755 5.72 3.293 8.898 3.955 2.627.547 5.37-.148 8.04-.426M56.832 78.536c.779-2.628 1.339-5.333 2.335-7.886a77.387 77.387 0 014.383-9.334c.837-1.513 1.898-2.913 3.085-4.17 2.908-3.078 5.891-6.112 9.164-8.798 1.95-1.601 4.011-3.272 6.426-3.997.875-.263 2.261.447 2.383 1.351.374 2.763-.439 5.58-1.079 8.294-1.348 5.718-3.453 11.237-4.866 16.938-.169.684-.152 1.47.148 2.107.412.879.967 1.902 1.884 2.221 1.152.401 2.512.15 3.648-.296.981-.383 1.887-1.142 2.387-2.068 1.025-1.899 1.499-4.054 2.042-6.141 1.264-4.855 2.427-9.739 3.373-14.665.133-.692.181-1.488-.151-2.11-1.008-1.894-2.139-3.816-3.756-5.226-1.425-1.243-3.208-2.383-5.096-2.491-1.68-.097-3.193 1.115-4.663 1.931a30.19 30.19 0 00-4.743 3.289c-.939.789-1.542 1.918-2.445 2.747-.682.626-1.61.947-2.277 1.589-1.294 1.245-2.261 2.805-3.568 4.036-.195.185-.849.346-.8.082.668-3.71 1.542-7.4 2.763-10.968 1.859-5.43 4.845-10.455 6.454-15.964.93-3.182.942-6.574 1.097-9.885.024-.516-.259-1.027-.567-1.442-.257-.347-.625-.787-1.056-.749-.615.054-1.154.526-1.571.983-.783.857-1.474 1.825-1.961 2.88a292.876 292.876 0 00-7.099 16.742c-1.797 4.628-3.362 9.344-4.868 14.075-1.017 3.195-1.61 6.518-2.695 9.69-1.575 4.602-3.767 8.981-5.277 13.604-.214.66-.036 1.41.158 2.075.084.293.345.57.637.654 1.905.555 3.863.938 5.826 1.225m95.466-7.635c-1.854-.686-3.837-1.093-5.563-2.055-1.117-.624-2.252-1.463-2.809-2.614-.202-.417.813-.484 1.268-.566a6.455 6.455 0 012.062-.027c3.469.515 7.328.097 10.353 1.872 1.048.616-.469 2.673-1.494 3.327m-59.965 3.7c.332-.207.816-.273.994-.621.738-1.44.948-3.109 1.659-4.563.678-1.386 1.542-2.684 2.486-3.904 1.469-1.899 3.001-3.769 4.736-5.43a56.05 56.05 0 016.647-5.468c2.788-1.947 5.904-3.387 8.73-5.278.146-.098.096-.431-.053-.526-.41-.262-.916-.382-1.401-.402-.684-.028-1.443-.08-2.037.261-2.574 1.472-4.93 3.303-7.302 5.084-2.374 1.782-4.354 4.117-6.928 5.595-.413.236-.575-.885-.471-1.349.224-.998.831-1.879 1.388-2.736.567-.872 1.568-1.462 1.966-2.423.179-.43.016-1.136-.405-1.337-.465-.222-1.057.145-1.483.435-.51.346-.895.868-1.212 1.398-1.708 2.856-3.035 5.937-4.846 8.73-.924 1.424-2.4 2.434-3.319 3.861-.955 1.485-1.773 3.095-2.252 4.795-.242.861-.327 1.923.148 2.682.516.825 1.584 1.163 2.485 1.527m82.815-6.605c-.494-.418-1.12-.717-1.481-1.252-.196-.292-.255-.753-.072-1.052a13.627 13.627 0 012.652-3.164c.387-.336.969-.487 1.478-.428.216.025.262.419.19.623a40.16 40.16 0 01-2.268 5.25m230.313-32.176c.316-.013.692.145.95-.039 1.018-.721 1.924-1.609 2.726-2.564.134-.161.122-.506-.05-.626-.393-.279-.909-.388-1.391-.394-1.009-.011-2.244-.312-3.007.347-.603.52-.344 1.609-.161 2.386m13.438-2.708c1.658-.854 3.543-1.367 4.974-2.562.376-.314-.922-.417-1.413-.412-1.675.018-3.539-.331-5.003.483-.696.388-.551 1.697-.151 2.387M141.252 43.14c.439-.194 1.378-.108 1.317-.584-.131-1.02-1.08-1.756-1.721-2.561-.209-.263-.471-.555-.802-.608-.675-.108-1.483-.239-2.046.149-.395.27-.43.979-.232 1.415.4.883 1.058 1.704 1.878 2.22m87.239-8.022c.69-.045 1.501.26 2.068-.134.919-.641 1.522-1.686 2.003-2.698.099-.206-.272-.41-.49-.482-1.576-.525-3.155-1.31-4.817-1.283-.477.008-.399.892-.421 1.369-.03.675-.039 1.408.269 2.008" fill-rule="nonzero"/></svg>